<svg width="127" height="127" viewBox="0 0 127 127" fill="none" xmlns="http://www.w3.org/2000/svg">
<g filter="url(#filter0_d_966_1931)">
<path d="M57.2525 5L12 5L124 117L124 71.2857L57.2525 5Z" fill="#FFF5F5"/>
<path d="M57.2525 5L12 5L124 117L124 71.2857L57.2525 5Z" stroke="#403834"/>
</g>
<path d="M45.7993 25.668L46.1727 25.1589C46.6403 25.4908 46.9571 25.6567 47.123 25.6567C47.2965 25.6643 47.5002 25.5511 47.734 25.3173L53.289 19.7623C53.5228 19.5285 53.636 19.3248 53.6284 19.1513C53.6284 18.9854 53.4625 18.6686 53.1306 18.201L53.6397 17.8276L57.1809 21.3688C57.8296 22.0175 58.2859 22.685 58.5499 23.3714C58.8214 24.0502 58.9081 24.7026 58.8101 25.3286C58.6291 26.5354 58.0483 27.6291 57.0678 28.6096C55.9892 29.6882 54.7636 30.3406 53.3908 30.5669C52.6969 30.6876 51.9691 30.6159 51.2073 30.3519C50.4606 30.0879 49.7554 29.6241 49.0916 28.9603L45.7993 25.668ZM48.7409 26.5053C48.575 26.6712 48.5561 26.8484 48.6843 27.037C49.1067 27.6706 49.4537 28.1231 49.7252 28.3946C50.5624 29.2319 51.4901 29.5637 52.5084 29.3903C53.5266 29.2168 54.5335 28.6322 55.5291 27.6366C56.1551 27.0106 56.6152 26.3846 56.9094 25.7586C57.2111 25.1401 57.3469 24.5744 57.3167 24.0615C57.2563 23.0961 56.9245 22.3116 56.3211 21.7082L54.9295 20.3167L48.7409 26.5053ZM55.9804 36.0528C55.2186 35.291 54.8868 34.4387 54.9848 33.4959C55.0904 32.5606 55.5392 31.697 56.3312 30.9051C57.1307 30.1056 58.0508 29.6681 59.0917 29.5927C60.1326 29.5172 61.049 29.8755 61.8409 30.6675C63.1231 31.9497 63.0062 33.4092 61.4902 35.0459L60.9811 34.9667L57.5191 31.8667C56.1237 33.2621 56.0219 34.5556 57.2136 35.7473C57.7341 36.2678 58.3714 36.6486 59.1256 36.89L58.9899 37.5009C58.5373 37.4557 58.032 37.3124 57.4738 37.071C56.9157 36.8297 56.4179 36.4903 55.9804 36.0528ZM58.0735 31.3802L60.619 33.5185C60.702 33.5864 60.8114 33.5525 60.9471 33.4167C61.279 33.0848 61.4751 32.7077 61.5355 32.2853C61.6033 31.8705 61.4261 31.4519 61.0037 31.0295C60.5813 30.6071 60.1288 30.4412 59.6461 30.5317C59.1784 30.6222 58.6542 30.9051 58.0735 31.3802ZM66.1575 36.1833C65.4938 35.5196 64.9357 35.414 64.4831 35.8666C64.3021 36.0476 64.2116 36.2286 64.2116 36.4096C64.2191 36.5831 64.2191 36.7113 64.2116 36.7943C64.2191 36.8772 64.2531 37.0092 64.3134 37.1903C64.3738 37.3713 64.4115 37.4995 64.4266 37.5749C64.4567 37.6504 64.5171 37.7937 64.6076 38.0048C64.9772 38.9024 65.1733 39.5963 65.1959 40.0866C65.2185 40.5768 65.0149 41.0369 64.5849 41.4668C64.155 41.8968 63.5893 42.0778 62.8879 42.0099C62.194 41.9496 61.5152 41.5875 60.8514 40.9238C60.5573 40.6296 60.282 40.294 60.0255 39.9169C59.7691 39.5397 59.5994 39.2494 59.5164 39.0457C59.5994 38.9326 59.7917 38.7252 60.0934 38.4235C60.3951 38.1218 60.7571 37.8276 61.1795 37.541L61.8131 38.084C61.3832 38.6196 61.1229 38.9552 61.0324 39.091C60.957 39.2267 60.9306 39.3361 60.9532 39.4191C61.0588 39.7962 61.3077 40.1809 61.6999 40.5731C62.3109 41.184 62.8615 41.2443 63.3517 40.7541C63.5856 40.5203 63.6874 40.2374 63.6572 39.9056C63.6195 39.536 63.5252 39.1626 63.3744 38.7855C62.9671 37.805 62.7521 37.0696 62.7295 36.5793C62.722 36.0891 62.9294 35.6327 63.3517 35.2104C63.7741 34.788 64.3247 34.622 65.0036 34.7126C65.6824 34.8031 66.2933 35.1199 66.8364 35.6629C67.3794 36.206 67.783 36.7981 68.0469 37.4392C67.9941 37.507 67.8282 37.6805 67.5491 37.9596C67.2701 38.2387 66.9269 38.4838 66.5196 38.695L65.9426 38.2311C66.4781 37.59 66.727 37.1676 66.6893 36.964C66.6591 36.7679 66.4819 36.5077 66.1575 36.1833ZM66.1522 42.9209L69.2634 39.8096L68.528 39.0743L68.9693 38.5425L69.6594 38.9611C69.8404 39.0667 70.0177 39.078 70.1912 38.9951C70.3797 38.9121 70.8926 38.5802 71.7298 37.9995L72.4878 38.6217L70.9718 40.1377L72.5444 41.7104L71.9221 42.1516L70.2703 40.8392L67.5098 43.5997C66.7254 44.3842 66.5745 45.0177 67.0573 45.5004C67.3288 45.772 67.7285 45.9454 68.2565 46.0209L68.166 46.5866C67.2081 46.7299 66.435 46.5074 65.8467 45.9191C65.4243 45.4967 65.2395 45.0177 65.2923 44.4822C65.3527 43.9542 65.6393 43.4338 66.1522 42.9209ZM69.4627 46.5482C70.0283 45.9825 70.6921 45.8015 71.4539 46.0051C72.2157 46.2088 73.1434 46.8499 74.237 47.9285L74.5991 47.5664C75.5796 46.5859 75.7154 45.7412 75.0064 45.0322C74.667 44.6928 74.403 44.5268 74.2144 44.5344C74.0334 44.5494 73.6223 44.7795 72.9812 45.2245L72.4382 44.5457C72.6116 44.2515 72.8228 43.98 73.0717 43.7311C73.3282 43.4746 73.4979 43.3125 73.5808 43.2446C74.3049 43.4105 75.029 43.8555 75.7531 44.5796C76.4772 45.3037 76.8392 45.9448 76.8392 46.5029C76.8467 47.0686 76.53 47.672 75.8888 48.3131L73.2867 50.9153C73.0906 51.1114 72.9963 51.2962 73.0038 51.4697C73.0265 51.6431 73.1924 51.9599 73.5016 52.42L73.0717 52.7142L71.567 51.5036C71.4916 51.4282 71.484 51.2773 71.5444 51.0511C71.6047 50.8248 71.6952 50.6513 71.8159 50.5306C71.9441 50.4024 72.0422 50.3119 72.1101 50.2591L72.0535 50.1346L71.7141 50.2025C70.8316 50.376 70.0811 50.1535 69.4627 49.535C69.0403 49.1126 68.8178 48.6262 68.7951 48.0755C68.7725 47.5249 68.995 47.0158 69.4627 46.5482ZM70.6619 47.5438C70.3904 47.8153 70.2546 48.0944 70.2546 48.381C70.2622 48.6601 70.3979 48.9316 70.6619 49.1956C70.9259 49.4596 71.352 49.6293 71.9404 49.7047C72.2496 49.7424 72.4796 49.6859 72.6305 49.535L73.7392 48.4263C73.0453 47.7625 72.4532 47.3515 71.963 47.1931C71.4803 47.0422 71.0466 47.1591 70.6619 47.5438ZM78.8838 49.611C79.3665 49.5054 79.8719 49.5507 80.3998 49.7468C80.9429 49.9429 81.4822 50.3087 82.0177 50.8442C82.5607 51.3873 82.9907 52.0284 83.3075 52.7676C83.2547 52.8354 83.0623 53.0353 82.7305 53.3672C82.4061 53.6915 82.0403 53.9668 81.633 54.1931L80.9316 53.6274C81.5727 52.7449 81.8631 52.2283 81.8027 52.0774C81.7122 51.8511 81.4633 51.5344 81.056 51.1271C80.6487 50.7198 80.2113 50.5614 79.7436 50.6519C79.0799 50.7877 78.3784 51.2251 77.6393 51.9643C76.9077 52.6959 76.5305 53.3898 76.5079 54.046C76.5004 54.7022 76.753 55.2867 77.2659 55.7996C77.7864 56.3201 78.4539 56.6557 79.2685 56.8066L79.2119 57.4967C78.0051 57.4816 76.9869 57.0592 76.1572 56.2296C75.3351 55.4074 74.9692 54.5287 75.0598 53.5935C75.1654 52.6582 75.599 51.8097 76.3608 51.0479C77.1302 50.2785 77.9712 49.7996 78.8838 49.611ZM80.5443 57.6299C81.11 57.0642 81.7738 56.8832 82.5356 57.0868C83.2973 57.2905 84.2251 57.9316 85.3187 59.0102L85.6808 58.6481C86.6613 57.6676 86.7971 56.8228 86.0881 56.1139C85.7486 55.7744 85.4847 55.6085 85.2961 55.616C85.1151 55.6311 84.704 55.8612 84.0629 56.3062L83.5198 55.6274C83.6933 55.3332 83.9045 55.0617 84.1534 54.8128C84.4099 54.5563 84.5796 54.3942 84.6625 54.3263C85.3866 54.4922 86.1107 54.9372 86.8348 55.6613C87.5588 56.3854 87.9209 57.0265 87.9209 57.5846C87.9284 58.1503 87.6116 58.7537 86.9705 59.3948L84.3684 61.997C84.1723 62.1931 84.078 62.3779 84.0855 62.5514C84.1082 62.7248 84.2741 63.0416 84.5833 63.5017L84.1534 63.7959L82.6487 62.5853C82.5733 62.5099 82.5657 62.359 82.6261 62.1327C82.6864 61.9065 82.7769 61.733 82.8976 61.6123C83.0258 61.4841 83.1239 61.3936 83.1918 61.3408L83.1352 61.2163L82.7958 61.2842C81.9133 61.4577 81.1628 61.2352 80.5443 60.6167C80.122 60.1943 79.8995 59.7078 79.8768 59.1572C79.8542 58.6066 80.0767 58.0975 80.5443 57.6299ZM81.7436 58.6255C81.4721 58.897 81.3363 59.1761 81.3363 59.4627C81.3438 59.7418 81.4796 60.0133 81.7436 60.2773C82.0076 60.5413 82.4337 60.711 83.022 60.7864C83.3313 60.8241 83.5613 60.7676 83.7122 60.6167L84.8209 59.508C84.127 58.8442 83.5349 58.4332 83.0447 58.2748C82.562 58.1239 82.1283 58.2408 81.7436 58.6255ZM89.2867 67.662C88.2835 67.7902 87.4765 67.5488 86.8655 66.9379C86.2546 66.3269 85.9944 65.584 86.0849 64.7091C86.1829 63.8266 86.6543 62.963 87.4991 62.1182C88.3438 61.2735 89.2603 60.8021 90.2483 60.704C91.2364 60.606 92.1302 60.9567 92.9297 61.7562C93.4803 62.3068 93.7895 62.8122 93.8574 63.2722L93.9705 63.3175C94.061 63.1667 94.2119 62.9856 94.4231 62.7744L96.3238 60.8737C96.4822 60.7153 96.5199 60.5192 96.4369 60.2854C96.369 60.0516 96.1616 59.7084 95.8147 59.2559L96.2446 58.9617C97.1572 59.6632 97.8398 60.2402 98.2924 60.6927L98.3037 60.9303L90.7914 68.4426C90.5953 68.6387 90.501 68.8235 90.5085 68.997C90.5312 69.1705 90.6971 69.4872 91.0063 69.9473L90.5764 70.2415L89.0717 69.0309C88.9963 68.9555 88.9887 68.7971 89.0491 68.5557C89.1094 68.3144 89.1999 68.1334 89.3206 68.0127C89.4413 67.892 89.5356 67.8053 89.6034 67.7525L89.5469 67.628L89.2867 67.662ZM88.8681 62.9441C88.1213 63.6909 87.6877 64.3584 87.567 64.9467C87.4538 65.5425 87.5783 66.0215 87.9403 66.3835C88.3024 66.7456 88.8077 66.9945 89.4564 67.1302C89.7958 67.1981 90.0711 67.1265 90.2823 66.9153L92.9862 64.2113C93.0466 63.5325 92.7487 62.865 92.0925 62.2088C91.7681 61.8844 91.4061 61.7336 91.0063 61.7562C90.3351 61.7939 89.6223 62.1899 88.8681 62.9441ZM93.7028 73.7752C92.8882 72.9606 92.5036 72.0932 92.5488 71.173C92.5941 70.2528 93.0504 69.3591 93.9178 68.4917C94.7851 67.6243 95.7091 67.1604 96.6896 67.1001C97.6852 67.0397 98.5903 67.4169 99.4049 68.2315C100.227 69.0536 100.612 69.9285 100.559 70.8562C100.514 71.7764 100.057 72.6702 99.19 73.5376C98.3226 74.405 97.3948 74.8651 96.4068 74.9179C95.4263 74.9782 94.5249 74.5973 93.7028 73.7752ZM95.1623 69.442C94.491 70.1133 94.0762 70.7997 93.9178 71.5011C93.7594 72.2026 93.914 72.7871 94.3816 73.2547C94.8493 73.7224 95.2943 73.9411 95.7166 73.9109C96.0033 73.8958 96.3502 73.7676 96.7575 73.5263C97.1723 73.2774 97.5721 72.9606 97.9568 72.5759C98.628 71.9046 99.0429 71.2183 99.2013 70.5168C99.3597 69.8154 99.205 69.2308 98.7374 68.7632C98.2698 68.2956 97.8248 68.0768 97.4024 68.107C97.1158 68.1221 96.765 68.2541 96.3502 68.503C95.9429 68.7443 95.5469 69.0574 95.1623 69.442Z" fill="#403834"/>
<defs>
<filter id="filter0_d_966_1931" x="0.792908" y="0.5" width="125.707" height="125.707" filterUnits="userSpaceOnUse" color-interpolation-filters="sRGB">
<feFlood flood-opacity="0" result="BackgroundImageFix"/>
<feColorMatrix in="SourceAlpha" type="matrix" values="0 0 0 0 0 0 0 0 0 0 0 0 0 0 0 0 0 0 127 0" result="hardAlpha"/>
<feOffset dx="-4" dy="2"/>
<feGaussianBlur stdDeviation="3"/>
<feComposite in2="hardAlpha" operator="out"/>
<feColorMatrix type="matrix" values="0 0 0 0 0 0 0 0 0 0 0 0 0 0 0 0 0 0 0.25 0"/>
<feBlend mode="normal" in2="BackgroundImageFix" result="effect1_dropShadow_966_1931"/>
<feBlend mode="normal" in="SourceGraphic" in2="effect1_dropShadow_966_1931" result="shape"/>
</filter>
</defs>
</svg>
