<svg width="494" height="457" viewBox="0 0 494 457" fill="none" xmlns="http://www.w3.org/2000/svg">
<path d="M372.217 117.6C360.217 113.7 347.817 111.7 335.517 111.7C331.917 111.7 328.217 111.9 324.517 112.2C314.117 113.1 300.517 114.9 288.017 119.8C276.717 124.3 267.517 130.8 259.917 139.7C259.517 139.3 259.117 138.9 258.717 138.6C255.817 136 253.417 133.8 250.717 131.6C233.417 117.7 215.817 110.9 196.817 110.9C195.217 110.9 193.517 111 191.917 111.1C172.717 112.3 155.017 116.7 139.517 124.2C125.517 131 114.417 141 106.517 154.2C83.7174 192.2 79.5174 255.2 116.517 296.9C140.717 324.2 163.417 347.3 185.817 367.8C202.417 382.9 221.617 397.3 244.517 411.9C250.017 415.4 255.217 417.1 260.217 417.1C265.717 417.1 271.217 415.1 277.017 411C299.717 395.1 321.517 377.5 342.517 360.4C351.717 352.9 361.217 345.2 370.717 337.7C382.217 328.6 392.217 318.9 400.617 308.6C420.317 284.6 432.017 257.4 434.417 230.1C436.817 202.9 430.017 175.7 414.817 151.3C404.517 134.8 390.217 123.4 372.217 117.6ZM118.417 220.8C117.817 208.4 120.117 195.3 125.617 180.6C132.917 161 146.717 148.4 166.717 143C176.117 140.5 186.217 138 196.117 138C203.617 138 210.317 139.4 216.617 142.3C229.617 148.2 239.817 157 247.117 168.3C249.417 171.9 252.417 175.8 257.817 177.7C259.817 178.4 261.717 178.8 263.717 178.8C269.917 178.8 274.717 175.2 276.817 169.2C282.417 152.6 294.717 143.6 316.717 140.2C323.817 139.1 330.217 138.6 336.317 138.6C346.017 138.6 354.717 140 363.017 142.8C373.717 146.4 382.017 152.6 387.617 161.2C398.517 177.8 404.617 195 405.817 212.2C407.017 229.4 403.417 247.3 394.917 265.2C386.417 283.2 374.317 298.7 358.717 311.4C350.917 317.7 343.117 324.2 335.517 330.5C312.717 349.4 289.117 369 264.117 385.9L263.817 386.1C261.817 387.5 259.917 388.7 259.317 388.8C258.717 388.7 256.517 387.3 254.817 386.2C234.817 373.1 215.017 357.4 194.417 338.3C177.217 322.4 159.917 304.2 139.717 280.8C124.517 263.1 117.517 243.6 118.517 221.2V221.1L118.417 220.8Z" fill="#1D1D1B"/>
<path d="M44.2173 370.3C44.0173 370.3 43.7173 370.3 43.5173 370.3C31.9173 370.5 19.1173 376.6 10.2173 386.1C3.31729 393.5 -0.282658 401.8 0.0173422 409.7C0.917342 431 15.1173 454.7 44.2173 456.1C44.8173 456.1 45.3172 456.1 45.9172 456.1C55.9172 456.1 66.0173 451.6 73.7173 443.8C81.7173 435.7 86.2174 425.1 86.1174 414.7C86.0174 403.6 81.4172 392.3 73.4172 383.8C65.3172 375.2 54.7173 370.3 44.2173 370.3ZM56.6174 415.3C56.7174 421.8 51.5174 428 45.3174 428.8C44.9174 428.9 44.6173 428.9 44.2173 428.9C38.4173 428.9 32.0172 423.1 30.4172 416.5C29.4172 412.2 30.4174 407.5 33.1174 403.7C35.8174 399.9 39.8173 397.5 44.0173 397C44.2173 397 44.4174 397 44.6174 397C46.3174 397 48.0174 397.8 49.8174 399.5C54.4174 403.8 56.6174 408.8 56.6174 415.3Z" fill="#1D1D1B"/>
<path d="M451.618 0H451.217C439.817 0 427.918 5.2 419.618 14C412.418 21.5 408.617 30.7 409.017 39.7C409.517 52.2 413.617 63.6 420.517 71.7C427.917 80.5 438.017 85.2 449.717 85.3C449.917 85.3 450.117 85.3 450.317 85.3C461.717 85.3 472.217 81.9 480.017 75.7C488.917 68.6 493.618 58.3 493.618 45.9C493.718 32.9 488.917 21 480.217 12.3C472.417 4.4 462.018 0 451.618 0ZM459.417 55.3C456.817 57.3 454.018 58.4 451.118 58.4C449.518 58.4 448.018 58.1 446.618 57.4C440.518 54.7 439.717 48.3 439.717 44.7C439.717 44.1 439.717 43.5 439.817 42.8V42.7C439.817 42.4 439.817 42.1 439.817 41.9V41.8C440.017 32.3 443.717 27.4 450.817 27.1C451.017 27.1 451.217 27.1 451.417 27.1C454.617 27.1 457.017 28.2 458.817 30.6C461.517 34 463.217 37.6 464.017 41.4C465.317 47.3 463.817 51.8 459.417 55.3Z" fill="#1D1D1B"/>
</svg>
