<svg width="405" height="91" viewBox="0 0 405 91" fill="none" xmlns="http://www.w3.org/2000/svg">
<g clip-path="url(#clip0_409_423)">
<path d="M120.514 73.5013C121.128 73.507 121.715 73.7584 122.146 74.2004L122.293 74.3527L122.807 73.8489L122.656 73.6966C122.378 73.4058 122.046 73.1744 121.678 73.0161C121.31 72.8578 120.914 72.7757 120.514 72.7749C119.747 72.8476 119.035 73.2067 118.516 73.7821C117.998 74.3574 117.71 75.1074 117.71 75.8855C117.71 76.6636 117.998 77.4137 118.516 77.989C119.035 78.5643 119.747 78.9234 120.514 78.9961C121.32 78.9868 122.09 78.657 122.656 78.0784L122.807 77.926L122.293 77.4066L122.142 77.5629C121.932 77.7856 121.679 77.9634 121.4 78.0855C121.12 78.2076 120.819 78.2716 120.514 78.2736C119.888 78.2736 119.287 78.0222 118.844 77.5747C118.401 77.1272 118.152 76.5203 118.152 75.8875C118.152 75.2546 118.401 74.6477 118.844 74.2002C119.287 73.7527 119.888 73.5013 120.514 73.5013Z" fill="#0F0F0F"/>
<path d="M137.954 72.7671C137.341 72.757 136.738 72.9316 136.223 73.2687C135.707 73.6059 135.303 74.0902 135.061 74.6601C134.819 75.2301 134.751 75.8598 134.865 76.4691C134.978 77.0785 135.269 77.6399 135.699 78.082C136.13 78.524 136.681 78.8266 137.282 78.9514C137.883 79.0761 138.508 79.0172 139.076 78.7823C139.644 78.5474 140.13 78.1471 140.472 77.6323C140.814 77.1174 140.997 76.5114 140.997 75.8913C140.997 75.0715 140.678 74.2844 140.109 73.6999C139.54 73.1154 138.766 72.7804 137.954 72.7671ZM137.954 73.4935C138.423 73.4849 138.884 73.6177 139.278 73.8748C139.673 74.1319 139.982 74.5018 140.167 74.9372C140.352 75.3727 140.405 75.8539 140.318 76.3197C140.232 76.7855 140.01 77.2146 139.681 77.5525C139.352 77.8904 138.931 78.1216 138.471 78.2168C138.012 78.312 137.534 78.2667 137.1 78.0869C136.666 77.907 136.295 77.6006 136.034 77.2068C135.773 76.813 135.634 76.3496 135.635 75.8757C135.64 75.2529 135.885 74.6565 136.318 74.2132C136.751 73.7698 137.338 73.5145 137.954 73.5013V73.4935Z" fill="#0F0F0F"/>
<path d="M154.331 72.8765H153.612V78.9024H157.521V78.176H154.331V72.8765Z" fill="#0F0F0F"/>
<path d="M170.712 72.8765H169.997V78.9024H173.905V78.176H170.712V72.8765Z" fill="#0F0F0F"/>
<path d="M186.47 78.9024H190.53V78.176H187.185V76.196H190.282V75.4735H187.185V73.5989H190.53V72.8765H186.47V78.9024Z" fill="#0F0F0F"/>
<path d="M207.56 73.4076V72.8765H203.149V73.5989H206.57L203.094 78.3713V78.9024H207.591V78.176H204.084L207.56 73.4076Z" fill="#0F0F0F"/>
<path d="M221.052 72.8765H220.333V78.9024H221.052V72.8765Z" fill="#0F0F0F"/>
<path d="M236.811 72.7671C236.197 72.757 235.594 72.9316 235.079 73.2687C234.564 73.6059 234.16 74.0902 233.918 74.6601C233.676 75.2301 233.608 75.8598 233.721 76.4691C233.835 77.0785 234.125 77.6399 234.556 78.082C234.986 78.524 235.537 78.8266 236.138 78.9514C236.74 79.0761 237.364 79.0172 237.932 78.7823C238.5 78.5474 238.986 78.1471 239.329 77.6323C239.671 77.1174 239.853 76.5114 239.854 75.8913C239.854 75.0715 239.535 74.2844 238.965 73.6999C238.396 73.1154 237.622 72.7804 236.811 72.7671ZM236.811 78.2658C236.342 78.2743 235.881 78.1418 235.488 77.885C235.094 77.6282 234.784 77.2588 234.599 76.8238C234.413 76.3889 234.36 75.908 234.446 75.4424C234.532 74.9769 234.753 74.5477 235.082 74.2095C235.41 73.8714 235.83 73.6395 236.289 73.5434C236.748 73.4474 237.225 73.4915 237.66 73.6702C238.094 73.8489 238.465 74.154 238.727 74.5468C238.989 74.9395 239.13 75.4021 239.131 75.8757C239.128 76.5014 238.884 77.1015 238.451 77.549C238.018 77.9965 237.43 78.2564 236.811 78.2736V78.2658Z" fill="#0F0F0F"/>
<path d="M256.744 77.5785L253.292 72.8765H252.681V78.9024H253.396V74.1965L256.849 78.9024H257.46V72.8765H256.744V77.5785Z" fill="#0F0F0F"/>
<path d="M270.504 78.9024H274.567V78.176H271.223V76.196H274.316V75.4735H271.223V73.5989H274.567V72.8765H270.504V78.9024Z" fill="#0F0F0F"/>
<path d="M124.813 33.9285C125.017 33.8615 125.215 33.7765 125.405 33.6747L125.826 33.9285L126.147 33.7957L126.87 33.991C127.025 33.9867 127.177 33.9498 127.317 33.8825C127.457 33.8153 127.581 33.7192 127.682 33.6005C127.873 33.3913 128.094 33.2134 128.339 33.0732L128.765 32.8741C129.046 32.5323 129.39 32.2485 129.777 32.0383C130.166 31.7677 130.584 31.5424 131.022 31.3666L131.776 30.3004L132.491 29.781C132.792 29.2396 133.127 28.7178 133.493 28.2189C133.769 27.9009 133.988 27.536 134.138 27.141C134.138 26.2584 133.593 25.8171 132.491 25.8171L131.212 25.9382C131.161 25.931 131.113 25.9138 131.069 25.8877C131.025 25.8616 130.987 25.827 130.957 25.7859C130.909 25.731 130.849 25.6877 130.782 25.6593C130.715 25.6309 130.643 25.6181 130.57 25.6218C130.37 25.597 130.167 25.6292 129.984 25.7148C129.801 25.8004 129.645 25.9359 129.534 26.1061C129.409 26.3375 129.26 26.5549 129.089 26.7544C128.996 27.1924 128.819 27.6077 128.567 27.9768C128.344 28.3149 128.158 28.6763 128.011 29.0546C127.974 29.1871 127.912 29.311 127.828 29.4189C127.743 29.5269 127.639 29.6168 127.52 29.6834C127.257 29.8587 127.037 30.0908 126.874 30.3629L126.553 30.6832C125.896 31.1362 125.517 31.5541 125.393 31.9407C124.589 32.4132 124.191 32.8194 124.191 33.1396C124.203 33.6629 124.404 33.9285 124.813 33.9285Z" fill="#0F0F0F"/>
<path d="M87.0647 41.5244C86.7206 41.005 86.4655 40.5871 86.2915 40.2669C85.7889 40.0911 85.5453 39.97 85.5453 39.8763C85.702 39.5682 85.8885 39.2765 86.1021 39.0054C86.1315 38.7473 86.0875 38.486 85.9752 38.2522C85.8629 38.0184 85.687 37.8218 85.468 37.6854C85.0698 37.459 84.6533 37.267 84.2231 37.1113C83.9888 37.05 83.7638 36.9567 83.5543 36.8341C83.1416 36.6655 82.7179 36.5259 82.2862 36.4162L81.339 36.0999C81.0967 36.1208 80.8638 36.2042 80.6624 36.342C80.4064 36.4908 80.1339 36.6088 79.8506 36.6935C79.5838 36.7716 79.3054 36.8575 79.0039 36.9551C78.7699 37.034 78.527 37.0826 78.2809 37.0996C77.7242 37.0996 76.8234 37.4081 75.5978 38.0135C74.3723 38.6188 73.63 39.0835 73.3864 39.3686C73.0866 39.6932 72.6997 39.9226 72.273 40.0286C71.8569 40.1559 71.4649 40.3526 71.1131 40.6105C71.0121 40.8145 70.8697 40.9946 70.6952 41.1393C70.5207 41.2839 70.3179 41.3899 70.1002 41.4502C69.577 41.7645 69.1167 42.1752 68.7432 42.6608C68.6657 42.8082 68.5597 42.9383 68.4315 43.0436C68.3034 43.1489 68.1557 43.2273 67.9971 43.274C67.5923 43.4498 67.2565 43.756 67.0421 44.1449C66.7969 44.4408 66.6187 44.7874 66.5202 45.1602L66.7058 45.9726L66.6516 46.5466C66.6516 46.8552 66.8411 46.9957 67.2316 46.9957C67.4082 47.0009 67.5813 46.9449 67.722 46.8369C67.8626 46.7289 67.9625 46.5754 68.0048 46.4021C68.0862 46.1756 68.1831 45.9551 68.2947 45.7421L68.6814 45.8749C68.8592 45.8749 68.9829 45.7539 69.068 45.5195C69.0906 45.4109 69.1433 45.3111 69.22 45.2315C69.2967 45.152 69.3941 45.0962 69.501 45.0704C69.7742 44.9523 70.0011 44.7464 70.1466 44.4846C70.3657 44.6538 70.4546 44.7944 70.4134 44.9064L69.6402 47.48V48.5149C69.5627 48.7153 69.4529 48.9014 69.3154 49.0656L69.3811 49.7724L69.3154 50.3856V50.5184C69.372 51.0865 69.5501 51.6355 69.8373 52.1274C70.075 52.684 70.4472 53.1715 70.9198 53.545L71.3722 53.9355C71.4953 54.1303 71.6692 54.2871 71.8748 54.3886C72.1325 54.5375 72.3596 54.735 72.5436 54.9705C72.7147 55.2022 72.9634 55.3633 73.2434 55.4235C73.4836 55.4464 73.7082 55.5543 73.8774 55.7281C74.0248 55.8839 74.222 55.9822 74.4341 56.0054C74.6294 55.9708 74.8176 55.9035 74.9909 55.8062L75.5128 55.8726C76.1932 55.8726 76.6146 55.7945 76.7809 55.6305C76.966 55.4642 77.2022 55.3676 77.4497 55.3571C77.7691 55.3193 78.0786 55.2213 78.3621 55.0681C78.6367 54.9183 78.9272 54.8004 79.2281 54.7166C79.6551 54.5409 80.0528 54.2998 80.4073 54.0019L80.732 54.0683C80.8635 54.0683 81.0877 53.8691 81.397 53.4825C81.7063 53.0959 81.9769 52.9123 82.1973 52.9123C82.2465 52.9129 82.295 52.9239 82.3397 52.9448C82.3843 52.9657 82.4241 52.9959 82.4563 53.0334L84.0028 51.7134C84.1565 51.6471 84.29 51.5406 84.3894 51.4049C84.4872 51.2706 84.6108 51.1577 84.7528 51.0729C84.8424 51.0166 84.9188 50.9414 84.9769 50.8524C85.0349 50.7634 85.0732 50.6628 85.0891 50.5574C85.1266 50.3219 85.2393 50.1052 85.41 49.9404C85.6111 49.7312 85.77 49.4845 85.8778 49.214C86.0247 48.9055 86.1253 48.718 86.1562 48.6516L86.3572 48.3861C86.4139 48.2494 86.5166 48.1373 86.6472 48.0697C86.7382 48.0071 86.815 47.9256 86.8723 47.8307C86.9297 47.7357 86.9663 47.6295 86.9797 47.5191L87.2348 46.6169L87.1343 45.9765C87.1343 45.9101 87.258 45.7695 87.5016 45.5469L87.5596 45.293L87.5016 42.653L87.0647 41.5244ZM82.9396 43.7036C83.146 43.7936 83.322 43.9424 83.4462 44.1316C83.5705 44.3209 83.6376 44.5426 83.6393 44.7697C83.6258 45.1937 83.5622 45.6146 83.4499 46.0233L82.8275 47.1949C82.8467 47.3662 82.8027 47.5387 82.7037 47.6792L82.437 48.0697C82.3596 48.3539 82.1944 48.6057 81.9653 48.7883C81.6986 49.0067 81.4822 49.2813 81.3313 49.5928C81.1186 49.9746 80.785 50.2731 80.3841 50.4403C80.1782 50.5278 80.0037 50.6768 79.8842 50.8674C79.7646 51.058 79.7057 51.281 79.7152 51.5064L79.5954 51.5728H79.1392C79.0928 51.5728 78.9923 51.7368 78.826 52.0571C78.6598 52.3773 78.4394 52.5413 78.2268 52.5413C77.8599 52.6 77.5205 52.7735 77.2564 53.0373C76.8008 53.3958 76.2325 53.5761 75.6558 53.545C75.3265 53.5299 74.9992 53.4855 74.6777 53.4122L74.5115 53.3458H73.9857L73.9315 53.2794L73.7962 52.5413L73.4753 51.5064L73.5991 50.3348L73.7305 49.9169C73.6949 49.7657 73.6139 49.6293 73.4985 49.5264C73.3516 49.3624 73.2743 49.253 73.2743 49.2062C73.2781 49.0948 73.3122 48.9867 73.3729 48.8936C73.4336 48.8006 73.5186 48.7263 73.6184 48.679C73.7934 48.5867 73.9433 48.4526 74.0553 48.2884C74.0983 47.8511 74.2188 47.4252 74.4109 47.0309L74.9986 45.5781C75.3427 45.2383 75.6326 44.9298 75.8453 44.676L76.2009 44.2581C76.6571 43.8949 76.8775 43.5434 76.8582 43.192L77.2448 42.8014C77.4179 42.8037 77.5894 42.7674 77.7471 42.6952C77.9048 42.623 78.0448 42.5166 78.1572 42.3835C78.393 42.1063 78.5438 41.9657 78.5825 41.9657H79.0039C79.1677 41.8099 79.2991 41.6227 79.3905 41.415C79.5219 41.1612 79.6572 41.0245 79.7771 41.0245C80.0323 41.1119 80.2804 41.2189 80.5194 41.3447C81.9112 40.8487 82.6921 40.4543 82.8391 40.1536C83.0871 40.0394 83.3462 39.9517 83.6123 39.8919C83.6385 39.8893 83.6649 39.8927 83.6896 39.9019C83.7143 39.9111 83.7366 39.9259 83.7549 39.9451C83.7731 39.9642 83.7868 39.9874 83.7949 40.0126C83.803 40.0379 83.8054 40.0648 83.8017 40.0911C83.8017 40.177 83.5427 40.4309 83.0285 40.8487C82.8033 41.0002 82.6161 41.2025 82.4819 41.4398C82.3477 41.6771 82.2701 41.9427 82.2553 42.2156C82.2475 42.942 82.4834 43.4497 82.9396 43.7036Z" fill="#0F0F0F"/>
<path d="M65.0588 59.0125C64.8178 58.947 64.6012 58.8112 64.4363 58.622C64.0471 57.8409 62.2816 56.2918 59.1397 53.9746L55.3819 51.2018C55.1543 50.8462 54.8632 50.5363 54.5236 50.288C54.2227 50.0782 53.9464 49.8345 53.7001 49.5616C53.2103 49.0994 52.6827 48.6801 52.1227 48.308L51.6975 48.1088C51.4791 47.9398 51.2349 47.8079 50.9745 47.7182C50.932 47.7182 50.8624 47.7651 50.7735 47.851H50.5879L50.6536 47.5855C50.6536 47.4644 50.441 47.2223 50.0312 46.8825C49.6214 46.5427 49.3275 46.2889 49.1729 46.1444L48.8172 45.9452C48.651 45.7617 48.5389 45.6601 48.4925 45.6601H48.2953C48.2953 45.8476 48.2296 45.9452 48.1059 45.9452C47.9851 45.9108 47.8713 45.8553 47.7695 45.7812L47.9048 45.211H47.8391L47.2824 44.8791L43.8222 41.9852C43.2307 41.6884 42.9446 41.3682 42.9446 41.0479C42.9945 40.797 43.1047 40.5623 43.2655 40.3645L44.0387 38.9781C44.2528 38.8123 44.4463 38.6208 44.6148 38.4079L44.6844 38.0174C44.9341 37.6752 45.1321 37.2975 45.272 36.8966C45.3453 36.6344 45.4659 36.3881 45.6277 36.1702C45.7746 36.0064 45.8889 35.8154 45.964 35.6078C46.053 35.3657 46.1612 35.0689 46.3197 34.7057L46.6522 34.2526C46.6754 34.1433 46.8842 34.0105 47.2978 33.8621C47.7115 33.7137 47.9203 33.5848 47.9203 33.5184L48.6935 33.7528C48.9706 33.6651 49.2182 33.5015 49.4087 33.2802C49.5421 33.097 49.7071 32.9395 49.8959 32.8155C49.9295 32.8543 49.9703 32.886 50.0161 32.9088C50.0619 32.9316 50.1117 32.945 50.1626 32.9483C50.2898 33.091 50.4646 33.1813 50.6536 33.2021C50.9438 33.1691 51.2201 33.0586 51.4539 32.8819C51.7244 32.6763 52.0512 32.5603 52.3895 32.5499L52.4552 32.3625L53.1009 32.5499L54.2607 32.0656C54.4593 32.1075 54.6482 32.187 54.8174 32.3C55.1565 32.1692 55.5074 32.0724 55.8651 32.011L56.4876 31.4955L56.8742 31.8157C57.0253 31.8065 57.1693 31.7475 57.284 31.6478C57.4264 31.5484 57.5847 31.4745 57.7518 31.4291L58.2196 31.5619C58.3193 31.6102 58.4306 31.6292 58.5405 31.6165C58.6114 31.619 58.6814 31.5999 58.7415 31.5619L59.6191 31.1088C59.8474 31.1144 60.0734 31.062 60.2764 30.9565C60.5341 30.8368 60.8075 30.7553 61.0883 30.7144L62.3022 30.4918L62.8241 30.5582L63.4814 30.3942C63.9079 30.2802 64.3441 30.207 64.7843 30.1755C65.1295 30.1899 65.4723 30.1105 65.777 29.9457C66.0816 29.7809 66.3369 29.5365 66.5163 29.2382L66.9029 29.3593L70.3824 28.3243C70.5557 28.3255 70.7274 28.2915 70.8874 28.2245C71.0475 28.1574 71.1926 28.0585 71.3141 27.9338C71.5542 27.6774 71.8529 27.4843 72.184 27.3714C72.3386 27.3114 72.48 27.2212 72.6001 27.1059C72.7201 26.9907 72.8165 26.8526 72.8838 26.6997C73.01 26.41 73.235 26.1758 73.5178 26.0397C73.631 26.0086 73.7349 25.9499 73.8204 25.8689C73.906 25.7879 73.9707 25.687 74.0088 25.575C74.0897 25.3401 74.2218 25.1265 74.3954 24.9501L74.7202 22.7788L74.6544 22.3609L74.7202 21.9118C74.7269 21.6143 74.6447 21.3217 74.4843 21.0721C74.3905 20.9448 74.3163 20.8039 74.264 20.6542V20.5879C74.3065 20.334 74.3297 20.1973 74.3297 20.1387C74.3297 20.006 74.1634 19.8068 73.8194 19.5451C73.4753 19.2835 73.3168 19.1155 73.3168 19.0687V18.8187C73.1524 18.5935 73.0221 18.3447 72.9302 18.0806C72.6504 17.8842 72.3557 17.7105 72.0487 17.5612L71.7819 17.0106C71.4863 16.8057 71.1701 16.6329 70.8386 16.4951L70.5796 16.6278L69.6362 16.1748C69.4349 16.0164 69.2139 15.8851 68.979 15.7843H68.9133C68.7462 15.8089 68.5818 15.8494 68.4223 15.9054C68.021 15.7336 67.6333 15.5313 67.2624 15.3L66.9068 15.3547C66.7871 15.2754 66.6569 15.2136 66.5202 15.1712L65.9441 15.2336L64.5407 14.9056H64.1038C63.934 14.9536 63.7582 14.9759 63.5819 14.972C63.53 14.9684 63.4815 14.9446 63.4466 14.9056C63.2851 14.8711 63.1206 14.8528 62.9556 14.8509H62.7004C62.4337 14.8822 62.2442 14.9056 62.1128 14.9056L61.788 14.8509L61.1656 15.1048C61.0126 14.954 60.831 14.8361 60.6316 14.7582C60.4323 14.6804 60.2193 14.6442 60.0058 14.6517C59.7311 14.711 59.4693 14.8194 59.2325 14.972L57.7673 14.6517H57.5778C56.4412 14.9056 55.8304 15.0423 55.753 15.0423C55.5986 15.0146 55.4529 14.9503 55.3278 14.8548C55.1863 14.745 55.0179 14.6761 54.8406 14.6556C54.7942 14.6556 54.6628 14.6791 54.427 14.722C54.0699 14.7786 53.7096 14.8112 53.3483 14.8197C52.6243 14.876 51.9065 14.9949 51.2026 15.1751C50.5345 15.3435 49.8525 15.4494 49.1652 15.4914L48.6085 15.425C48.3399 15.5608 48.0554 15.6619 47.7618 15.7257L47.1393 15.8429H46.6174C46.4631 15.8845 46.3168 15.9518 46.1844 16.042C46.0961 16.1179 45.9867 16.1643 45.8712 16.1748L45.3493 15.9757L43.625 16.4287H43.4588C43.0722 16.3388 42.8248 16.3935 42.7126 16.5927C42.6491 16.6892 42.561 16.7666 42.4576 16.8168C42.3542 16.867 42.2393 16.888 42.125 16.8778C41.9242 16.8667 41.7356 16.777 41.5992 16.6278C40.7893 16.6904 39.9939 16.8788 39.2409 17.1863C38.4195 17.5319 37.566 17.7935 36.6931 17.9674C35.6448 18.1611 34.6659 18.6313 33.8554 19.3303C33.1556 19.9942 32.7999 20.5449 32.7999 20.994C32.7999 22.2828 33.4881 22.9467 34.8567 22.9467C35.4414 22.9309 36.0081 22.7391 36.4843 22.396C36.6995 22.284 36.8906 22.1301 37.0465 21.9431C37.2025 21.756 37.3202 21.5397 37.3929 21.3064L37.4625 20.955L38.0192 20.7011C38.3375 20.5101 38.6033 20.2416 38.7924 19.92C39.179 19.756 39.5927 19.5881 40.0064 19.4475C40.2615 19.139 40.4394 18.9945 40.5167 18.9945L41.0077 19.1155H41.0734C41.1623 19.1155 41.2087 19.096 41.2087 19.0609C41.4639 18.6703 41.6417 18.4438 41.7306 18.4438L42.1173 18.5454L42.6044 18.4438C42.6876 18.459 42.7651 18.4968 42.8286 18.5532C42.914 18.6208 43.0179 18.6604 43.1263 18.6664H43.2616L43.9382 18.19L44.7114 18.2564L45.2681 18.1236L45.9911 18.19C46.1249 18.1822 46.2561 18.1491 46.3777 18.0923C46.4997 18.0367 46.6307 18.0036 46.7643 17.9947L47.0852 18.0611H47.1509L48.9448 17.7409L49.4319 17.8619C49.4568 17.838 49.4759 17.8087 49.4879 17.7762C49.5 17.7438 49.5046 17.709 49.5015 17.6745C49.6945 17.7309 49.8908 17.7752 50.0892 17.8073H50.2245L50.4139 17.7409L51.423 17.8619C51.8954 17.8546 52.3572 17.7198 52.7607 17.4714C52.9031 17.5865 53.0639 17.6763 53.2362 17.737C53.3553 17.762 53.4619 17.8283 53.5377 17.9244C53.5639 17.9638 53.5989 17.9963 53.6399 18.0194C53.6809 18.0424 53.7267 18.0554 53.7736 18.0572L56.3755 17.8033C56.5204 17.8242 56.6554 17.8896 56.7621 17.9908L57.6513 17.858L58.2273 18.1197L58.8189 17.9908C59.0199 18.1666 59.1513 18.2525 59.2403 18.2525L59.8318 18.1197H60.9104C61.0689 18.2442 61.24 18.3515 61.4207 18.4399H61.9775C62.0896 18.4467 62.2015 18.4238 62.3022 18.3735L62.6347 18.311C62.7236 18.311 62.8241 18.3852 62.9556 18.5415L63.1914 18.6079H63.7018L64.591 18.9984C64.821 19.1233 65.0601 19.2304 65.3062 19.3186C65.4198 19.2931 65.5284 19.2482 65.6271 19.1858C66.0045 19.4986 66.4453 19.7239 66.9184 19.8458C67.2878 19.9307 67.6433 20.0688 67.9738 20.2559L68.3604 20.1231C68.5859 20.3605 68.8468 20.5608 69.1336 20.7167C69.2944 20.8058 69.447 20.9091 69.5898 21.0253C69.9107 21.0253 70.077 21.0487 70.077 21.0916C70.4249 21.6306 70.6221 21.9157 70.6569 21.9625C70.3553 23.2474 69.7986 24.0285 68.9983 24.2823L67.0421 24.8681C65.8822 25.2313 65.1941 25.5047 64.9814 25.7039C64.7169 25.9189 64.4155 26.0831 64.0922 26.1881C62.77 26.3951 62.1012 26.606 62.1012 26.7934C62.0972 26.8659 62.1207 26.9371 62.1669 26.9926L61.645 26.9262C61.4281 26.9425 61.2146 26.9899 61.0109 27.0668C60.721 27.1684 60.5431 27.3324 60.5122 27.5745C60.4603 27.5717 60.41 27.5551 60.3666 27.5263C60.3231 27.4974 60.288 27.4575 60.2648 27.4105C60.2393 27.3633 60.2027 27.3233 60.1582 27.294C60.1136 27.2647 60.0626 27.247 60.0096 27.2426C59.4104 27.2426 59.0856 27.3871 59.0624 27.6643C59.0392 27.9416 58.9194 28.0822 58.6758 28.0822H58.5405C58.4794 27.9761 58.3913 27.8884 58.2853 27.8284L57.8987 27.8948H57.6977C57.1526 27.9807 56.8433 28.0275 56.7543 28.0275L54.7633 28.5665H54.1293L52.0686 29.2148C50.7696 29.2811 50.0235 29.5467 49.8572 30.0192L49.0337 30.2184L49.2 29.9529L49.3314 29.3358L50.2129 26.8911C50.3769 26.2637 50.6767 25.6808 51.0905 25.1844C51.3689 24.9228 51.5119 24.3721 51.5119 23.5325C51.4799 23.1908 51.357 22.8642 51.1562 22.5874C50.9755 22.3357 50.8334 22.0579 50.7348 21.7634C50.6884 21.5876 50.3482 21.3103 49.6871 20.9354C49.2978 20.6661 48.8606 20.4751 48.3997 20.3731C47.2089 20.3731 46.6058 20.7948 46.6058 21.6306C46.5967 22.1115 46.7586 22.5799 47.062 22.9506C46.8842 23.1263 46.8068 23.2591 46.8068 23.3411L47.1316 24.2081C46.9611 24.2673 46.7849 24.3079 46.6058 24.3292C46.5169 24.3292 46.3738 24.6924 46.1496 25.4188C46.0169 25.9686 45.8032 26.4952 45.5156 26.9809C45.3184 27.2894 45.1947 27.5003 45.129 27.5745C44.8763 28.2594 44.5832 28.9284 44.2513 29.578C44.031 29.7107 43.7835 30.1716 43.5168 30.9761C43.25 31.7806 42.9175 32.2336 42.5387 32.3078C42.2102 32.3663 41.886 32.4472 41.5683 32.5499L41.1159 32.9404L40.5708 33.0615C40.1989 33.2726 39.7974 33.4254 39.38 33.5145C38.5636 33.8025 37.7847 34.1894 37.0604 34.6666C35.9005 35.3383 35.3361 35.9007 35.3361 36.3537C35.3361 37.1895 35.916 37.9471 37.0604 38.611L37.1957 38.939C37.2382 39.1695 37.4625 39.4233 37.8645 39.6772C38.2666 39.931 38.4638 40.1927 38.4638 40.4582C38.4076 40.7309 38.2731 40.9808 38.0772 41.1768C37.7856 41.5285 37.5767 41.9425 37.4663 42.3875C37.3949 42.7285 37.2751 43.0573 37.1106 43.3638L36.264 44.6213L34.5397 47.8784C34.21 48.4647 33.9344 49.0805 33.7162 49.7178L33.5963 50.4676C33.4876 50.7342 33.4198 51.016 33.3953 51.3033C33.4154 51.597 33.5232 51.8775 33.7046 52.1079C33.8526 52.3081 33.9759 52.5258 34.0719 52.7561C34.4868 53.9303 35.0101 54.5578 35.6415 54.6385C36.0552 54.6627 36.4637 54.7441 36.8555 54.8806L37.5127 54.8142C37.9341 54.8142 38.1893 54.5292 38.255 53.9434L38.4444 51.9087L38.6996 50.7371L40.1687 47.4488C40.1957 46.9227 40.4179 46.4263 40.7912 46.0585C40.7974 45.8695 40.8409 45.6837 40.9193 45.512C40.9976 45.3403 41.1092 45.1862 41.2474 45.0587L41.3827 44.8713C41.4734 44.6734 41.6053 44.4976 41.7693 44.3558C41.9666 44.1808 42.1315 43.9719 42.2564 43.7387C42.643 43.9574 42.8595 44.1292 42.8827 44.2894C42.9059 44.4495 43.0683 44.6526 43.3815 44.9142C43.7841 45.2695 44.1625 45.6518 44.5142 46.0585C44.9511 46.5545 45.2875 46.9528 45.5504 47.2301C45.9427 47.5855 46.4174 47.8354 46.9306 47.9565L46.8648 48.4759C46.9125 48.5204 46.9692 48.5537 47.0311 48.5735C47.2123 48.7025 47.376 48.8548 47.5182 49.0265C47.8459 49.0538 48.1664 49.1384 48.4654 49.2765C48.4229 49.9052 48.8868 50.4481 49.8688 50.9831C50.1956 51.3687 50.5002 51.773 50.7812 52.1938C51.1963 52.8267 51.72 53.3795 52.3277 53.8262C52.763 54.1096 53.1539 54.4571 53.4875 54.8572C53.8299 55.2709 54.2343 55.628 54.686 55.9156C55.3486 56.4022 55.9474 56.9717 56.4683 57.6105C57.1448 58.3915 57.5005 58.8094 57.5469 58.8563L59.4065 60.5629C60.0418 61.3604 60.9084 61.9367 61.8847 62.211L62.02 62.6327C62.0625 63.2263 62.2636 63.5349 62.6076 63.5349H62.9324L63.0986 63.5974C63.578 64.0387 64.3203 64.273 65.3448 64.273C65.7585 64.273 66.2457 63.984 66.814 63.4021L67.2354 63.0116C67.4596 62.8788 67.5717 62.7694 67.5717 62.6835V61.5588C67.2834 61.038 66.9065 60.5727 66.4583 60.1841C66.0599 59.7173 65.5868 59.3213 65.0588 59.0125ZM39.3491 38.3532C38.9893 38.2241 38.6601 38.0206 38.3826 37.7557C37.8684 37.3652 37.6094 37.1074 37.6094 37.0293C37.6094 36.9512 37.7756 36.7794 38.112 36.5255C38.3111 36.3467 38.5519 36.2218 38.8117 36.1624H39.6236C39.6236 36.1194 39.7551 35.9866 40.0102 35.7718L40.3968 35.8382L40.7332 35.7171C40.2022 37.4745 39.7409 38.3532 39.3491 38.3532Z" fill="#0F0F0F"/>
<path d="M115.446 45.4493C115.543 45.3087 115.539 45.3009 115.496 45.3633L115.469 45.4063C115.469 45.4063 115.45 45.4297 115.446 45.4493Z" fill="#0F0F0F"/>
<path d="M153.875 46.6208L153.774 45.9804C153.774 45.914 153.898 45.7734 154.142 45.5508L154.2 45.2969L154.142 42.6569L153.774 41.5244C153.43 41.005 153.175 40.5871 153.001 40.2669C152.502 40.0911 152.255 39.97 152.255 39.8763C152.412 39.5682 152.598 39.2765 152.812 39.0054C152.841 38.7473 152.797 38.486 152.685 38.2522C152.573 38.0184 152.397 37.8218 152.178 37.6854C151.779 37.459 151.363 37.267 150.933 37.1113C150.698 37.05 150.473 36.9567 150.264 36.8341C149.851 36.6655 149.428 36.5259 148.996 36.4162L148.049 36.0999C147.806 36.1208 147.573 36.2042 147.372 36.342C147.116 36.4908 146.844 36.6088 146.56 36.6935C146.294 36.7716 146.015 36.8575 145.714 36.9551C145.48 37.0344 145.237 37.0829 144.991 37.0996C144.434 37.0996 143.533 37.4081 142.311 38.0135C141.09 38.6188 140.34 39.0835 140.096 39.3686C139.796 39.6932 139.409 39.9226 138.983 40.0286C138.56 40.1539 138.161 40.3506 137.804 40.6105C137.702 40.8145 137.56 40.9946 137.386 41.1393C137.211 41.2839 137.008 41.3899 136.791 41.4502C136.267 41.7645 135.807 42.1752 135.434 42.6608C135.356 42.8082 135.25 42.9383 135.122 43.0436C134.994 43.1489 134.846 43.2273 134.687 43.274C134.283 43.4498 133.947 43.756 133.733 44.1449C133.733 44.1644 133.709 44.1839 133.694 44.2034C133.61 44.127 133.501 44.0864 133.388 44.0902C133.087 44.0902 132.642 44.3753 132.051 44.9611L127.798 48.1947C127.323 48.3683 126.861 48.5785 126.418 48.8235C126.221 48.9543 126.008 49.0581 125.784 49.132L125.072 49.8349L124.55 49.7724C124.244 49.732 123.934 49.8011 123.673 49.9677C123.6 49.9394 123.535 49.8939 123.483 49.8349C123.608 49.7949 123.718 49.7181 123.8 49.6144C123.881 49.5107 123.93 49.3849 123.94 49.253V47.933C123.94 47.812 123.959 47.7456 123.994 47.7456C124.237 47.5269 124.361 47.355 124.361 47.2613L124.16 46.4802C124.16 46.3592 124.315 46.1834 124.616 45.9608L124.752 45.2891C125.208 45.2032 125.619 44.2347 125.985 42.3835L126.542 39.8646C126.542 39.2788 126.197 38.6735 125.517 38.0369C124.997 37.4829 124.291 37.1446 123.538 37.0879C123.342 37.08 123.146 37.1122 122.963 37.1827C122.779 37.2532 122.612 37.3604 122.471 37.498C122.197 37.7638 121.886 37.9863 121.547 38.158L121.114 38.3454C120.858 38.7015 120.536 39.0039 120.166 39.2358C119.847 39.4145 119.58 39.676 119.393 39.9935C119.223 39.9454 119.047 39.9243 118.871 39.931C118.531 40.0029 118.224 40.1887 118.001 40.4582C117.776 40.7061 117.516 40.918 117.228 41.087C117.084 41.1343 116.952 41.213 116.841 41.3174L116.32 41.7079C115.942 41.8896 115.622 42.1736 115.396 42.528C115.354 42.5171 115.311 42.5106 115.268 42.5085C115.102 42.5085 114.692 42.7389 114.046 43.2037C113.401 43.6684 113.064 44.0277 113.01 44.305C112.956 44.5822 112.821 44.6955 112.6 44.6955L112.214 44.6291C112.125 44.6291 111.912 44.7853 111.557 45.0821L111.433 45.2149C110.842 45.4024 110.343 45.8065 110.033 46.3475C109.845 46.3908 109.674 46.4901 109.542 46.6326C109.348 46.8049 109.122 46.9375 108.877 47.0231C108.506 47.1786 108.154 47.3779 107.83 47.6167C107.653 47.7803 107.451 47.9124 107.23 48.0072H106.708C106.182 48.541 105.538 48.9424 104.829 49.1788C104.303 49.2971 103.835 49.5968 103.503 50.0263C102.344 50.3309 101.737 50.7058 101.648 51.1588L101.358 51.2252H101.033C100.874 51.3642 100.699 51.4823 100.511 51.5767C100.335 51.5992 100.161 51.6318 99.9891 51.6743C99.6875 51.7407 99.3009 51.8071 98.8293 51.8618L97.4259 52.0961H96.9465C95.9683 52.0961 95.4773 51.7642 95.4773 51.0925L95.7364 49.9677L95.6668 49.2648C95.6668 49.1788 95.7789 49.0461 95.9799 48.8742C96.181 48.7024 96.2931 48.5306 96.2931 48.4095V48.0814C96.2595 47.9773 96.2362 47.87 96.2235 47.7612C96.2235 47.5855 96.3704 47.3707 96.6488 47.1676C96.9271 46.9645 97.1707 46.738 97.3717 46.574L98.2145 45.1876C98.6586 44.6511 99.0606 44.0805 99.4169 43.4809H99.6063C99.9368 43.3769 100.255 43.2354 100.554 43.0592C100.743 42.7479 101.022 42.5026 101.354 42.3562C101.641 42.2369 101.903 42.0648 102.127 41.8485C102.3 41.6831 102.509 41.5625 102.738 41.497C103.054 41.386 103.353 41.2309 103.627 41.0362C103.704 40.8805 103.789 40.7292 103.882 40.5832H103.948L104.215 40.6379L104.505 40.9034H104.574C105.012 40.6674 105.485 40.5039 105.974 40.4192C106.508 40.6397 107.064 40.802 107.632 40.9034C107.888 41.2002 108.112 41.3525 108.278 41.3525C108.877 41.3111 109.445 41.0676 109.89 40.6613C110.47 40.2005 110.748 39.7904 110.748 39.4389C110.669 39.0409 110.56 38.6493 110.424 38.2673C110.215 37.5605 109.991 37.166 109.759 37.0645C109.529 36.9661 109.305 36.8527 109.09 36.7247C108.955 36.6238 108.799 36.5557 108.634 36.5255C108.344 36.5527 108.076 36.6928 107.888 36.9161C107.41 36.7104 106.919 36.5368 106.418 36.3967C106.105 36.3881 105.798 36.4812 105.541 36.6622C105.42 36.7587 105.291 36.8436 105.154 36.9161C105.103 36.9123 105.056 36.8884 105.023 36.8497C104.781 36.6955 104.495 36.6293 104.211 36.6622C103.997 36.6614 103.787 36.7205 103.604 36.8328C103.421 36.9452 103.273 37.1064 103.175 37.2988H102.684C102.297 37.2988 101.675 37.5878 100.828 38.1384L99.6257 38.8844C99.3388 39.2333 98.9965 39.5315 98.6128 39.767C98.2557 39.9901 97.9457 40.282 97.7004 40.6261C97.3795 40.5597 97.0431 40.7667 96.699 41.2432C96.3549 41.7196 96.1307 41.9891 96.0418 42.0789L96.1114 42.5944C96.1114 42.6413 96.0882 42.6491 96.0418 42.6491C95.4082 42.9352 94.8852 43.4237 94.5533 44.0394C94.1203 44.7541 93.8961 45.211 93.8961 45.4258V45.7539C93.351 45.9413 92.9953 46.4139 92.8175 47.152C92.6915 47.7563 92.5169 48.3493 92.2955 48.925C92.1569 49.2394 92.0694 49.5744 92.0365 49.9169C92.0244 50.0174 92.0492 50.1188 92.1061 50.202L92.3613 50.9831C92.6048 52.2719 93.0726 52.9865 93.7646 53.1193L93.9618 53.3732C94.0633 53.6878 94.2176 53.9824 94.418 54.2441L95.8214 54.947C96.019 55.15 96.286 55.2688 96.5676 55.279C96.6101 55.279 96.9542 55.1657 97.6462 54.947C97.8541 55.0577 98.0509 55.1885 98.2339 55.3376C98.5486 55.5519 98.9269 55.6498 99.3048 55.6148H99.3705C99.7161 55.422 100.101 55.3124 100.496 55.2946C100.905 55.2712 101.106 55.0954 101.106 54.7791C101.106 54.4628 101.207 54.2948 101.427 54.2948H101.493C101.697 54.4623 101.927 54.5943 102.173 54.6854C102.262 54.6854 102.429 54.5643 102.684 54.2948C102.858 54.1123 103.048 53.9463 103.252 53.7988C103.462 53.8229 103.674 53.787 103.865 53.6951C104.056 53.6033 104.217 53.4593 104.331 53.2794L104.911 53.4122C105.149 53.3473 105.362 53.2111 105.521 53.0217C105.726 52.7814 105.961 52.5699 106.221 52.3929C106.446 52.2605 106.64 52.0807 106.79 51.8657C106.833 51.764 106.893 51.6703 106.967 51.5884H107.482L108.139 51.1706C108.335 50.9623 108.563 50.7881 108.815 50.6551C109.14 50.5535 109.675 50.1343 110.42 49.3975C110.54 49.1007 110.652 48.9484 110.741 48.9484C110.83 48.9484 111.042 49.0578 111.263 49.2765H111.348L111.993 48.5969C112.492 48.0856 113.053 47.6407 113.664 47.273L113.795 47.0856L114.274 47.0192C114.34 46.9567 114.386 46.8981 114.41 46.8786C114.433 46.8591 114.429 46.8239 114.41 46.8239L114.444 46.5076H114.417L114.448 46.4607V46.492C114.574 46.4168 114.695 46.3346 114.812 46.2459C114.967 46.1266 115.103 45.9829 115.214 45.8202C115.274 45.74 115.329 45.6552 115.376 45.5664C115.383 45.5538 115.39 45.542 115.399 45.5312C115.429 45.4741 115.462 45.4193 115.5 45.3672C115.539 45.2464 115.603 45.1355 115.688 45.0424C115.774 44.9493 115.878 44.8762 115.995 44.8283L116.718 44.6408C117.106 44.5394 117.444 44.2959 117.665 43.9574C117.707 43.4848 117.843 43.2544 118.052 43.2544H118.187L118.608 43.4419L118.875 43.3755C118.931 43.2613 119.009 43.1596 119.105 43.0764C119.2 42.9932 119.312 42.9302 119.432 42.8912C119.621 42.8483 119.722 42.7936 119.722 42.7038C119.923 42.4851 120.043 42.3757 120.089 42.3757L120.669 42.571C120.913 42.3541 121.191 42.1799 121.492 42.0555C121.545 42.0484 121.598 42.0537 121.648 42.0708C121.698 42.0879 121.744 42.1165 121.781 42.1542C121.819 42.192 121.847 42.238 121.864 42.2886C121.881 42.3392 121.886 42.3931 121.879 42.446C121.81 42.6544 121.71 42.8507 121.581 43.0279C121.405 43.3089 121.291 43.6244 121.245 43.9535C121.221 44.2122 121.112 44.4553 120.936 44.6447L120.611 45.0978L120.479 45.6679C120.344 46.0858 120.255 46.3748 120.213 46.5505C120.055 46.6798 119.941 46.8561 119.888 47.0543L119.722 47.8705C119.687 48.0346 119.644 48.2611 119.598 48.5305C119.57 48.7503 119.503 48.9632 119.401 49.1593C119.28 49.5128 119.234 49.888 119.266 50.2606L119.331 50.4481L119.273 50.8972C119.325 51.1039 119.392 51.3063 119.474 51.5025C119.567 51.7138 119.634 51.9353 119.675 52.1625L119.606 52.6155V52.803C119.624 53.0831 119.705 53.3553 119.843 53.5994C119.98 53.8434 120.17 54.0531 120.398 54.2128C120.768 54.5758 121.244 54.8074 121.755 54.8728L122.401 54.6736L122.888 54.74C123.023 54.74 123.19 54.6307 123.414 54.4081C123.511 54.2967 123.63 54.2065 123.763 54.1427C123.896 54.079 124.04 54.043 124.187 54.0371C124.409 54.0375 124.628 53.9796 124.821 53.8691L125.413 53.5528C125.701 53.3262 126.024 53.147 126.368 53.0217C126.577 52.9512 126.779 52.8596 126.971 52.7483L127.168 52.4164L128.56 51.4283C128.914 51.172 129.245 50.8845 129.549 50.5691C130.001 50.1322 130.493 49.7398 131.019 49.3975C131.415 49.1645 131.772 48.8677 132.074 48.5188C132.214 48.3043 132.383 48.1109 132.577 47.9447C132.838 47.6988 133.024 47.3813 133.11 47.0309C133.199 46.7849 133.292 46.5623 133.388 46.3553L133.365 46.5701C133.365 46.8786 133.555 47.0192 133.945 47.0192C134.122 47.0244 134.295 46.9683 134.436 46.8603C134.576 46.7523 134.676 46.5989 134.718 46.4256C134.802 46.1999 134.899 45.9795 135.008 45.7656L135.395 45.8983C135.573 45.8983 135.697 45.7773 135.782 45.543C135.804 45.4344 135.857 45.3345 135.934 45.255C136.01 45.1755 136.108 45.1196 136.215 45.0938C136.488 44.9757 136.715 44.7698 136.86 44.508C137.079 44.6773 137.168 44.8179 137.127 44.9298L136.354 47.5034V48.5384C136.276 48.7387 136.167 48.9248 136.029 49.089L136.095 49.7959L136.029 50.409V50.5418C136.086 51.1105 136.265 51.6598 136.555 52.1508C136.79 52.7079 137.161 53.1956 137.633 53.5684L138.09 53.959C138.21 54.1543 138.383 54.3113 138.588 54.412C138.846 54.5609 139.073 54.7585 139.257 54.9939C139.428 55.2257 139.677 55.3867 139.957 55.4469C140.197 55.4698 140.422 55.5777 140.591 55.7515C140.738 55.9074 140.936 56.0056 141.148 56.0288C141.343 55.9942 141.531 55.9269 141.704 55.8296L142.226 55.896C142.907 55.896 143.328 55.8179 143.494 55.6539C143.68 55.4876 143.916 55.3911 144.163 55.3805C144.483 55.3428 144.792 55.2447 145.076 55.0915C145.35 54.9417 145.641 54.8238 145.942 54.74C146.369 54.5643 146.766 54.3233 147.121 54.0254L147.446 54.0917C147.577 54.0917 147.801 53.8926 148.111 53.5059C148.42 53.1193 148.691 52.9358 148.915 52.9358C148.963 52.9364 149.011 52.9475 149.055 52.9684C149.099 52.9892 149.138 53.0194 149.17 53.0568L150.716 51.7368C150.871 51.6716 151.004 51.5649 151.103 51.4283C151.201 51.2932 151.326 51.1801 151.47 51.0964C151.559 51.0393 151.634 50.9637 151.692 50.8748C151.749 50.7859 151.787 50.6857 151.803 50.5809C151.84 50.3453 151.953 50.1286 152.124 49.9638C152.325 49.7546 152.484 49.5079 152.591 49.2374C152.738 48.9289 152.839 48.7414 152.87 48.675L153.071 48.4095C153.128 48.2728 153.23 48.1608 153.361 48.0932C153.452 48.0306 153.529 47.9491 153.586 47.8541C153.643 47.7591 153.68 47.6529 153.693 47.5425L153.875 46.6208ZM149.649 43.7036C149.856 43.7936 150.032 43.9424 150.156 44.1316C150.28 44.3209 150.347 44.5426 150.349 44.7697C150.336 45.1937 150.272 45.6146 150.16 46.0233L149.537 47.1949C149.558 47.3664 149.514 47.5395 149.413 47.6792L149.147 48.0697C149.067 48.3589 148.896 48.6138 148.66 48.7961C148.393 49.0145 148.176 49.2891 148.026 49.6006C147.813 49.9824 147.479 50.2809 147.078 50.4481C146.872 50.5356 146.698 50.6846 146.578 50.8752C146.459 51.0658 146.4 51.2888 146.409 51.5142L146.29 51.5806H145.833C145.787 51.5806 145.687 51.7446 145.52 52.0649C145.354 52.3851 145.134 52.5491 144.921 52.5491C144.555 52.6081 144.217 52.7816 143.955 53.0451C143.497 53.4029 142.928 53.5831 142.35 53.5528C142.021 53.5375 141.694 53.4931 141.372 53.42L141.206 53.3536H140.692L140.634 53.2873L140.502 52.5491L140.177 51.5142L140.301 50.3426L140.432 49.9248C140.397 49.7735 140.316 49.6371 140.201 49.5342C140.054 49.3702 139.976 49.2608 139.976 49.214C139.98 49.1026 140.014 48.9945 140.075 48.9015C140.136 48.8084 140.221 48.7341 140.32 48.6868C140.496 48.5956 140.646 48.4613 140.757 48.2962C140.796 47.8427 140.918 47.4004 141.117 46.9918L141.704 45.5391C142.049 45.1993 142.338 44.8908 142.551 44.6369L142.907 44.2191C143.363 43.8559 143.587 43.5044 143.564 43.1529L143.951 42.7624C144.124 42.7641 144.295 42.7276 144.453 42.6554C144.61 42.5832 144.75 42.4771 144.863 42.3445C145.095 42.0672 145.25 41.9266 145.284 41.9266H145.706C145.87 41.7708 146.001 41.5836 146.092 41.376C146.228 41.1221 146.359 40.9854 146.479 40.9854C146.735 41.0732 146.985 41.1802 147.225 41.3057C148.613 40.8097 149.394 40.4153 149.545 40.1145C149.793 40.0004 150.052 39.9127 150.318 39.8529C150.344 39.8503 150.371 39.8537 150.395 39.8629C150.42 39.8721 150.442 39.8868 150.461 39.906C150.479 39.9252 150.493 39.9483 150.501 39.9736C150.509 39.9989 150.511 40.0257 150.508 40.0521C150.508 40.138 150.249 40.3918 149.734 40.8097C149.509 40.9611 149.322 41.1635 149.188 41.4008C149.054 41.6381 148.976 41.9037 148.961 42.1766C148.965 42.942 149.201 43.4497 149.657 43.7036H149.649Z" fill="#0F0F0F"/>
<path d="M233.73 46.7302C233.954 46.6833 234.054 46.3396 234.054 45.7265C234.055 45.4327 234.152 45.1474 234.329 44.9142C234.461 44.7705 234.557 44.5962 234.607 44.4065L234.387 43.438L234.476 42.5358C234.476 42.3054 234.321 42.1844 233.996 42.1844C233.882 42.2247 233.779 42.2916 233.695 42.3796C233.542 42.5065 233.375 42.614 233.196 42.6999C233.1 42.7505 233.02 42.8261 232.964 42.9189C232.907 43.0117 232.877 43.1182 232.875 43.2271C232.782 43.5948 232.569 43.9205 232.272 44.1527H232.071C231.684 44.1527 231.17 44.7697 230.482 46.0233C230.223 46.1292 229.949 46.1925 229.67 46.2108C229.492 46.4526 229.343 46.7147 229.226 46.9918C229.024 47.4097 228.839 47.6167 228.657 47.6167H228.271C228.18 47.724 228.072 47.8139 227.95 47.8823C227.95 48.6321 227.783 49.007 227.459 49.007H227.138C226.995 49.0359 226.868 49.1182 226.782 49.2374C226.638 49.3754 226.461 49.4735 226.268 49.5225C226.067 49.586 225.9 49.7261 225.8 49.913V50.3309C225.8 50.6707 225.692 50.8464 225.479 50.8464C225.299 50.835 225.122 50.7914 224.957 50.7175C224.957 50.6707 224.934 50.6511 224.888 50.6511L223.689 51.2994C223.431 51.4833 223.158 51.6453 222.873 51.7837L222.1 51.6509C221.69 51.6509 221.424 51.2994 221.327 50.5965L221.161 49.7139L221.227 49.0109C221.187 48.7701 221.096 48.541 220.96 48.3392C221.169 47.6694 221.343 46.9889 221.482 46.3006L221.358 45.4297C221.567 45.1261 221.721 44.7877 221.814 44.4299H221.872C222.383 44.6926 222.937 44.8568 223.508 44.9142C223.615 44.924 223.723 44.911 223.825 44.8762C223.927 44.8414 224.021 44.7854 224.1 44.7119C224.179 44.6383 224.242 44.5489 224.286 44.4492C224.329 44.3496 224.351 44.2419 224.35 44.1331C224.391 43.8423 224.498 43.5649 224.662 43.3224C224.827 43.08 225.044 42.879 225.298 42.735L226.457 41.6025C226.529 41.3923 226.639 41.1976 226.782 41.0284C226.871 40.5324 227.08 40.2473 227.428 40.1497C227.492 39.9635 227.594 39.793 227.727 39.649C227.86 39.5051 228.021 39.3909 228.201 39.3139L228.793 38.1228C228.966 37.9514 229.109 37.7505 229.214 37.5292C229.265 37.4029 229.341 37.2882 229.436 37.1916C229.532 37.0951 229.646 37.0187 229.771 36.9668C229.958 36.8992 230.118 36.7717 230.227 36.6036C230.382 36.1268 230.511 35.6418 230.613 35.1509C230.915 35.1938 231.36 34.6978 231.947 33.6434L232.794 32.0813C232.895 31.6802 233.086 31.3076 233.351 30.9917C233.542 30.7791 233.716 30.5519 233.873 30.3121L234.193 29.7927C234.554 29.4825 234.822 29.0768 234.967 28.6211C235.05 28.2633 235.24 27.94 235.512 27.6956C235.639 27.5865 235.743 27.4523 235.818 27.3013C235.892 27.1502 235.936 26.9854 235.945 26.8169L235.844 26.3326H236.231C236.397 26.3326 236.563 26.0553 236.722 25.5047C236.827 25.0306 237.044 24.5896 237.356 24.2198C237.525 24.0212 237.664 23.7989 237.77 23.5598C237.77 22.6538 237.967 22.1695 238.357 22.1031C238.442 21.7183 238.487 21.3257 238.493 20.9315C238.585 20.8263 238.711 20.756 238.848 20.7323C238.98 20.7323 239.192 20.1387 239.494 18.9593L239.625 18.7055C239.905 18.4721 240.081 18.1365 240.116 17.7721C240.111 17.3841 240.02 17.0022 239.851 16.6538C239.682 16.3053 239.438 15.9991 239.138 15.7569C238.551 15.1887 237.771 14.8699 236.958 14.8665C236.648 14.8597 236.34 14.9046 236.045 14.9993L235.809 15.0657C235.608 15.1259 235.415 15.2098 235.233 15.3156L234.847 15.5695C234.576 15.7217 234.354 15.9506 234.21 16.2281C234.066 16.5056 234.005 16.8197 234.035 17.1316L233.579 17.2644C233.268 17.5024 232.927 17.698 232.566 17.8463C232.009 18.6625 231.742 19.1897 231.793 19.4084L231.112 19.9591C230.922 20.2787 230.632 20.5259 230.289 20.662C230.135 20.964 229.96 21.255 229.767 21.5329L229.512 21.9821L228.63 22.9857C228.487 23.3751 228.324 23.757 228.143 24.13C228.031 24.3409 227.977 24.3721 227.977 24.2511L227.907 24.8915C227.775 25.1053 227.668 25.3332 227.586 25.5711L226.975 25.6296C226.661 26.0287 226.417 26.4791 226.252 26.9614C225.928 27.1254 225.549 27.6096 225.116 28.4024C224.807 28.5584 224.554 28.8083 224.393 29.1171L223.712 30.5035L222.553 32.3742C222.61 32.5439 222.655 32.7175 222.688 32.8936C222.684 32.943 222.67 32.9911 222.647 33.0348C222.623 33.0785 222.591 33.1168 222.553 33.1474L222.232 33.2138C222.007 33.6043 221.845 33.8972 221.718 34.1042C221.59 34.3112 221.451 34.5455 221.261 34.8189C221.149 34.9841 221.05 35.1578 220.964 35.3383L219.881 37.9236L219.239 39.8763C219.088 40.3696 218.845 40.8294 218.524 41.2315C218.235 41.5731 218.084 42.0126 218.103 42.4616C218.153 42.6572 218.216 42.849 218.292 43.0357C218.196 43.2368 218.111 43.4427 218.037 43.6528L217.743 44.6486C217.615 44.9424 217.504 45.2436 217.411 45.5508C217.419 45.8727 217.486 46.1904 217.608 46.4881C217.559 46.719 217.537 46.9549 217.542 47.191V47.4253L217.964 48.0072C217.964 48.0502 217.797 48.0853 217.476 48.1283L217.411 48.3275V48.9445L217.341 49.335V49.6553C217.35 50.0275 217.487 50.3849 217.728 50.6668C217.87 50.825 217.999 50.9948 218.114 51.1745C218.15 51.9556 218.448 52.7011 218.961 53.2872C219.518 54.0019 219.982 54.3651 220.349 54.3651C220.583 54.3403 220.814 54.2959 221.041 54.2323C221.328 54.3931 221.641 54.5015 221.965 54.5526C222.176 54.5778 222.38 54.6456 222.564 54.7517C222.755 54.6481 222.971 54.602 223.187 54.619C223.519 54.5832 223.833 54.4471 224.087 54.2284H224.223C224.373 54.26 224.526 54.2835 224.679 54.2987C224.828 54.2763 224.965 54.2016 225.066 54.0878C225.197 53.9543 225.368 53.8691 225.553 53.8457C225.635 53.8331 225.713 53.8006 225.781 53.751C225.848 53.7013 225.902 53.6361 225.939 53.5606C226.089 53.3364 226.314 53.1752 226.573 53.1076C226.846 53.02 227.089 52.8562 227.273 52.6351C227.386 52.4506 227.56 52.3123 227.764 52.2445C228.021 52.1178 228.225 51.9033 228.34 51.6392L228.866 51.7056C228.866 51.6626 228.897 51.6392 228.966 51.6392C229.399 50.8581 229.74 50.4285 230.057 50.284C230.374 50.1395 230.621 49.7217 230.88 49.0539L231.201 48.8664L231.758 48.7336C231.912 48.3664 232.172 48.0547 232.504 47.8393C232.789 47.6773 233.029 47.4465 233.204 47.1676C233.255 47.0604 233.328 46.9657 233.419 46.8902C233.51 46.8146 233.616 46.76 233.73 46.7302ZM223.875 38.1775C224.119 37.3942 224.462 36.6459 224.895 35.9514C225.222 35.4603 225.498 34.9369 225.719 34.3893C225.781 34.136 225.895 33.899 226.055 33.6942C226.152 33.6182 226.215 33.5077 226.233 33.3856L226.144 32.9365C226.144 32.7725 226.276 32.5929 226.566 32.4171L227.022 32.4835C227.238 32.2326 227.387 31.9302 227.455 31.6048C227.565 31.2057 227.75 30.8317 228 30.5035C228.161 30.3293 228.292 30.1285 228.387 29.9099C228.442 29.7425 228.543 29.5939 228.677 29.4803C228.736 29.4342 228.785 29.3752 228.819 29.3076C228.853 29.2401 228.872 29.1656 228.874 29.0898C228.842 28.8932 228.798 28.6988 228.742 28.5079L229.233 28.5704L229.554 28.1798C229.666 28.0705 230.265 27.2777 231.344 25.7898C231.594 25.2777 231.951 24.8271 232.392 24.4698C232.682 24.3094 232.904 24.0466 233.014 23.7316L233.235 23.3411C233.639 23.0669 233.927 22.6485 234.039 22.1695C234.139 21.7048 234.514 21.3884 235.16 21.2557C235.338 20.541 235.516 20.1544 235.694 20.0841C235.912 20.0063 236.119 19.8985 236.308 19.7638C236.474 19.7638 236.563 20.0059 236.563 20.5019L236.308 21.572C236.321 21.8593 236.221 22.14 236.03 22.3531C235.955 22.4082 235.892 22.4776 235.845 22.5573C235.797 22.6371 235.765 22.7256 235.752 22.8178L235.23 23.9894C234.813 24.6465 234.433 25.3272 234.093 26.028L234.027 26.3482C233.966 26.5235 233.943 26.7098 233.958 26.895L233.436 26.9614C233.388 27.2822 233.217 27.5713 232.96 27.7659C232.726 27.9206 232.54 28.1384 232.423 28.3946C232.254 28.713 232.04 29.005 231.789 29.2616C231.618 29.4176 231.468 29.5963 231.344 29.7927V30.3082L231.224 30.5074C230.971 30.7413 230.788 31.0434 230.699 31.3783L230.432 31.433C230.289 31.433 230.045 31.7532 229.755 32.3663C229.429 32.4847 229.131 32.6691 228.878 32.9082C228.626 33.1473 228.424 33.436 228.286 33.7566L228.031 34.3385C227.439 34.9126 227.142 35.2719 227.142 35.3969C227.148 35.6053 227.116 35.813 227.049 36.01C226.986 36.1525 226.953 36.3069 226.952 36.463H226.685C226.496 36.463 226.16 36.7052 225.684 37.1894C225.299 37.524 225.004 37.9511 224.826 38.4313L224.145 38.8219C223.879 39.396 223.612 39.6928 223.334 39.6928C223.298 39.6954 223.262 39.6908 223.228 39.6794C223.195 39.6681 223.163 39.65 223.136 39.6264C223.488 39.2062 223.741 38.7108 223.875 38.1775Z" fill="#0F0F0F"/>
<path d="M216.564 42.0516C216.44 42.0516 216.243 42.1922 215.961 42.4695L211.789 46.0233C210.189 46.9059 209.288 47.5347 209.083 47.9291C208.799 48.2155 208.468 48.4506 208.105 48.6243C207.789 48.8305 207.449 48.9958 207.092 49.1163C206.968 49.1163 206.903 49.007 206.903 48.8V48.6321C207.015 48.5225 207.102 48.3891 207.158 48.2415L207.038 46.4021L207.092 46.203C207.26 45.8672 207.389 45.5135 207.479 45.1485C207.392 45.0025 207.315 44.8512 207.247 44.6955C207.247 44.5432 207.366 44.3675 207.602 44.1448C207.701 43.8942 207.767 43.6316 207.799 43.3638C207.753 43.1951 207.687 43.0326 207.602 42.8795C207.681 42.6876 207.794 42.5116 207.935 42.3601C208.094 42.1621 208.195 41.9224 208.225 41.6689C208.244 41.4298 208.3 41.1952 208.391 40.9737C208.486 40.6939 208.528 40.3984 208.515 40.1028C208.621 39.8277 208.772 39.5718 208.959 39.3452C209.164 39.0289 209.398 38.7333 209.659 38.4626C209.748 38.3675 209.816 38.255 209.86 38.132C209.904 38.0091 209.923 37.8783 209.914 37.7479L209.791 36.8809C209.791 36.8341 209.849 36.549 209.949 36.0217C210.05 35.4945 210.15 35.2407 210.216 35.2407C210.827 35.0649 211.128 34.7759 211.128 34.3698V33.8543C211.252 33.531 211.337 33.1941 211.383 32.8506C211.685 32.597 211.884 32.2395 211.94 31.8469C211.92 31.603 211.855 31.3648 211.751 31.144C212.098 30.4614 212.395 29.7539 212.64 29.0273C212.731 28.1461 212.936 27.2808 213.251 26.4537C213.4 26.2111 213.513 25.948 213.587 25.6726C213.589 25.3079 213.486 24.9505 213.29 24.6439C213.095 24.3374 212.815 24.095 212.485 23.9464C212.016 23.6431 211.489 23.441 210.939 23.3528C210.706 23.3397 210.475 23.3874 210.266 23.4914C210.057 23.5954 209.879 23.7522 209.748 23.9464C209.455 24.3663 209.136 24.7667 208.793 25.1454C208.438 25.5392 208.227 26.0433 208.194 26.5747C208.022 26.6717 207.874 26.8062 207.76 26.9684C207.647 27.1305 207.57 27.3162 207.537 27.512C207.123 27.7229 206.914 27.9299 206.914 28.1291V28.6992L206.845 28.832C206.28 29.0546 206.002 29.2225 206.002 29.3514L206.133 30.0895C206.114 30.1055 206.099 30.1252 206.088 30.1473C206.076 30.1694 206.069 30.1936 206.067 30.2184L205.379 30.9018L204.993 31.4759C204.775 31.7154 204.599 31.99 204.471 32.2882L204.37 32.5421C204.296 32.7182 204.244 32.9033 204.216 33.0927C204.192 33.249 203.957 33.3895 203.5 33.5223C203.292 33.5819 203.11 33.7141 202.989 33.8956C202.867 34.0772 202.813 34.2963 202.835 34.5143C202.826 34.6479 202.849 34.7818 202.901 34.9048C202.465 35.1008 202.099 35.4282 201.853 35.8421L201.923 36.5138C201.923 36.6896 201.799 36.7989 201.536 36.8419C201.412 36.8678 201.295 36.9236 201.196 37.0045C201.097 37.0853 201.019 37.1889 200.968 37.3066C200.845 37.5702 200.652 37.7944 200.411 37.9549C200.217 38.0729 200.056 38.2397 199.944 38.4391C199.687 38.869 199.408 39.2848 199.108 39.6849L198.486 40.2551C197.956 41.0428 197.361 41.7836 196.708 42.4695C196.399 42.7207 196.152 43.04 195.985 43.4028C195.956 43.5607 195.895 43.7109 195.807 43.8441C195.034 44.8465 194.121 45.9921 193.07 47.2808C192.531 47.9983 191.936 48.6709 191.291 49.2921C191.07 49.4136 190.871 49.5705 190.7 49.7568C190.445 50.0107 189.926 50.4285 189.153 51.0222C188.659 51.3692 188.19 51.7516 187.75 52.1664C187.584 52.3343 187.127 52.4203 186.393 52.4203C185.96 52.4203 185.647 52.1 185.461 51.4752C185.302 50.9691 185.211 50.4437 185.19 49.913C185.188 49.8457 185.209 49.7796 185.248 49.7256L185.449 49.2726C185.44 49.0639 185.382 48.8605 185.279 48.6789C185.216 48.5538 185.164 48.4231 185.125 48.2884L185.248 47.8354V47.3824C185.451 46.795 185.603 46.1915 185.705 45.5781V45.3789C185.674 45.322 185.654 45.2597 185.647 45.1954C185.647 45.1056 185.728 45.0157 185.906 44.9298C185.987 44.8973 186.056 44.839 186.102 44.7637C186.148 44.6884 186.169 44.6001 186.161 44.5119L185.971 44.0589C185.971 44.016 186.06 43.8949 186.25 43.6684C186.464 43.3352 186.562 42.9394 186.528 42.5437V42.4109L186.393 41.8954C186.393 41.7392 186.505 41.6415 186.718 41.6064C187.378 40.7505 187.937 39.82 188.384 38.8336L188.252 37.9315C188.295 37.8416 188.341 37.7987 188.384 37.7987C188.722 37.5669 189.017 37.2759 189.254 36.9395C189.493 36.6739 189.655 36.3469 189.722 35.9944V35.8616C189.993 35.8153 190.238 35.6709 190.412 35.4553C190.585 35.2398 190.675 34.9677 190.665 34.69V34.5572L190.445 34.1667C190.614 33.9372 190.835 33.7523 191.09 33.6278C191.264 33.5324 191.408 33.3903 191.506 33.2173C191.604 33.0442 191.653 32.847 191.647 32.6475C191.778 32.5148 191.979 32.339 192.269 32.0969C192.409 32.0652 192.533 31.983 192.617 31.8658C192.701 31.7485 192.739 31.6043 192.726 31.4603V30.98C192.726 30.894 192.857 30.7261 193.135 30.4723C193.52 30.0728 193.843 29.6173 194.094 29.121C194.366 28.7193 194.555 28.2664 194.651 27.7893V27.6565C195.784 26.7739 196.34 26.1139 196.34 25.7038V25.6374C196.306 25.5581 196.283 25.4738 196.275 25.3875C196.287 25.2953 196.334 25.2114 196.406 25.1532C197.264 24.8564 197.751 24.4932 197.91 24.0753C198.068 23.6574 198.208 23.4153 198.366 23.3489C198.569 23.2575 198.759 23.1393 198.931 22.9974C199.124 22.8495 199.33 22.7188 199.545 22.6069L199.932 21.9274C200.112 21.8469 200.273 21.7271 200.402 21.5765C200.531 21.4259 200.625 21.2483 200.678 21.0565L201.065 20.7362C201.201 20.5882 201.354 20.4571 201.521 20.3457H201.815L202.016 20.2168C202.228 19.674 202.383 19.4123 202.472 19.4123L203.152 19.4787C203.161 19.48 203.17 19.4792 203.179 19.4764C203.188 19.4735 203.195 19.4686 203.202 19.4622C203.208 19.4557 203.213 19.4479 203.216 19.4392C203.219 19.4306 203.219 19.4214 203.218 19.4123C203.594 18.86 204.119 18.4277 204.73 18.1665C205.328 17.9287 205.865 17.5561 206.299 17.0769C206.678 16.6336 207.16 16.2938 207.703 16.0889C208.09 15.9742 208.461 15.8074 208.805 15.5929C209.079 15.4055 209.238 15.3391 209.28 15.382L209.535 15.2492H209.605L210.227 15.4484C210.415 15.427 210.595 15.3586 210.749 15.2492H210.815C211.163 15.2492 211.341 15.4601 211.341 15.8663C211.341 17.3542 210.803 18.4204 209.736 19.0921C209.454 19.2911 209.223 19.5563 209.064 19.8651C208.905 20.1739 208.823 20.5171 208.824 20.8651C208.824 21.9664 209.427 22.5171 210.614 22.5171C211.387 22.5171 211.816 21.8766 211.952 20.6113L212.218 19.7404C212.404 19.403 212.514 19.0282 212.539 18.643C212.573 18.0225 212.693 17.4099 212.895 16.8231C212.941 16.21 212.965 15.6515 212.965 15.218C212.935 14.1912 212.52 13.2142 211.805 12.4843L211.55 12.4179H211.48C211.155 12.2851 210.946 12.2109 210.869 12.164L210.343 12.2304C209.908 12.0957 209.454 12.0298 208.998 12.0352C208.483 12.0352 207.57 12.3098 206.261 12.8592C204.962 13.4098 204.181 13.9058 203.914 14.3549C203.591 14.3821 203.277 14.4762 202.992 14.6315C202.706 14.7867 202.456 14.9996 202.255 15.2571C201.544 15.4797 201.142 15.6866 201.096 15.8858C201.055 15.9994 200.991 16.1032 200.909 16.1906C200.826 16.278 200.727 16.3471 200.616 16.3935C200.373 16.5146 200.063 16.6903 199.704 16.8973L198.826 17.7799C198.608 17.9421 198.411 18.131 198.239 18.3423C198.108 18.5074 197.955 18.6521 197.782 18.7719L197.713 19.1624L197.593 19.2835L196.781 19.6154C196.433 19.9697 196.052 20.2901 195.644 20.5722C195.246 20.8531 194.881 21.1779 194.554 21.5407L194.233 21.9313C193.973 22.0524 193.744 22.2328 193.564 22.4585C193.319 22.7406 193.052 23.0019 192.764 23.2396C192.428 23.5205 192.198 23.9092 192.111 24.3409C191.785 24.4433 191.5 24.6486 191.299 24.9267C191.033 25.3054 190.743 25.6655 190.429 26.0045C189.984 26.5122 189.764 26.8637 189.764 27.0512C189.149 27.7424 188.828 28.2228 188.774 28.4688C188.602 28.895 188.322 29.268 187.962 29.5506C187.762 29.7022 187.593 29.893 187.467 30.1117C187.341 30.3304 187.26 30.5726 187.228 30.8237L186.961 31.2143C186.797 31.5344 186.582 31.8248 186.323 32.0734C186.079 32.306 185.906 32.6041 185.825 32.9326C185.645 33.4211 185.374 33.8695 185.024 34.2526C184.405 35.1354 183.938 36.1179 183.644 37.1582L183.342 38.0291V38.2829L183.288 38.9859L182.902 39.5365C182.377 40.0103 182.006 40.632 181.835 41.3213L181.247 43.766C181.247 43.809 181.29 43.8754 181.378 43.9613C181.382 44.1101 181.422 44.2556 181.496 44.3846C181.57 44.5135 181.674 44.6218 181.8 44.6994C181.902 44.7422 181.99 44.814 182.054 44.9061C182.117 44.9983 182.152 45.1068 182.156 45.2188C182.156 45.3047 182.113 45.3477 182.024 45.3477C181.935 45.3477 181.97 45.3282 181.97 45.2852C181.746 45.0626 181.583 44.965 181.502 44.965C181.421 44.965 181.29 45.1056 181.116 45.4141C180.972 45.6351 180.884 45.8887 180.86 46.1522C180.875 46.2901 180.917 46.4236 180.983 46.545C181.05 46.6663 181.139 46.7731 181.247 46.8591C180.88 47.0778 180.69 47.2847 180.69 47.4722C180.71 47.5913 180.774 47.6986 180.868 47.7729C180.917 47.804 180.958 47.8457 180.989 47.8951C181.02 47.9444 181.039 48.0001 181.046 48.058C181.025 48.2194 180.976 48.3756 180.899 48.5188C180.804 48.7681 180.756 49.0329 180.756 49.2999C180.758 50.8149 181.224 52.2922 182.09 53.5294L183.493 54.783C183.619 54.9743 183.792 55.1287 183.996 55.2309C184.2 55.333 184.426 55.3792 184.653 55.3649C185.331 55.9441 186.182 56.2745 187.069 56.3022C187.288 56.2638 187.502 56.1969 187.703 56.103C188.091 55.9664 188.489 55.8632 188.894 55.7945C189.318 55.7457 189.712 55.5464 190.004 55.2321C190.299 55.2298 190.584 55.1219 190.808 54.9275C190.951 54.7713 191.372 54.3846 192.095 53.7793C192.411 53.3525 192.805 52.9906 193.255 52.7132C193.574 52.2398 193.943 51.8036 194.357 51.4127C194.848 50.9284 195.092 50.5574 195.092 50.2918L195.416 49.9404C195.76 49.7295 195.938 49.5303 195.938 49.3663L195.873 49.1007L195.938 48.4876H196.004L196.294 48.6165C196.472 48.6133 196.643 48.5482 196.779 48.4322C196.915 48.3163 197.007 48.1565 197.04 47.9799C197.12 47.664 197.286 47.3772 197.52 47.152C197.67 47.053 197.801 46.9273 197.906 46.781L197.775 46.1405C197.773 46.1315 197.774 46.1222 197.777 46.1136C197.78 46.1049 197.785 46.0971 197.791 46.0906C197.797 46.0842 197.805 46.0793 197.814 46.0765C197.822 46.0736 197.831 46.0728 197.84 46.0741L198.165 45.8437L198.231 45.5234L198.362 45.3906C198.564 45.3212 198.747 45.2074 198.9 45.0575C199.052 44.9075 199.17 44.7252 199.244 44.5237L199.043 43.8715L199.244 43.6215L199.955 43.6879C199.998 43.6879 200.09 43.6215 200.222 43.4887L200.578 42.7506C201.436 41.9149 201.857 41.3174 201.857 40.9776C201.759 40.7583 201.636 40.5513 201.49 40.3606C201.646 40.1904 201.821 40.0396 202.012 39.9115C202.399 39.7006 203.172 38.775 204.305 37.1348C204.393 37.1348 204.44 37.1582 204.44 37.2012C204.439 37.7327 204.351 38.2604 204.181 38.7633C204.064 39.0507 203.974 39.3489 203.914 39.6537C203.892 40.0468 203.806 40.4334 203.659 40.798C203.484 41.243 203.393 41.7173 203.392 42.1961C203.358 42.9051 203.255 43.6089 203.083 44.2972C202.917 44.9837 202.816 45.6846 202.781 46.3904C202.818 47.2877 203.025 48.1695 203.392 48.9875C203.806 49.9911 204.274 50.573 204.796 50.7488L205.252 51.2565H205.762C206.006 51.647 206.253 51.8735 206.508 51.8735L208.232 51.5533L208.712 51.6197C208.915 51.5844 209.099 51.4795 209.234 51.3229L209.62 51.069L210.007 50.9362C210.854 50.1005 211.523 49.6826 212.021 49.6826C212.145 49.6826 212.269 49.5186 212.377 49.1984C212.427 49.0389 212.51 48.8924 212.622 48.769C212.733 48.6455 212.87 48.5482 213.023 48.4837L213.278 48.3509C213.54 48.1086 213.842 47.9143 214.171 47.7768C214.468 47.667 214.724 47.4681 214.905 47.2066C215.026 46.9954 215.214 46.8316 215.439 46.7419C215.538 46.7108 215.629 46.6568 215.704 46.5843C215.779 46.5118 215.837 46.4227 215.872 46.324C216.135 46.1485 216.354 45.9141 216.512 45.6391C216.67 45.3641 216.763 45.0559 216.784 44.7385V44.2581C216.999 43.7142 217.12 43.1368 217.14 42.5515C217.109 42.2273 216.931 42.0516 216.564 42.0516Z" fill="#0F0F0F"/>
<path d="M311.118 33.9285C311.32 33.861 311.517 33.7761 311.705 33.6747L312.13 33.9285L312.451 33.7957L313.174 33.991C313.329 33.9867 313.481 33.9498 313.621 33.8825C313.761 33.8153 313.885 33.7192 313.986 33.6005C314.177 33.3913 314.399 33.2134 314.643 33.0732L315.069 32.8741C315.349 32.533 315.692 32.2493 316.078 32.0383C316.468 31.7682 316.887 31.5429 317.327 31.3666L318.1 30.3004L318.811 29.781C319.115 29.2413 319.449 28.7197 319.812 28.2189C320.09 27.9018 320.309 27.5367 320.458 27.141C320.458 26.2584 319.913 25.8171 318.811 25.8171L317.535 25.9382C317.484 25.9315 317.435 25.9146 317.391 25.8884C317.346 25.8623 317.307 25.8274 317.276 25.7859C317.228 25.7305 317.169 25.6869 317.102 25.6585C317.035 25.6301 316.962 25.6175 316.89 25.6218C316.689 25.597 316.486 25.6292 316.303 25.7148C316.12 25.8004 315.964 25.9359 315.853 26.1061C315.728 26.3375 315.579 26.5549 315.409 26.7544C315.314 27.1917 315.136 27.6066 314.887 27.9768C314.661 28.3058 314.471 28.6579 314.319 29.0273C314.244 29.2942 314.067 29.5202 313.828 29.6561C313.565 29.8313 313.345 30.0635 313.182 30.3356L312.861 30.6558C312.204 31.1088 311.825 31.5267 311.701 31.9134C310.901 32.3859 310.503 32.7921 310.503 33.1123C310.507 33.6629 310.704 33.9285 311.118 33.9285Z" fill="#0F0F0F"/>
<path d="M359.223 44.5822C359.223 44.3518 359.057 44.2307 358.732 44.2307C358.595 44.2473 358.463 44.293 358.344 44.3651C358.225 44.4371 358.123 44.5338 358.044 44.6486L357.778 44.9689L357.391 45.168L356.579 45.871C355.744 46.367 355.145 46.7185 354.766 46.9372C354.586 47.034 354.428 47.1672 354.302 47.3284C354.175 47.4897 354.083 47.6756 354.031 47.8744C353.874 47.9712 353.743 48.107 353.652 48.269C353.56 48.4309 353.511 48.6137 353.509 48.8C353.474 48.839 353.426 48.8628 353.374 48.8664L353.053 48.7453H352.918C352.774 48.7481 352.634 48.799 352.522 48.8901C352.409 48.9813 352.33 49.1075 352.295 49.2491C352.025 49.5475 351.719 49.81 351.383 50.0302C351.308 50.1905 351.2 50.3331 351.067 50.4488C350.934 50.5645 350.778 50.6508 350.61 50.7019L349.566 50.9909C349.454 50.9909 349.311 50.7566 349.11 50.284L348.476 48.9445V48.6555C348.476 48.4798 348.522 48.3704 348.63 48.3353C349.063 47.9447 349.288 47.2457 349.288 46.2342L349.222 45.6289L349.477 43.8558V43.7231L349.353 42.8561L349.423 42.2703C349.423 41.7313 349.098 41.0284 348.452 40.1458C348.16 39.7234 347.768 39.3815 347.311 39.151C346.855 38.9205 346.349 38.8087 345.839 38.8258C345.54 38.8617 345.248 38.9433 344.973 39.0679C344.548 39.2319 344.227 39.3452 344.014 39.4077C343.878 39.4378 343.747 39.4906 343.628 39.5639L343.171 39.8294L342.684 39.9583C342.364 40.2297 341.987 40.4258 341.582 40.5324C341.288 40.5862 341.017 40.7324 340.809 40.9503C340.472 41.2621 340.078 41.5048 339.649 41.6649L339.394 42.1492L339.062 42.4031C338.761 42.6258 338.421 42.7901 338.06 42.8873C337.802 42.9713 337.565 43.1103 337.365 43.2949C337.165 43.4795 337.007 43.7055 336.901 43.9574C336.858 44.0667 336.703 44.1878 336.437 44.3479C336.18 44.4954 335.935 44.6612 335.702 44.8439C335.564 44.9926 335.38 45.0902 335.18 45.1212C334.968 45.1212 334.855 45.0313 334.855 44.8673C334.908 44.5482 335.041 44.2482 335.242 43.9964C335.356 43.5837 335.423 43.1592 335.443 42.7311L335.373 41.8602C335.373 41.3447 335.064 40.6496 334.43 39.7709C334.122 39.3341 333.709 38.983 333.231 38.7502C332.752 38.5174 332.223 38.4104 331.693 38.4391C331.237 38.4391 330.881 38.7359 330.626 39.3413C330.475 39.6514 330.264 39.928 330.006 40.1547C329.748 40.3813 329.447 40.5536 329.122 40.6613L328.902 40.9815C328.355 41.0163 327.832 41.2148 327.398 41.5517C326.803 41.9777 326.179 42.3601 325.53 42.696C325.185 42.8777 324.873 43.1167 324.606 43.4028C324.55 43.3565 324.481 43.3292 324.409 43.3247C324.042 43.3247 323.682 43.5903 323.338 44.1058C323.08 44.5598 322.692 44.9245 322.225 45.1524C322.063 45.204 321.915 45.2935 321.793 45.4136C321.672 45.5337 321.58 45.681 321.525 45.8437C321.506 45.979 321.435 46.1012 321.327 46.1838C321.219 46.2665 321.083 46.3028 320.949 46.285L320.435 46.738C320.163 46.9662 319.931 47.238 319.747 47.5425L319.422 47.6714C319.164 47.8462 318.942 48.0704 318.768 48.3314C318.375 48.7777 317.846 49.0798 317.265 49.1905C317.172 49.081 317.104 48.9531 317.064 48.8152C317.024 48.6773 317.013 48.5324 317.033 48.3899L317.164 47.4839L317.098 46.6716C317.122 46.4476 317.22 46.2384 317.377 46.078C317.523 45.9354 317.621 45.7493 317.655 45.5469V45.4805L318.111 44.1605C318.151 43.9578 318.218 43.7619 318.312 43.5786C319.569 42.3328 320.191 41.001 320.191 39.6029C320.191 38.4313 319.723 37.8299 318.788 37.8299C317.489 37.8299 316.631 38.2204 316.232 39.0015C315.834 39.7826 315.517 40.1731 315.297 40.1731C315.076 40.1731 315.018 39.9739 314.972 39.5873C314.841 37.7479 314.094 36.8262 312.749 36.8262C312.633 36.8213 312.518 36.844 312.413 36.8926L311.891 37.1426H311.825C311.632 37.0266 311.422 36.9423 311.203 36.8926H311.013C310.456 37.204 309.875 37.4716 309.277 37.6932H309.01C308.596 37.7396 308.199 37.8841 307.851 38.115C307.373 38.3946 306.869 38.6261 306.347 38.8062C305.833 38.993 305.363 39.2856 304.966 39.6654C304.736 39.9239 304.466 40.1429 304.166 40.3137C303.248 40.7814 302.408 41.3915 301.676 42.1219L300.714 43.0865C300.282 43.3428 299.905 43.6825 299.604 44.0863C299.38 44.415 299.114 44.7119 298.812 44.9689C298.679 45.0622 298.569 45.185 298.489 45.3277C298.41 45.4705 298.365 45.6296 298.355 45.7929L298.035 46.2108C297.73 46.5132 297.47 46.8577 297.261 47.234C297.029 47.546 296.838 47.8873 296.693 48.2493L296.763 49.1163C296.349 49.1163 296.14 49.2491 296.14 49.5069L296.206 50.5613V50.7605C296.15 50.9301 296.13 51.1098 296.148 51.2877C296.124 51.7245 296.223 52.1593 296.434 52.5413L296.77 53.8613C296.836 54.3261 297.257 54.7088 298.038 55.0329C298.687 55.3247 299.385 55.489 300.095 55.5172C300.807 55.5172 302.028 54.9431 303.78 53.7988L303.977 53.6114C304.479 53.3497 304.858 53.1388 305.137 52.9631L307.619 50.9597C307.924 50.7449 308.178 50.4632 308.361 50.1356C308.562 49.8037 308.686 49.6162 308.717 49.5733L309.343 49.6396L309.679 49.335C309.828 49.1479 310.031 49.0115 310.259 48.9445C310.545 48.8469 310.704 48.7258 310.746 48.554L310.882 48.3665C311.126 48.2058 311.346 48.0097 311.535 47.7846C311.589 47.4745 311.738 47.1892 311.96 46.9684C312.258 46.9737 312.546 46.86 312.761 46.6521C312.985 46.4295 313.147 46.3318 313.228 46.3318C313.31 46.3318 313.36 46.3865 313.36 46.5193L313.163 48.1049C313.168 48.2144 313.19 48.3226 313.228 48.4251C313.27 48.5376 313.292 48.6565 313.294 48.7766C313.297 48.8108 313.293 48.8452 313.282 48.8776C313.27 48.9099 313.252 48.9394 313.228 48.964C313.204 48.9901 313.186 49.021 313.175 49.0546C313.164 49.0882 313.159 49.1239 313.163 49.1593C313.178 49.2829 313.237 49.3968 313.329 49.4795C313.417 49.5652 313.476 49.6776 313.495 49.7998L313.36 50.4168C313.341 50.7774 313.443 51.1339 313.65 51.4283C313.805 51.5978 313.92 51.8008 313.986 52.0219C314.01 52.1827 314.087 52.3304 314.206 52.4398C314.58 52.4847 314.944 52.5888 315.285 52.7483C315.641 52.9154 316.03 52.9982 316.422 52.9904C316.59 52.9646 316.752 52.9049 316.897 52.8147C317.23 52.6519 317.577 52.5211 317.933 52.4242C318.315 52.341 318.671 52.1639 318.97 51.9086L319.035 51.5884C319.299 51.5117 319.558 51.4165 319.808 51.3033C320.044 50.9817 320.383 50.7526 320.767 50.655C320.923 50.6265 321.068 50.5575 321.189 50.4547C321.309 50.3519 321.401 50.219 321.455 50.0692C321.555 49.8852 321.692 49.7243 321.857 49.5972C322.022 49.47 322.212 49.3794 322.414 49.3311L322.735 48.882C323.042 48.7029 323.306 48.4575 323.508 48.1634C323.664 47.9259 323.884 47.7388 324.142 47.6245L324.374 47.1949V47.0973H324.494C324.756 46.8892 325.043 46.716 325.349 46.5818C325.507 46.5349 325.584 46.449 325.584 46.3279C325.746 46.0148 325.993 45.7547 326.296 45.5781C326.892 45.2505 327.461 44.8743 327.997 44.4534L328.523 44.5549C328.932 43.973 329.265 43.6528 329.501 43.6176C329.943 43.438 330.339 43.1604 330.661 42.8053L330.726 42.9381C330.625 43.2337 330.479 43.5117 330.293 43.7621C330.068 44.0591 329.905 44.3992 329.814 44.7619C329.802 44.9332 329.735 45.0961 329.625 45.2266C329.574 45.2705 329.534 45.3244 329.505 45.3849C329.477 45.4453 329.461 45.5111 329.458 45.5781C329.458 46.0311 329.416 46.2615 329.327 46.2615H328.902C328.699 46.432 328.523 46.6321 328.38 46.8551C328.182 47.1523 327.917 47.3974 327.606 47.5698C327.489 47.6155 327.388 47.6973 327.319 47.8038C327.249 47.9103 327.215 48.0361 327.22 48.1634V48.429L327.15 48.5618C326.215 48.7727 325.748 50.0823 325.751 52.4905C325.787 52.9156 325.941 53.3218 326.195 53.6621C326.485 54.1347 326.752 54.4003 326.969 54.4666C327.181 54.5111 327.387 54.5847 327.579 54.6853C327.696 54.7598 327.829 54.8053 327.966 54.8181C328.167 54.8181 328.411 54.533 328.689 53.9472C328.95 53.8415 329.186 53.6803 329.381 53.4747C329.51 53.3267 329.665 53.2037 329.837 53.1115H330.17L330.305 52.9787C330.352 52.8044 330.431 52.6402 330.537 52.4944C331.105 52.4281 331.449 52.264 331.585 51.9789C331.704 51.2721 331.917 50.9206 332.195 50.9206C332.406 51.0267 332.603 51.1578 332.783 51.3111C332.979 51.0474 333.208 50.8099 333.464 50.6043C333.85 50.3426 334.051 50.163 334.051 50.0888C334.051 49.5928 334.198 49.3077 334.488 49.2608C334.778 49.214 335.261 48.8898 335.899 48.3157C336.537 47.7417 337.279 47.1168 338.091 46.4568C338.537 46.1466 338.945 45.7834 339.305 45.375C339.492 45.2633 339.667 45.1324 339.827 44.9845L340.082 44.797C340.363 44.7379 340.627 44.6166 340.856 44.4416C341.127 44.4319 341.388 44.3363 341.602 44.1683C341.986 43.8927 342.4 43.6609 342.835 43.477L343.059 43.4106C343.225 43.2178 343.454 43.0917 343.705 43.0552C344.092 43.0552 344.293 43.2778 344.293 43.727L344.227 44.508L344.358 45.3203L344.157 46.8825C344.167 47.0178 344.201 47.1502 344.258 47.273C344.315 47.3861 344.349 47.5096 344.358 47.6362C344.358 47.726 344.269 47.8588 344.092 48.0267C344.208 48.2603 344.277 48.5154 344.293 48.7766C344.282 49.0758 344.343 49.3732 344.47 49.6435C344.557 49.7819 344.618 49.9356 344.648 50.0966V50.163C344.529 50.3637 344.431 50.5772 344.358 50.7995C344.388 50.9364 344.437 51.068 344.505 51.1901C344.583 51.3213 344.631 51.4678 344.648 51.6197C344.842 52.1116 345.102 52.5742 345.421 52.9943C345.889 53.6895 346.276 54.0839 346.581 54.1855C346.891 54.281 347.19 54.412 347.471 54.576C347.683 54.713 347.924 54.7997 348.174 54.8298L348.797 54.6971L349.709 54.8298C349.869 54.8179 350.019 54.747 350.13 54.6307L350.587 54.3104C351.333 53.9199 351.777 53.5294 351.92 53.1388L352.187 53.006H352.713C352.809 52.9243 352.885 52.821 352.935 52.7044C352.984 52.5878 353.006 52.4611 352.999 52.3343L354.267 51.2682C354.447 51.0955 354.645 50.9436 354.859 50.8152L355.736 50.366L357.406 48.6243C357.963 48.0424 358.385 47.6011 358.651 47.3043C358.919 47.028 359.068 46.6559 359.065 46.2693L358.93 45.211L359.223 44.5822ZM312.985 43.2935C312.435 43.8726 311.845 44.4104 311.218 44.9025C311.052 45.2453 310.767 45.5148 310.418 45.6601C310.214 45.7662 310.037 45.9195 309.903 46.1074C309.768 46.2954 309.68 46.5128 309.644 46.7419C309.393 46.835 309.169 46.9892 308.991 47.191C308.74 47.4367 308.439 47.6246 308.11 47.7417L307.433 48.2611C306.61 48.7102 306.018 49.0421 305.651 49.2491C305.492 49.4981 305.263 49.6938 304.994 49.8115C304.781 49.9074 304.586 50.0395 304.417 50.202C304.328 50.3035 304.211 50.3768 304.081 50.4129C303.973 50.4365 303.874 50.4907 303.795 50.5691L303.18 50.8854C302.99 50.9353 302.812 51.0259 302.658 51.151C302.362 51.3467 302.041 51.5017 301.703 51.6118C301.358 51.7791 300.991 51.8949 300.613 51.9555C300.2 51.9555 299.987 51.4244 299.987 50.3934C300.031 50.1231 300.168 49.8772 300.374 49.6982C300.609 49.4253 300.761 49.0887 300.81 48.7297C300.812 48.5852 300.856 48.4444 300.936 48.3249C301.017 48.2054 301.13 48.1126 301.263 48.058C301.505 47.9719 301.728 47.8393 301.92 47.6674L302.144 47.1168C302.144 47.0504 302.434 46.8005 302.991 46.3357C303.044 46.0742 303.166 45.8319 303.343 45.634C303.521 45.4362 303.748 45.2901 304 45.211C304.87 44.6057 305.369 44.1448 305.546 43.8246C306.005 43.7306 306.431 43.5149 306.78 43.1997C307.347 42.7737 307.994 42.4694 308.682 42.3054C309.175 42.2134 309.654 42.0585 310.108 41.8446C310.381 41.6956 310.688 41.6227 310.998 41.6337L311.651 41.7665L312.076 41.7001L312.521 41.9227L313.143 41.8563L313.723 41.9227L313.99 41.7665H314.056C314.133 41.7665 314.179 41.8016 314.179 41.8563C314.133 42.0516 313.754 42.5241 312.985 43.2935Z" fill="#0F0F0F"/>
<path d="M295.506 45.2774C295.506 44.9806 295.34 44.8244 294.984 44.8244C294.628 44.8244 293.983 45.1329 293.206 45.75C292.429 46.367 291.969 46.8278 291.837 47.1481C291.764 47.3337 291.671 47.5105 291.559 47.6753L290.786 47.6089C290.614 47.6762 290.462 47.7883 290.347 47.9336C290.231 48.079 290.156 48.2526 290.128 48.4368C290.105 48.7766 290.016 48.9406 289.838 48.9406H289.707C289.583 48.8829 289.454 48.8396 289.32 48.8117C289.344 48.8117 289.351 48.8117 289.351 48.8313C289.293 48.8833 289.226 48.9243 289.154 48.9523C288.979 49.0505 288.792 49.1253 288.597 49.1749C288.4 49.2138 288.212 49.2878 288.041 49.3936C287.835 49.1918 287.689 48.9363 287.619 48.6555L287.785 46.8708L287.716 46.2889C287.716 46.2108 287.851 46.0233 288.102 45.75C288.056 45.5656 287.96 45.398 287.824 45.2657C287.684 45.1106 287.588 44.9205 287.546 44.715L287.712 44.0316V43.3833L287.492 42.3797L287.646 41.6415C287.646 41.333 287.38 40.919 286.873 40.3684C286.611 40.0957 286.295 39.8812 285.947 39.7387C285.598 39.5961 285.223 39.5286 284.847 39.5405C284.609 39.5911 284.387 39.7012 284.202 39.8607C284.045 39.9955 283.869 40.1061 283.68 40.1888H283.614L283.324 40.0599L282.613 40.6105C282.419 40.7029 282.248 40.8361 282.11 41.0011C281.909 41.212 281.766 41.3213 281.677 41.3213C281.031 41.5205 280.096 42.2664 278.897 43.5786C278.857 43.6819 278.796 43.7754 278.717 43.8528C278.638 43.9302 278.544 43.9899 278.441 44.0277C278.225 44.1194 278.039 44.2727 277.908 44.469C277.761 44.6682 277.649 44.7775 277.571 44.7775C277.494 44.7775 277.351 44.8673 277.185 45.0314L276.728 45.4805C276.372 45.6112 276.049 45.8222 275.785 46.0975C275.507 46.0975 275.364 45.8906 275.364 45.4805L275.75 43.9184L275.615 43.1178L275.75 42.3367V42.0867C275.624 41.61 275.534 41.1244 275.48 40.634L275.615 39.5405C275.615 39.0914 275.282 38.5719 274.602 37.9783C273.922 37.3847 273.388 37.1074 273.001 37.1074C272.845 37.1076 272.691 37.1448 272.551 37.216C272.412 37.2872 272.29 37.3905 272.197 37.5175C271.965 37.7792 271.834 37.908 271.787 37.908L271.266 37.7206C271.065 37.7206 270.643 37.9315 269.986 38.3728L268.795 39.1812C268.552 39.5125 268.251 39.7959 267.906 40.0169L266.994 40.4387C266.612 40.5747 266.265 40.7964 265.981 41.087C265.733 41.3632 265.453 41.6073 265.146 41.8134C264.751 42.0961 264.373 42.4012 264.013 42.7272L263.889 42.4734L263.959 41.8915C263.959 39.5912 263.479 38.5446 262.544 38.7672L260.352 39.3179H259.895C258.763 39.7904 258.105 40.1536 257.939 40.4075L257.804 40.6379C257.617 40.7304 257.445 40.8502 257.293 40.9933C257.093 41.1741 256.867 41.3253 256.625 41.4424C256.404 41.5634 256.195 41.6845 255.998 41.8095C255.875 41.8127 255.758 41.8629 255.67 41.9501C255.528 42.0671 255.365 42.1559 255.19 42.2117C255.047 42.2586 254.943 42.4109 254.877 42.653C254.927 42.6062 254.989 42.5593 255.043 42.5124L254.873 42.6726C254.619 42.8952 254.388 43.1438 254.185 43.4146H254.208L254.162 43.4692L254.185 43.4302L253.35 43.9652C253.201 43.9906 253.067 44.0693 252.971 44.187C252.875 44.3047 252.824 44.4533 252.828 44.6057V44.8361C252.867 44.9385 252.89 45.0467 252.894 45.1563C252.894 45.2423 252.851 45.2852 252.762 45.2852C252.673 45.2852 252.627 45.1876 252.627 44.9884C252.627 44.7892 252.561 44.7033 252.426 44.7033C252.31 44.7195 252.204 44.7779 252.128 44.8673C252.005 44.9689 251.792 45.1329 251.483 45.3438C251.197 45.5405 250.937 45.7728 250.709 46.035C250.517 46.2767 250.24 46.4347 249.936 46.4763C249.807 46.4825 249.681 46.5214 249.57 46.5897C249.459 46.6579 249.367 46.7533 249.302 46.8669C249.074 47.131 248.754 47.2961 248.409 47.3277C248.163 47.3918 247.936 47.5142 247.747 47.6846C247.557 47.8551 247.41 48.0688 247.319 48.308L247.187 48.3743H246.731C246.564 48.3827 246.404 48.4458 246.275 48.554L246.02 48.7844C245.924 48.8392 245.84 48.9132 245.774 49.0018C245.707 49.0905 245.66 49.1919 245.633 49.2999L245.312 49.4874C244.959 49.5306 244.622 49.6651 244.334 49.8779C243.972 50.0783 243.674 50.3791 243.476 50.7449L243.155 50.616C242.965 50.6878 242.766 50.7312 242.564 50.7449C242.156 50.7468 241.756 50.8573 241.404 51.0651C241.056 51.2845 240.654 51.3996 240.244 51.3971L238.674 51.6158C237.514 51.6158 236.95 51.3073 236.95 50.6824C236.983 50.459 237.027 50.2374 237.081 50.0185C237.17 49.628 237.228 49.2921 237.271 49.0422C237.574 48.8358 237.93 48.7207 238.295 48.7102L238.941 48.0385L239.273 48.1049L239.699 47.7143C240.043 47.6831 240.221 47.5308 240.221 47.2652C240.225 47.0204 240.316 46.7852 240.476 46.6013C240.624 46.6588 240.776 46.7032 240.932 46.7341C241.21 46.7341 241.756 46.3436 242.567 45.5313C242.712 45.5482 242.858 45.5164 242.982 45.4408C243.107 45.3652 243.203 45.2501 243.256 45.1134C243.401 44.7812 243.651 44.5068 243.967 44.3323L244.558 44.3987C244.968 43.563 245.359 43.1334 245.718 43.1334C245.756 43.1309 245.794 43.1374 245.829 43.1523C245.864 43.1672 245.895 43.1902 245.919 43.2193C245.943 43.2459 245.972 43.2667 246.005 43.2802C246.038 43.2937 246.073 43.2996 246.109 43.2974C246.311 43.2624 246.493 43.1524 246.619 42.9889C246.799 42.8124 247.002 42.6613 247.222 42.5398C247.537 42.3491 247.825 42.1151 248.077 41.8446C248.49 41.7548 249.047 41.3721 249.747 40.673C250.447 39.974 250.795 39.3101 250.795 38.6383C250.715 38.1609 250.483 37.7228 250.134 37.3907C249.785 37.0587 249.338 36.8509 248.861 36.7989C248.522 36.8073 248.185 36.7435 247.872 36.6115C247.702 36.5149 247.518 36.4476 247.327 36.4123L245.958 36.4787C245.519 36.4851 245.083 36.5602 244.667 36.7013C244.317 36.8347 243.95 36.9124 243.576 36.9317L243.051 36.7989C243.025 36.8004 243.001 36.807 242.978 36.8184C242.956 36.8298 242.936 36.8458 242.919 36.8653C242.709 37.105 242.456 37.3024 242.173 37.4472C240.716 37.9666 239.826 38.3845 239.494 38.7047L239.107 39.2554C238.438 39.6186 238.071 40.0364 238.029 40.5402C238.028 40.6501 238.006 40.7588 237.962 40.8596C237.919 40.9604 237.856 41.0512 237.777 41.1265C237.697 41.2018 237.604 41.26 237.502 41.2975C237.399 41.335 237.291 41.3511 237.182 41.3447L236.501 41.9149C236.188 42.5202 235.999 42.8952 235.91 43.0475L235.137 44.4026C235.082 44.6411 234.972 44.8632 234.816 45.0509L234.36 46.7263C234.313 46.902 234.081 47.1559 233.66 47.4839C233.238 47.812 233.026 48.4642 233.026 49.4366C233.008 49.5753 233.041 49.7156 233.119 49.8314C233.197 49.9472 233.313 50.0304 233.447 50.0654C233.692 50.122 233.911 50.2594 234.07 50.4559C234.572 51.9829 234.843 52.7444 234.947 52.7444L235.334 52.678C235.592 53.6466 236.038 54.1308 236.672 54.1308C236.815 54.1972 237.027 54.3066 237.282 54.4511C237.499 54.5901 237.749 54.6695 238.005 54.6815C238.424 54.6768 238.84 54.6096 239.239 54.4823L239.83 54.2987C239.861 54.2987 239.95 54.3847 240.085 54.5487C240.221 54.7127 240.341 54.8142 240.472 54.8142L241.384 54.6815C241.533 54.6521 241.676 54.5966 241.806 54.5174L244.543 53.5606C244.824 53.3495 245.131 53.175 245.455 53.0412C245.56 53.0178 245.659 52.9725 245.745 52.9084C246.066 52.6781 246.443 52.5428 246.836 52.5179C247.048 52.5148 247.253 52.4423 247.421 52.3113C247.589 52.1804 247.711 51.998 247.767 51.7915C247.868 51.3697 248.069 51.1628 248.347 51.1628H248.981L249.178 51.0964C249.537 50.7291 249.969 50.444 250.447 50.2606C250.615 50.0701 250.731 49.8386 250.783 49.5889C250.837 49.3233 250.972 49.1984 251.193 49.1984C251.282 49.1984 251.328 49.2218 251.328 49.2648L251.583 49.5186C251.672 49.5186 251.796 49.4288 251.939 49.2648C252.082 49.1007 252.283 48.8742 252.496 48.6829L253.597 47.4253C253.73 47.2366 253.922 47.0989 254.143 47.0348C254.267 46.9835 254.384 46.9151 254.491 46.8317L254.634 46.7497C254.726 46.7278 254.813 46.6866 254.889 46.6287C255.008 46.5126 255.159 46.435 255.322 46.4061C255.406 46.3901 255.485 46.3537 255.553 46.3C255.62 46.2462 255.673 46.1768 255.708 46.0975C255.784 45.9375 255.889 45.7932 256.018 45.6718C256.13 45.5586 256.354 45.2813 256.686 44.8908C256.94 44.542 257.271 44.2584 257.653 44.0629C257.708 43.9497 257.788 43.8505 257.886 43.7728C257.985 43.695 258.099 43.6406 258.221 43.6137C258.514 43.5275 258.787 43.3812 259.022 43.1841C259.299 42.9632 259.647 42.8533 260 42.8756C260.17 42.8756 260.259 43.0514 260.259 43.3911C260.261 43.5659 260.205 43.7364 260.1 43.8754C259.978 44.0447 259.919 44.2522 259.934 44.4612L259.513 45.1329C259.048 45.6178 258.624 46.1402 258.245 46.6951C257.8 47.3228 257.309 47.9155 256.775 48.4681C256.545 48.9468 256.277 49.4064 255.975 49.8428C255.739 50.1296 255.594 50.4824 255.561 50.8542C255.561 53.5411 256.219 54.8845 257.522 54.8845C258.187 54.8845 258.523 54.7088 258.523 54.3651L258.422 53.8145C258.422 53.7051 258.542 53.5841 258.809 53.4435C258.986 53.3693 259.137 53.2427 259.242 53.0803C259.47 52.6929 259.729 52.3246 260.015 51.979C260.269 51.6691 260.507 51.3458 260.727 51.0104C260.972 50.7914 261.261 50.6265 261.573 50.5262C261.812 50.2363 262.021 49.9222 262.196 49.5889C262.253 49.4554 262.339 49.3372 262.45 49.2436C262.56 49.1501 262.69 49.0837 262.83 49.05C263.108 48.9836 263.243 48.8508 263.243 48.6594C263.243 47.5698 263.51 47.0192 264.017 47.0192L264.639 47.152L264.763 47.0192C265.331 46.0975 265.675 45.6328 265.787 45.6328H265.907C266.042 45.6797 266.108 45.7226 266.108 45.7656C266.197 45.7656 266.244 45.7421 266.244 45.6992C266.421 44.8205 266.731 44.2698 267.187 44.0472C267.62 43.6567 267.979 43.3325 268.235 43.0592C268.701 42.6166 269.211 42.224 269.758 41.8876C270.168 41.5702 270.626 41.321 271.115 41.1495C271.161 41.1495 271.25 41.2276 271.37 41.3916C271.454 41.4871 271.514 41.6006 271.548 41.7236L271.405 42.696L271.47 43.8285L271.335 44.3479L271.536 45.2852C271.426 45.4449 271.336 45.6181 271.269 45.8007V45.953C271.306 46.0137 271.328 46.0817 271.335 46.1522V47.1207C271.237 47.3619 271.152 47.6083 271.08 47.8588V47.9916C271.184 48.1532 271.27 48.3261 271.335 48.5071L271.204 49.6983C271.204 50.2372 271.47 50.987 271.977 51.9555C272.483 52.9241 272.936 53.4083 273.303 53.4083C273.67 53.4083 274.324 52.8577 275.259 51.7681L275.449 51.4049C275.621 51.1832 275.774 50.9466 275.905 50.698L276.292 50.5028C276.436 50.2304 276.646 49.9993 276.902 49.831L277.289 49.05C277.435 48.9951 277.59 48.9725 277.745 48.9836C278.047 48.4603 278.457 48.0088 278.948 47.6597C279.28 47.4956 279.435 47.3082 279.435 47.109L279.369 46.8591V46.7263C279.379 46.6052 279.42 46.4888 279.488 46.3883C279.556 46.2878 279.648 46.2065 279.756 46.1522C279.841 46.1854 279.931 46.2039 280.022 46.2069C280.111 46.2069 280.219 46.1092 280.355 45.9101C280.571 45.6427 280.845 45.429 281.155 45.2852C281.294 44.9044 281.552 44.5795 281.89 44.3597C282.107 44.2671 282.301 44.1271 282.458 43.9496C282.601 43.7856 282.725 43.6997 282.814 43.6997C283.115 43.6997 283.27 43.8285 283.27 44.0902L283.069 45.7421L283.135 46.0936L283.003 46.6794L283.069 47.812C283.065 47.9536 283.043 48.0941 283.003 48.2298C282.96 48.3648 282.937 48.5058 282.937 48.6477C282.937 48.925 283.193 49.3858 283.711 50.0341C283.711 50.1005 283.656 50.1903 283.533 50.2997C283.409 50.409 283.355 50.4754 283.355 50.5184C283.355 51.358 283.533 51.9282 283.888 52.2367C284.187 52.4826 284.466 52.7516 284.724 53.0412C285.039 53.3648 285.43 53.6037 285.86 53.7364C286.232 53.9138 286.631 54.0285 287.039 54.0761C287.538 54.0761 288.149 53.6856 288.872 52.9045C289.274 52.4411 289.706 52.0041 290.163 51.5962L290.844 51.1784C290.974 51.0699 291.132 51.0009 291.3 50.9792C291.52 50.9363 291.71 50.7488 291.876 50.4168C292.042 50.0849 292.146 49.913 292.189 49.913L292.835 49.9755L292.966 49.8467C293.345 49.1251 293.901 48.5144 294.582 48.0736C295.282 47.6011 295.638 47.1481 295.638 46.7419C295.618 46.4624 295.526 46.193 295.371 45.9608C295.435 45.7373 295.48 45.5087 295.506 45.2774ZM239.703 43.1529C240.128 42.282 240.538 41.7548 240.951 41.5439C241.388 41.318 241.801 41.0485 242.185 40.7394C242.43 40.5369 242.689 40.3504 242.958 40.1809L243.345 39.9818L243.901 39.849C244.115 39.6797 244.356 39.5477 244.613 39.4585H245.386C245.615 39.2926 245.88 39.1841 246.159 39.1421C246.573 39.1421 246.785 39.2749 246.785 39.5327C246.785 39.6654 246.584 39.7982 246.205 39.9232C245.725 40.1441 245.329 40.5188 245.08 40.9894L244.729 41.1338C244.494 41.3913 244.225 41.6136 243.928 41.7938C243.703 41.9175 243.5 42.077 243.325 42.2664L243.07 42.5202C242.532 42.8541 242.016 43.2219 241.524 43.6215C241.169 43.915 240.779 44.163 240.364 44.3597L239.262 44.8439C239.235 44.8477 239.208 44.8452 239.182 44.8366C239.156 44.828 239.132 44.8135 239.113 44.7942C239.094 44.775 239.079 44.7515 239.07 44.7256C239.061 44.6997 239.058 44.672 239.061 44.6447C239.221 44.1257 239.436 43.6255 239.703 43.1529Z" fill="#0F0F0F"/>
<path d="M371.808 32.8857C371.807 33.9334 371.499 34.9573 370.922 35.8281C370.346 36.6989 369.526 37.3776 368.568 37.7783C367.61 38.1791 366.556 38.2839 365.538 38.0796C364.521 37.8753 363.587 37.3711 362.853 36.6305C362.119 35.89 361.62 34.9465 361.417 33.9191C361.214 32.8917 361.317 31.8266 361.713 30.8583C362.109 29.89 362.78 29.062 363.641 28.4789C364.503 27.8959 365.517 27.5838 366.554 27.5823C367.244 27.5807 367.927 27.7168 368.565 27.9828C369.203 28.2487 369.783 28.6392 370.271 29.132C370.759 29.6247 371.146 30.2099 371.41 30.8541C371.673 31.4982 371.809 32.1887 371.808 32.8857ZM362.011 32.8857C362.011 33.7931 362.277 34.6802 362.776 35.4347C363.275 36.1893 363.984 36.7774 364.814 37.1248C365.644 37.4723 366.557 37.5634 367.438 37.3866C368.32 37.2099 369.129 36.7732 369.764 36.1319C370.4 35.4905 370.833 34.6732 371.009 33.7834C371.184 32.8935 371.095 31.971 370.752 31.1324C370.408 30.2938 369.827 29.5769 369.08 29.0722C368.334 28.5675 367.456 28.2977 366.558 28.297C365.961 28.2959 365.37 28.4138 364.818 28.6437C364.267 28.8737 363.765 29.2112 363.343 29.6371C362.921 30.0629 362.586 30.5687 362.357 31.1255C362.129 31.6822 362.011 32.2791 362.011 32.8818V32.8857Z" fill="#0F0F0F"/>
<path d="M367.284 33.0381C367.507 33.1416 367.702 33.298 367.852 33.4938C368.002 33.6896 368.103 33.9191 368.146 34.1628C368.259 34.5885 368.359 35.0142 368.464 35.436C368.503 35.6126 368.559 35.7852 368.63 35.9515C368.672 36.053 368.63 36.0803 368.545 36.0764C368.344 36.0764 368.158 36.0764 367.942 36.0764C367.899 36.0815 367.857 36.0708 367.822 36.0463C367.787 36.0218 367.762 35.9853 367.752 35.9437C367.624 35.5486 367.517 35.1471 367.431 34.7408C367.383 34.4975 367.316 34.2586 367.23 34.0261C367.152 33.8201 367.013 33.6436 366.832 33.5212C366.65 33.3987 366.435 33.3363 366.217 33.3427C365.997 33.3427 365.78 33.3427 365.56 33.3427C365.444 33.3427 365.405 33.3778 365.405 33.495C365.405 34.2761 365.405 35.0845 365.405 35.8773C365.405 36.0764 365.405 36.0764 365.201 36.0764H364.76C364.563 36.0764 364.563 36.0764 364.563 35.8734V30.0154C364.563 29.8045 364.563 29.8006 364.771 29.7693C365.468 29.6522 366.177 29.6364 366.878 29.7225C367.261 29.7677 367.623 29.9222 367.922 30.1677C368.121 30.3569 368.271 30.5922 368.359 30.8533C368.447 31.1143 368.471 31.3932 368.428 31.6656C368.386 31.9381 368.278 32.1959 368.114 32.4167C367.951 32.6375 367.736 32.8146 367.489 32.9326L367.284 33.0381ZM365.409 31.5462C365.409 31.8665 365.409 32.1867 365.409 32.507C365.409 32.6397 365.44 32.6944 365.579 32.6866C365.831 32.6866 366.082 32.6866 366.329 32.6866C366.523 32.6826 366.714 32.6443 366.894 32.5733C367.117 32.4963 367.308 32.3469 367.438 32.1484C367.569 31.9499 367.63 31.7134 367.613 31.4759C367.623 31.2268 367.543 30.9824 367.388 30.7884C367.233 30.5944 367.013 30.464 366.77 30.4215C366.367 30.3305 365.951 30.3212 365.545 30.3942C365.444 30.3942 365.409 30.4488 365.413 30.5504C365.417 30.8784 365.413 31.2143 365.413 31.5462H365.409Z" fill="#0F0F0F"/>
</g>
<defs>
<clipPath id="clip0_409_423">
<rect width="339" height="67" fill="white" transform="translate(32.8077 12)"/>
</clipPath>
</defs>
</svg>
