<svg width="405" height="83" viewBox="0 0 405 83" fill="none" xmlns="http://www.w3.org/2000/svg">
<g clip-path="url(#clip0_409_423)">
<path d="M130.407 66.1579C130.946 66.1629 131.462 66.3843 131.841 66.7734L131.97 66.9076L132.422 66.4639L132.289 66.3298C132.045 66.0738 131.753 65.87 131.429 65.7306C131.106 65.5912 130.758 65.5189 130.407 65.5182C129.733 65.5822 129.106 65.8985 128.65 66.4051C128.195 66.9117 127.942 67.5722 127.942 68.2574C127.942 68.9425 128.195 69.6031 128.65 70.1097C129.106 70.6163 129.733 70.9326 130.407 70.9966C131.115 70.9883 131.791 70.698 132.289 70.1884L132.422 70.0543L131.97 69.5969L131.837 69.7344C131.653 69.9306 131.431 70.0871 131.185 70.1947C130.939 70.3022 130.674 70.3585 130.407 70.3603C129.856 70.3603 129.328 70.139 128.938 69.7449C128.549 69.3508 128.33 68.8164 128.33 68.2591C128.33 67.7018 128.549 67.1674 128.938 66.7733C129.328 66.3792 129.856 66.1579 130.407 66.1579Z" fill="#0F0F0F"/>
<path d="M145.737 65.5113C145.198 65.5024 144.668 65.6562 144.215 65.9531C143.762 66.2499 143.407 66.6764 143.194 67.1783C142.982 67.6802 142.922 68.2347 143.021 68.7713C143.121 69.3079 143.377 69.8023 143.755 70.1916C144.134 70.5808 144.618 70.8473 145.146 70.9571C145.675 71.067 146.224 71.0152 146.723 70.8083C147.223 70.6015 147.65 70.2489 147.951 69.7956C148.251 69.3422 148.412 68.8085 148.412 68.2625C148.412 67.5405 148.132 66.8474 147.631 66.3327C147.131 65.8181 146.451 65.523 145.737 65.5113ZM145.737 66.1509C146.15 66.1434 146.555 66.2603 146.902 66.4868C147.248 66.7132 147.52 67.0389 147.683 67.4223C147.846 67.8058 147.892 68.2296 147.816 68.6397C147.74 69.0499 147.544 69.4278 147.255 69.7253C146.966 70.0229 146.596 70.2265 146.192 70.3103C145.788 70.3941 145.368 70.3543 144.987 70.1959C144.605 70.0375 144.279 69.7677 144.049 69.4209C143.82 69.0741 143.698 68.6661 143.698 68.2488C143.703 67.7003 143.918 67.1751 144.299 66.7847C144.68 66.3943 145.196 66.1694 145.737 66.1578V66.1509Z" fill="#0F0F0F"/>
<path d="M160.134 65.6076H159.501V70.914H162.937V70.2744H160.134V65.6076Z" fill="#0F0F0F"/>
<path d="M174.533 65.6076H173.905V70.914H177.34V70.2744H174.533V65.6076Z" fill="#0F0F0F"/>
<path d="M188.386 70.914H191.954V70.2744H189.014V68.5308H191.737V67.8946H189.014V66.2438H191.954V65.6076H188.386V70.914Z" fill="#0F0F0F"/>
<path d="M206.925 66.0753V65.6076H203.047V66.2438H206.055L202.999 70.4463V70.914H206.952V70.2744H203.869L206.925 66.0753Z" fill="#0F0F0F"/>
<path d="M218.785 65.6076H218.153V70.914H218.785V65.6076Z" fill="#0F0F0F"/>
<path d="M232.638 65.5113C232.098 65.5024 231.568 65.6562 231.116 65.9531C230.663 66.2499 230.307 66.6764 230.095 67.1783C229.882 67.6802 229.822 68.2347 229.922 68.7713C230.022 69.3079 230.277 69.8023 230.656 70.1916C231.034 70.5808 231.518 70.8473 232.047 70.9571C232.575 71.067 233.124 71.0152 233.624 70.8083C234.123 70.6015 234.55 70.2489 234.851 69.7956C235.152 69.3422 235.312 68.8085 235.313 68.2625C235.313 67.5405 235.032 66.8474 234.532 66.3327C234.032 65.8181 233.351 65.523 232.638 65.5113ZM232.638 70.3534C232.226 70.3609 231.821 70.2442 231.475 70.0181C231.128 69.792 230.856 69.4667 230.693 69.0837C230.53 68.7006 230.484 68.2772 230.559 67.8672C230.635 67.4572 230.829 67.0793 231.118 66.7815C231.406 66.4837 231.776 66.2795 232.179 66.195C232.583 66.1104 233.002 66.1492 233.384 66.3066C233.766 66.4639 234.092 66.7326 234.323 67.0785C234.553 67.4243 234.676 67.8317 234.677 68.2488C234.675 68.7997 234.46 69.3282 234.08 69.7222C233.699 70.1163 233.182 70.3451 232.638 70.3603V70.3534Z" fill="#0F0F0F"/>
<path d="M250.161 69.7482L247.126 65.6076H246.589V70.914H247.218V66.77L250.252 70.914H250.789V65.6076H250.161V69.7482Z" fill="#0F0F0F"/>
<path d="M262.256 70.914H265.828V70.2744H262.888V68.5308H265.607V67.8946H262.888V66.2438H265.828V65.6076H262.256V70.914Z" fill="#0F0F0F"/>
<path d="M134.186 31.3101C134.365 31.2511 134.539 31.1763 134.706 31.0866L135.076 31.3101L135.358 31.1932L135.994 31.3652C136.13 31.3614 136.264 31.3289 136.387 31.2697C136.51 31.2104 136.619 31.1258 136.708 31.0213C136.875 30.8371 137.07 30.6804 137.285 30.557L137.659 30.3816C137.906 30.0806 138.209 29.8308 138.55 29.6457C138.891 29.4073 139.258 29.2089 139.644 29.0541L140.307 28.1153L140.935 27.6579C141.2 27.1811 141.494 26.7216 141.816 26.2823C142.059 26.0022 142.251 25.6809 142.383 25.3331C142.383 24.5559 141.904 24.1673 140.935 24.1673L139.81 24.2739C139.766 24.2676 139.724 24.2525 139.685 24.2294C139.647 24.2064 139.613 24.176 139.586 24.1398C139.544 24.0914 139.491 24.0533 139.432 24.0283C139.374 24.0033 139.31 23.992 139.246 23.9953C139.07 23.9735 138.892 24.0018 138.731 24.0772C138.57 24.1525 138.433 24.2719 138.335 24.4218C138.226 24.6256 138.095 24.8169 137.945 24.9926C137.863 25.3784 137.707 25.7441 137.486 26.0691C137.29 26.3669 137.126 26.6851 136.996 27.0182C136.964 27.1349 136.91 27.244 136.836 27.339C136.762 27.4341 136.669 27.5133 136.565 27.5719C136.334 27.7263 136.14 27.9307 135.997 28.1703L135.715 28.4523C135.137 28.8512 134.804 29.2192 134.696 29.5597C133.989 29.9758 133.639 30.3335 133.639 30.6155C133.649 31.0763 133.826 31.3101 134.186 31.3101Z" fill="#0F0F0F"/>
<path d="M101.003 37.999C100.7 37.5417 100.476 37.1737 100.323 36.8917C99.8811 36.7369 99.667 36.6303 99.667 36.5478C99.8048 36.2764 99.9687 36.0195 100.156 35.7809C100.182 35.5535 100.144 35.3235 100.045 35.1176C99.9462 34.9117 99.7915 34.7386 99.5991 34.6185C99.249 34.4191 98.8829 34.25 98.5047 34.1129C98.2987 34.0589 98.1009 33.9767 97.9168 33.8688C97.554 33.7203 97.1816 33.5974 96.8021 33.5008L95.9694 33.2222C95.7564 33.2407 95.5517 33.3141 95.3747 33.4354C95.1496 33.5665 94.91 33.6704 94.661 33.745C94.4265 33.8137 94.1818 33.8894 93.9167 33.9754C93.7111 34.0449 93.4975 34.0876 93.2812 34.1026C92.7918 34.1026 91.9999 34.3743 90.9226 34.9074C89.8453 35.4404 89.1928 35.8496 88.9787 36.1007C88.7151 36.3865 88.375 36.5885 87.9999 36.6819C87.6342 36.794 87.2896 36.9672 86.9803 37.1943C86.8915 37.3739 86.7663 37.5325 86.6129 37.6599C86.4595 37.7873 86.2813 37.8806 86.0899 37.9337C85.6299 38.2105 85.2253 38.5721 84.897 38.9998C84.8289 39.1296 84.7357 39.2442 84.623 39.3369C84.5104 39.4296 84.3805 39.4986 84.2411 39.5397C83.8853 39.6945 83.5901 39.9642 83.4017 40.3066C83.1861 40.5672 83.0295 40.8724 82.9429 41.2008L83.106 41.9161L83.0584 42.4216C83.0584 42.6933 83.2249 42.8171 83.5682 42.8171C83.7235 42.8217 83.8756 42.7723 83.9993 42.6772C84.1229 42.5821 84.2107 42.447 84.2479 42.2944C84.3195 42.0949 84.4047 41.9007 84.5028 41.7132L84.8426 41.8301C84.999 41.8301 85.1077 41.7235 85.1825 41.5172C85.2024 41.4215 85.2487 41.3336 85.3161 41.2636C85.3835 41.1935 85.4692 41.1443 85.5631 41.1217C85.8033 41.0177 86.0028 40.8363 86.1307 40.6058C86.3233 40.7549 86.4014 40.8787 86.3652 40.9772L85.6855 43.2436V44.1549C85.6174 44.3313 85.5209 44.4952 85.4 44.6398L85.4578 45.2623L85.4 45.8022V45.9191C85.4498 46.4195 85.6063 46.9029 85.8588 47.336C86.0677 47.8262 86.3949 48.2554 86.8104 48.5844L87.208 48.9283C87.3163 49.0998 87.4691 49.2378 87.6498 49.3272C87.8764 49.4584 88.076 49.6323 88.2378 49.8396C88.3882 50.0437 88.6068 50.1855 88.8529 50.2386C89.0641 50.2587 89.2615 50.3537 89.4103 50.5068C89.5398 50.644 89.7132 50.7305 89.8997 50.751C90.0713 50.7205 90.2367 50.6612 90.389 50.5756L90.8478 50.634C91.446 50.634 91.8164 50.5653 91.9626 50.4208C92.1253 50.2744 92.333 50.1894 92.5505 50.1801C92.8313 50.1468 93.1033 50.0605 93.3526 49.9256C93.594 49.7937 93.8494 49.6899 94.1138 49.6161C94.4892 49.4613 94.8388 49.2491 95.1504 48.9867L95.4359 49.0452C95.5514 49.0452 95.7485 48.8698 96.0204 48.5294C96.2923 48.1889 96.5302 48.0273 96.7239 48.0273C96.7672 48.0277 96.8098 48.0375 96.8491 48.0559C96.8883 48.0742 96.9233 48.1008 96.9516 48.1339L98.311 46.9715C98.4462 46.9131 98.5635 46.8193 98.6509 46.6998C98.7368 46.5816 98.8455 46.4822 98.9703 46.4075C99.0491 46.3579 99.1163 46.2916 99.1673 46.2133C99.2184 46.1349 99.252 46.0463 99.266 45.9535C99.2989 45.7461 99.398 45.5553 99.5481 45.4102C99.7248 45.2259 99.8645 45.0087 99.9593 44.7705C100.088 44.4988 100.177 44.3337 100.204 44.2753L100.381 44.0414C100.431 43.9211 100.521 43.8224 100.636 43.7629C100.716 43.7078 100.783 43.636 100.834 43.5524C100.884 43.4687 100.916 43.3752 100.928 43.278L101.152 42.4835L101.064 41.9195C101.064 41.8611 101.173 41.7373 101.387 41.5412L101.438 41.3177L101.387 38.9929L101.003 37.999ZM97.3764 39.918C97.5578 39.9973 97.7126 40.1283 97.8218 40.295C97.931 40.4617 97.99 40.6569 97.9916 40.8569C97.9797 41.2302 97.9238 41.6009 97.825 41.9608L97.2779 42.9925C97.2948 43.1434 97.2561 43.2952 97.1691 43.419L96.9346 43.7629C96.8666 44.0131 96.7213 44.2348 96.52 44.3956C96.2855 44.588 96.0953 44.8297 95.9626 45.1041C95.7757 45.4403 95.4824 45.7032 95.13 45.8503C94.949 45.9274 94.7957 46.0587 94.6905 46.2265C94.5854 46.3943 94.5336 46.5907 94.542 46.7892L94.4367 46.8477H94.0357C93.9949 46.8477 93.9065 46.9921 93.7604 47.2741C93.6143 47.5561 93.4205 47.7005 93.2336 47.7005C92.9111 47.7522 92.6128 47.905 92.3806 48.1373C91.9801 48.453 91.4805 48.6117 90.9736 48.5844C90.6841 48.5711 90.3964 48.5319 90.1138 48.4675L89.9676 48.409H89.5054L89.4578 48.3505L89.3389 47.7005L89.0568 46.7892L89.1656 45.7575L89.2811 45.3895C89.2498 45.2564 89.1786 45.1362 89.0772 45.0456C88.9481 44.9012 88.8801 44.8049 88.8801 44.7636C88.8834 44.6656 88.9134 44.5703 88.9668 44.4884C89.0201 44.4065 89.0948 44.3411 89.1826 44.2993C89.3364 44.2181 89.4682 44.1001 89.5666 43.9554C89.6045 43.5704 89.7104 43.1953 89.8793 42.8481L90.3958 41.5688C90.6983 41.2696 90.9532 40.9979 91.1401 40.7743L91.4528 40.4064C91.8538 40.0865 92.0475 39.777 92.0305 39.4675L92.3704 39.1236C92.5226 39.1256 92.6733 39.0937 92.812 39.0301C92.9506 38.9665 93.0736 38.8728 93.1724 38.7556C93.3797 38.5115 93.5123 38.3877 93.5463 38.3877H93.9167C94.0607 38.2505 94.1762 38.0856 94.2566 37.9027C94.3721 37.6792 94.4911 37.5588 94.5964 37.5588C94.8207 37.6358 95.0389 37.7301 95.2489 37.8408C96.4724 37.4041 97.1589 37.0567 97.2881 36.7919C97.5061 36.6914 97.7339 36.6142 97.9678 36.5615C97.9908 36.5592 98.014 36.5622 98.0358 36.5703C98.0575 36.5784 98.0771 36.5914 98.0931 36.6083C98.1091 36.6252 98.1212 36.6455 98.1283 36.6678C98.1354 36.6901 98.1375 36.7137 98.1343 36.7369C98.1343 36.8126 97.9066 37.0361 97.4546 37.4041C97.2566 37.5374 97.0921 37.7156 96.9741 37.9246C96.8561 38.1335 96.7879 38.3675 96.7749 38.6078C96.7681 39.2474 96.9754 39.6945 97.3764 39.918Z" fill="#0F0F0F"/>
<path d="M81.6582 53.399C81.4463 53.3414 81.256 53.2218 81.111 53.0551C80.7689 52.3673 79.2169 51.0032 76.455 48.9627L73.1516 46.521C72.9516 46.2078 72.6957 45.9349 72.3972 45.7162C72.1326 45.5316 71.8898 45.317 71.6733 45.0766C71.2427 44.6696 70.7789 44.3003 70.2867 43.9727L69.9129 43.7973C69.7209 43.6485 69.5062 43.5323 69.2773 43.4534C69.2399 43.4534 69.1788 43.4946 69.1006 43.5703H68.9375L68.9952 43.3364C68.9952 43.2298 68.8083 43.0166 68.4481 42.7174C68.0878 42.4182 67.8295 42.1947 67.6936 42.0674L67.3809 41.892C67.2348 41.7304 67.1363 41.641 67.0955 41.641H66.9221C66.9221 41.8061 66.8644 41.892 66.7556 41.892C66.6495 41.8617 66.5494 41.8128 66.4599 41.7476L66.5789 41.2455H66.5211L66.0317 40.9532L62.99 38.4049C62.4701 38.1435 62.2186 37.8615 62.2186 37.5795C62.2625 37.3585 62.3593 37.1519 62.5007 36.9777L63.1804 35.7568C63.3686 35.6108 63.5386 35.4422 63.6867 35.2547L63.7479 34.9108C63.9674 34.6095 64.1415 34.2769 64.2645 33.9238C64.3289 33.6929 64.4349 33.4761 64.5772 33.2842C64.7063 33.1399 64.8067 32.9718 64.8728 32.7889C64.951 32.5757 65.0462 32.3143 65.1855 31.9945L65.4778 31.5956C65.4982 31.4993 65.6817 31.3824 66.0453 31.2517C66.409 31.121 66.5925 31.0075 66.5925 30.9491L67.2722 31.1554C67.5158 31.0782 67.7334 30.9342 67.9009 30.7393C68.0182 30.5779 68.1632 30.4393 68.3291 30.33C68.3587 30.3642 68.3946 30.3921 68.4348 30.4122C68.4751 30.4323 68.5189 30.4441 68.5636 30.447C68.6755 30.5726 68.8291 30.6522 68.9952 30.6705C69.2503 30.6414 69.4932 30.5441 69.6987 30.3885C69.9365 30.2075 70.2238 30.1054 70.5212 30.0962L70.579 29.9311L71.1465 30.0962L72.1661 29.6697C72.3406 29.7066 72.5067 29.7766 72.6555 29.8761C72.9535 29.7609 73.262 29.6757 73.5765 29.6216L74.1236 29.1676L74.4635 29.4496C74.5963 29.4415 74.7229 29.3896 74.8237 29.3018C74.9489 29.2143 75.088 29.1491 75.2349 29.1092L75.6462 29.2261C75.7338 29.2687 75.8316 29.2854 75.9282 29.2742C75.9906 29.2764 76.0521 29.2596 76.105 29.2261L76.8764 28.8272C77.0771 28.8321 77.2757 28.786 77.4542 28.693C77.6807 28.5876 77.9211 28.5158 78.1679 28.4798L79.235 28.2838L79.6938 28.3423L80.2716 28.1978C80.6465 28.0975 81.03 28.033 81.4169 28.0052C81.7204 28.0179 82.0217 27.9481 82.2895 27.8029C82.5573 27.6578 82.7817 27.4426 82.9394 27.1799L83.2793 27.2865L86.3379 26.3751C86.4902 26.3762 86.6412 26.3463 86.7819 26.2872C86.9226 26.2281 87.0501 26.1411 87.157 26.0312C87.368 25.8054 87.6306 25.6354 87.9217 25.536C88.0576 25.4832 88.1819 25.4037 88.2874 25.3022C88.393 25.2007 88.4777 25.0792 88.5368 24.9445C88.6477 24.6894 88.8455 24.4832 89.0941 24.3633C89.1936 24.3359 89.2849 24.2843 89.3602 24.2129C89.4354 24.1416 89.4922 24.0527 89.5258 23.9541C89.5969 23.7472 89.713 23.5591 89.8656 23.4038L90.1511 21.4917L90.0933 21.1237L90.1511 20.7283C90.157 20.4663 90.0848 20.2086 89.9438 19.9889C89.8613 19.8767 89.796 19.7527 89.7501 19.6209V19.5624C89.7874 19.3389 89.8078 19.2185 89.8078 19.1669C89.8078 19.05 89.6617 18.8746 89.3592 18.6442C89.0568 18.4138 88.9174 18.2659 88.9174 18.2246V18.0045C88.7729 17.8062 88.6583 17.5871 88.5776 17.3546C88.3317 17.1816 88.0726 17.0286 87.8027 16.8972L87.5682 16.4123C87.3084 16.2318 87.0304 16.0797 86.739 15.9583L86.5113 16.0752L85.682 15.6763C85.505 15.5368 85.3108 15.4212 85.1043 15.3324H85.0465C84.8996 15.354 84.7551 15.3897 84.6149 15.439C84.2622 15.2878 83.9213 15.1096 83.5953 14.906L83.2827 14.9541C83.1775 14.8843 83.0631 14.8299 82.9428 14.7925L82.4364 14.8475L81.2028 14.5586H80.8187C80.6695 14.6009 80.5149 14.6206 80.3599 14.6171C80.3143 14.6139 80.2717 14.593 80.241 14.5586C80.099 14.5283 79.9545 14.5121 79.8094 14.5105H79.5851C79.3506 14.538 79.184 14.5586 79.0685 14.5586L78.783 14.5105L78.2358 14.734C78.1014 14.6013 77.9417 14.4975 77.7664 14.4289C77.5912 14.3603 77.4041 14.3284 77.2163 14.3351C76.9749 14.3873 76.7447 14.4828 76.5366 14.6171L75.2485 14.3351H75.082C74.0828 14.5586 73.5459 14.679 73.4779 14.679C73.3422 14.6546 73.2141 14.598 73.1041 14.5139C72.9797 14.4172 72.8317 14.3565 72.6759 14.3385C72.6351 14.3385 72.5195 14.3592 72.3122 14.397C71.9984 14.4468 71.6816 14.4755 71.364 14.483C70.7276 14.5326 70.0966 14.6373 69.4778 14.7959C68.8905 14.9442 68.291 15.0375 67.6868 15.0745L67.1974 15.016C66.9613 15.1356 66.7113 15.2246 66.4531 15.2808L65.906 15.384H65.4472C65.3116 15.4207 65.1829 15.4799 65.0665 15.5594C64.9889 15.6262 64.8928 15.6671 64.7913 15.6763L64.3325 15.5009L62.8167 15.8999H62.6706C62.3307 15.8208 62.1132 15.8689 62.0147 16.0443C61.9588 16.1293 61.8814 16.1975 61.7905 16.2416C61.6996 16.2858 61.5985 16.3044 61.4981 16.2953C61.3216 16.2856 61.1558 16.2066 61.0359 16.0752C60.324 16.1303 59.6247 16.2962 58.9628 16.567C58.2408 16.8713 57.4905 17.1017 56.7232 17.2548C55.8017 17.4255 54.9411 17.8395 54.2286 18.4551C53.6135 19.0397 53.3008 19.5246 53.3008 19.9201C53.3008 21.055 53.9058 21.6396 55.1089 21.6396C55.6229 21.6257 56.121 21.4568 56.5396 21.1547C56.7288 21.0561 56.8968 20.9205 57.0338 20.7558C57.1709 20.5911 57.2744 20.4006 57.3383 20.1952L57.3995 19.8857L57.8889 19.6622C58.1687 19.494 58.4024 19.2575 58.5686 18.9743C58.9084 18.8299 59.2721 18.682 59.6357 18.5582C59.86 18.2865 60.0163 18.1593 60.0843 18.1593L60.5159 18.2659H60.5737C60.6519 18.2659 60.6926 18.2487 60.6926 18.2178C60.9169 17.8739 61.0733 17.6744 61.1514 17.6744L61.4913 17.7638L61.9195 17.6744C61.9927 17.6877 62.0608 17.721 62.1166 17.7707C62.1917 17.8303 62.283 17.8651 62.3783 17.8704H62.4973L63.092 17.4509L63.7717 17.5093L64.2611 17.3924L64.8966 17.4509C65.0142 17.4441 65.1295 17.4149 65.2365 17.3649C65.3438 17.3158 65.4589 17.2867 65.5763 17.2789L65.8584 17.3374H65.9162L67.4931 17.0554L67.9213 17.162C67.9431 17.1409 67.96 17.1151 67.9705 17.0865C67.9811 17.0579 67.9852 17.0273 67.9825 16.9969C68.1521 17.0466 68.3247 17.0856 68.4991 17.1138H68.618L68.7845 17.0554L69.6716 17.162C70.0868 17.1555 70.4928 17.0368 70.8474 16.8181C70.9727 16.9195 71.114 16.9985 71.2655 17.0519C71.3701 17.074 71.4639 17.1324 71.5306 17.217C71.5536 17.2517 71.5843 17.2803 71.6204 17.3006C71.6564 17.3209 71.6966 17.3324 71.7379 17.3339L74.0251 17.1104C74.1524 17.1287 74.2711 17.1864 74.3649 17.2755L75.1466 17.1585L75.653 17.389L76.1729 17.2755C76.3497 17.4302 76.4652 17.5059 76.5434 17.5059L77.0634 17.389H78.0115C78.1509 17.4986 78.3013 17.5931 78.4601 17.671H78.9495C79.0481 17.6769 79.1465 17.6568 79.235 17.6125L79.5273 17.5575C79.6055 17.5575 79.6938 17.6228 79.8094 17.7604L80.0167 17.8188H80.4653L81.2469 18.1627C81.4491 18.2728 81.6593 18.367 81.8757 18.4447C81.9756 18.4223 82.071 18.3827 82.1578 18.3278C82.4895 18.6032 82.877 18.8016 83.2929 18.909C83.6176 18.9837 83.9301 19.1053 84.2207 19.2701L84.5605 19.1532C84.7588 19.3622 84.9881 19.5386 85.2402 19.6759C85.3815 19.7544 85.5157 19.8453 85.6412 19.9476C85.9233 19.9476 86.0695 19.9682 86.0695 20.0061C86.3753 20.4806 86.5486 20.7317 86.5792 20.773C86.3141 21.9044 85.8248 22.5922 85.1213 22.8157L83.4016 23.3316C82.382 23.6514 81.7771 23.8922 81.5902 24.0676C81.3577 24.2569 81.0927 24.4015 80.8085 24.494C79.6462 24.6763 79.0583 24.862 79.0583 25.027C79.0548 25.0908 79.0755 25.1535 79.1161 25.2024L78.6573 25.144C78.4666 25.1583 78.279 25.2 78.0999 25.2678C77.845 25.3572 77.6887 25.5016 77.6615 25.7148C77.6159 25.7124 77.5717 25.6977 77.5335 25.6724C77.4952 25.647 77.4644 25.6118 77.444 25.5704C77.4216 25.5289 77.3894 25.4936 77.3503 25.4678C77.3111 25.442 77.2663 25.4264 77.2197 25.4225C76.6929 25.4225 76.4074 25.5498 76.387 25.7939C76.3667 26.0381 76.2613 26.1619 76.0472 26.1619H75.9282C75.8745 26.0685 75.7971 25.9913 75.7039 25.9384L75.3641 25.9969H75.1874C74.7082 26.0725 74.4363 26.1138 74.3581 26.1138L72.6079 26.5884H72.0505L70.2391 27.1592C69.0972 27.2177 68.4413 27.4516 68.2951 27.8677L67.5713 28.0431L67.7174 27.8092L67.8329 27.2658L68.6078 25.113C68.752 24.5605 69.0155 24.0473 69.3793 23.6102C69.624 23.3797 69.7497 22.8948 69.7497 22.1554C69.7216 21.8546 69.6136 21.567 69.4371 21.3232C69.2781 21.1016 69.1533 20.857 69.0666 20.5976C69.0258 20.4428 68.7268 20.1986 68.1456 19.8685C67.8034 19.6313 67.4191 19.4632 67.0139 19.3733C65.9672 19.3733 65.437 19.7447 65.437 20.4806C65.429 20.9042 65.5713 21.3166 65.838 21.643C65.6817 21.7978 65.6137 21.9147 65.6137 21.9869L65.8992 22.7504C65.7493 22.8026 65.5944 22.8383 65.437 22.857C65.3588 22.857 65.2331 23.1768 65.036 23.8165C64.9193 24.3007 64.7315 24.7644 64.4786 25.1921C64.3053 25.4638 64.1965 25.6495 64.1388 25.7148C63.9166 26.318 63.659 26.9071 63.3673 27.4791C63.1736 27.596 62.9561 28.0018 62.7216 28.7102C62.4871 29.4187 62.1948 29.8176 61.8617 29.8829C61.573 29.9345 61.288 30.0058 61.0087 30.0962L60.6111 30.4401L60.1319 30.5467C59.805 30.7326 59.452 30.8671 59.0851 30.9456C58.3674 31.1992 57.6828 31.5399 57.046 31.9601C56.0265 32.5516 55.5303 33.0469 55.5303 33.4458C55.5303 34.1817 56.0401 34.8489 57.046 35.4335L57.165 35.7224C57.2024 35.9253 57.3995 36.1489 57.7529 36.3724C58.1064 36.5959 58.2797 36.8264 58.2797 37.0602C58.2303 37.3003 58.1121 37.5204 57.9398 37.693C57.6835 38.0027 57.4999 38.3672 57.4029 38.7591C57.34 39.0594 57.2347 39.349 57.0902 39.6188L56.3459 40.7262L54.8302 43.5944C54.5404 44.1107 54.2981 44.6529 54.1063 45.2141L54.0009 45.8744C53.9053 46.1092 53.8457 46.3574 53.8242 46.6104C53.8418 46.869 53.9366 47.116 54.0961 47.3188C54.2262 47.4952 54.3346 47.6869 54.419 47.8897C54.7837 48.9237 55.2437 49.4763 55.7988 49.5473C56.1624 49.5686 56.5215 49.6403 56.8659 49.7605L57.4436 49.7021C57.8141 49.7021 58.0384 49.451 58.0962 48.9352L58.2627 47.1434L58.487 46.1117L59.7784 43.2161C59.8021 42.7528 59.9975 42.3157 60.3256 41.9918C60.3311 41.8254 60.3693 41.6618 60.4382 41.5106C60.5071 41.3594 60.6051 41.2237 60.7266 41.1114L60.8456 40.9463C60.9253 40.7721 61.0413 40.6172 61.1854 40.4924C61.3589 40.3383 61.5038 40.1544 61.6136 39.949C61.9535 40.1416 62.1438 40.2929 62.1642 40.4339C62.1846 40.5749 62.3273 40.7537 62.6026 40.9841C62.9565 41.297 63.2892 41.6337 63.5984 41.9918C63.9824 42.4285 64.2781 42.7793 64.5092 43.0235C64.8541 43.3365 65.2713 43.5565 65.7225 43.6631L65.6647 44.1205C65.7066 44.1597 65.7565 44.1891 65.8108 44.2065C65.9701 44.3201 66.1141 44.4542 66.239 44.6054C66.5271 44.6294 66.8088 44.7039 67.0717 44.8255C67.0343 45.3792 67.4421 45.8572 68.3053 46.3284C68.5926 46.668 68.8604 47.0239 69.1074 47.3945C69.4723 47.9518 69.9326 48.4386 70.4668 48.832C70.8495 49.0815 71.1931 49.3876 71.4864 49.7399C71.7874 50.1042 72.1429 50.4187 72.5399 50.6719C73.1224 51.1004 73.6488 51.6019 74.1066 52.1644C74.7014 52.8522 75.014 53.2202 75.0548 53.2615L76.6895 54.7643C77.2479 55.4666 78.0098 55.9741 78.868 56.2156L78.9869 56.587C79.0243 57.1098 79.201 57.3814 79.5035 57.3814H79.789L79.9351 57.4365C80.3565 57.8251 81.009 58.0314 81.9097 58.0314C82.2733 58.0314 82.7015 57.7769 83.2011 57.2645L83.5715 56.9206C83.7687 56.8037 83.8672 56.7074 83.8672 56.6317V55.6413C83.6138 55.1827 83.2825 54.7729 82.8884 54.4307C82.5382 54.0197 82.1224 53.671 81.6582 53.399ZM59.058 35.2066C58.7417 35.0929 58.4523 34.9137 58.2083 34.6804C57.7563 34.3365 57.5286 34.1095 57.5286 34.0407C57.5286 33.972 57.6748 33.8206 57.9704 33.5971C58.1455 33.4396 58.3571 33.3296 58.5856 33.2773H59.2992C59.2992 33.2394 59.4148 33.1225 59.6391 32.9334L59.9789 32.9918L60.2746 32.8852C59.8079 34.4328 59.4023 35.2066 59.058 35.2066Z" fill="#0F0F0F"/>
<path d="M125.951 41.4553C126.037 41.3315 126.033 41.3246 125.996 41.3796L125.972 41.4175C125.972 41.4175 125.955 41.4381 125.951 41.4553Z" fill="#0F0F0F"/>
<path d="M159.733 42.487L159.644 41.923C159.644 41.8645 159.753 41.7407 159.967 41.5447L160.018 41.3211L159.967 38.9964L159.644 37.999C159.342 37.5417 159.117 37.1737 158.965 36.8917C158.526 36.7369 158.309 36.6303 158.309 36.5478C158.446 36.2764 158.61 36.0195 158.798 35.7809C158.824 35.5535 158.785 35.3235 158.686 35.1176C158.588 34.9117 158.433 34.7386 158.241 34.6185C157.891 34.4191 157.524 34.25 157.146 34.1129C156.94 34.0589 156.742 33.9767 156.558 33.8688C156.196 33.7203 155.823 33.5974 155.444 33.5008L154.611 33.2222C154.398 33.2407 154.193 33.3141 154.016 33.4354C153.791 33.5665 153.552 33.6704 153.303 33.745C153.068 33.8137 152.823 33.8894 152.558 33.9754C152.353 34.0452 152.139 34.0879 151.923 34.1026C151.433 34.1026 150.642 34.3743 149.568 34.9074C148.494 35.4404 147.834 35.8496 147.62 36.1007C147.357 36.3865 147.017 36.5885 146.641 36.6819C146.27 36.7922 145.919 36.9654 145.605 37.1943C145.516 37.3739 145.391 37.5325 145.237 37.6599C145.084 37.7873 144.906 37.8806 144.714 37.9337C144.255 38.2105 143.85 38.5721 143.522 38.9998C143.453 39.1296 143.36 39.2442 143.248 39.3369C143.135 39.4296 143.005 39.4986 142.866 39.5397C142.51 39.6945 142.215 39.9642 142.026 40.3066C142.026 40.3238 142.006 40.341 141.992 40.3582C141.919 40.2909 141.823 40.2552 141.724 40.2585C141.459 40.2585 141.068 40.5095 140.548 41.0254L136.809 43.8729C136.392 44.0258 135.986 44.2109 135.596 44.4266C135.423 44.5418 135.236 44.6332 135.039 44.6983L134.414 45.3173L133.955 45.2623C133.686 45.2267 133.413 45.2875 133.183 45.4342C133.119 45.4093 133.062 45.3692 133.017 45.3173C133.126 45.282 133.223 45.2144 133.295 45.1231C133.366 45.0318 133.409 44.921 133.418 44.8049V43.6425C133.418 43.5359 133.435 43.4774 133.465 43.4774C133.679 43.2848 133.788 43.1335 133.788 43.051L133.611 42.3632C133.611 42.2566 133.747 42.1018 134.013 41.9058L134.131 41.3143C134.532 41.2386 134.894 40.3857 135.216 38.7556L135.705 36.5375C135.705 36.0216 135.403 35.4886 134.804 34.928C134.347 34.4402 133.727 34.1422 133.064 34.0923C132.892 34.0853 132.72 34.1137 132.559 34.1758C132.398 34.2378 132.25 34.3323 132.126 34.4534C131.886 34.6875 131.612 34.8834 131.314 35.0346L130.933 35.1997C130.709 35.5132 130.426 35.7795 130.101 35.9838C129.82 36.1411 129.585 36.3714 129.421 36.6509C129.272 36.6086 129.117 36.59 128.962 36.5959C128.663 36.6593 128.394 36.8228 128.198 37.0602C128 37.2784 127.771 37.4651 127.518 37.6139C127.391 37.6556 127.275 37.7248 127.178 37.8168L126.719 38.1607C126.388 38.3207 126.107 38.5707 125.907 38.8829C125.87 38.8733 125.833 38.8675 125.795 38.8657C125.649 38.8657 125.288 39.0686 124.721 39.4778C124.153 39.8871 123.858 40.2035 123.81 40.4476C123.763 40.6918 123.644 40.7915 123.45 40.7915L123.11 40.7331C123.032 40.7331 122.845 40.8706 122.532 41.132L122.424 41.2489C121.905 41.414 121.466 41.7698 121.193 42.2462C121.028 42.2844 120.878 42.3719 120.762 42.4973C120.591 42.6491 120.392 42.7659 120.177 42.8412C119.851 42.9781 119.542 43.1536 119.256 43.3639C119.101 43.508 118.923 43.6243 118.729 43.7078H118.271C117.807 44.1779 117.242 44.5313 116.619 44.7395C116.156 44.8437 115.744 45.1076 115.453 45.4858C114.434 45.7541 113.9 46.0842 113.822 46.4831L113.567 46.5416H113.281C113.142 46.664 112.988 46.768 112.823 46.8511C112.668 46.8709 112.515 46.8996 112.364 46.9371C112.099 46.9955 111.759 47.054 111.344 47.1022L110.111 47.3085H109.689C108.829 47.3085 108.398 47.0162 108.398 46.4247L108.626 45.4342L108.564 44.8152C108.564 44.7395 108.663 44.6226 108.84 44.4713C109.016 44.32 109.115 44.1687 109.115 44.0621V43.7732C109.085 43.6815 109.065 43.587 109.054 43.4912C109.054 43.3364 109.183 43.1473 109.428 42.9684C109.672 42.7896 109.886 42.5901 110.063 42.4457L110.804 41.2249C111.194 40.7524 111.548 40.25 111.861 39.722H112.027C112.318 39.6304 112.597 39.5058 112.86 39.3506C113.027 39.0765 113.272 38.8605 113.564 38.7316C113.816 38.6265 114.046 38.4749 114.243 38.2845C114.395 38.1389 114.579 38.0326 114.78 37.975C115.058 37.8772 115.321 37.7406 115.562 37.5692C115.629 37.432 115.704 37.2989 115.786 37.1702H115.844L116.078 37.2184L116.333 37.4522H116.395C116.779 37.2444 117.195 37.1004 117.625 37.0258C118.094 37.22 118.583 37.3629 119.083 37.4522C119.307 37.7136 119.504 37.8477 119.65 37.8477C120.177 37.8112 120.676 37.5968 121.068 37.239C121.577 36.8332 121.822 36.4721 121.822 36.1626C121.752 35.8121 121.657 35.4672 121.537 35.1309C121.353 34.5084 121.156 34.1611 120.952 34.0717C120.75 33.9851 120.553 33.8851 120.364 33.7725C120.245 33.6837 120.108 33.6236 119.963 33.5971C119.708 33.621 119.473 33.7443 119.307 33.941C118.887 33.7598 118.456 33.607 118.016 33.4836C117.74 33.4761 117.47 33.5581 117.244 33.7175C117.138 33.8024 117.024 33.8772 116.904 33.941C116.86 33.9377 116.818 33.9166 116.789 33.8825C116.576 33.7467 116.325 33.6885 116.075 33.7175C115.887 33.7167 115.702 33.7687 115.542 33.8677C115.381 33.9666 115.25 34.1086 115.164 34.278H114.733C114.393 34.278 113.846 34.5325 113.101 35.0174L112.044 35.6743C111.792 35.9815 111.491 36.2442 111.154 36.4515C110.84 36.6479 110.568 36.905 110.352 37.2081C110.07 37.1496 109.774 37.3319 109.472 37.7514C109.169 38.171 108.972 38.4083 108.894 38.4874L108.955 38.9413C108.955 38.9826 108.935 38.9895 108.894 38.9895C108.337 39.2415 107.877 39.6716 107.586 40.2138C107.205 40.8431 107.008 41.2455 107.008 41.4346V41.7235C106.529 41.8886 106.216 42.3047 106.06 42.9547C105.949 43.4869 105.795 44.009 105.601 44.516C105.479 44.7929 105.402 45.0878 105.373 45.3895C105.363 45.478 105.384 45.5673 105.434 45.6406L105.659 46.3284C105.873 47.4633 106.284 48.0926 106.892 48.2095L107.066 48.4331C107.155 48.7101 107.29 48.9695 107.467 49.2L108.7 49.819C108.874 49.9977 109.109 50.1023 109.356 50.1113C109.394 50.1113 109.696 50.0116 110.304 49.819C110.487 49.9165 110.66 50.0317 110.821 50.1629C111.098 50.3516 111.43 50.4379 111.762 50.4071H111.82C112.124 50.2372 112.462 50.1407 112.809 50.1251C113.169 50.1044 113.346 49.9497 113.346 49.6711C113.346 49.3925 113.434 49.2447 113.628 49.2447H113.686C113.865 49.3922 114.067 49.5084 114.284 49.5886C114.362 49.5886 114.508 49.482 114.733 49.2447C114.886 49.084 115.053 48.9378 115.232 48.8079C115.417 48.8291 115.603 48.7974 115.771 48.7166C115.939 48.6357 116.081 48.5089 116.18 48.3505L116.69 48.4675C116.899 48.4103 117.087 48.2904 117.227 48.1235C117.407 47.912 117.614 47.7257 117.842 47.5699C118.04 47.4533 118.21 47.2949 118.342 47.1056C118.38 47.016 118.433 46.9335 118.498 46.8614H118.95L119.528 46.4934C119.7 46.3101 119.901 46.1567 120.123 46.0395C120.408 45.9501 120.878 45.581 121.533 44.9321C121.638 44.6708 121.737 44.5366 121.815 44.5366C121.893 44.5366 122.08 44.6329 122.274 44.8255H122.349L122.916 44.2271C123.355 43.7768 123.848 43.3851 124.384 43.0613L124.5 42.8962L124.921 42.8378C124.979 42.7827 125.02 42.7311 125.04 42.714C125.061 42.6968 125.057 42.6658 125.04 42.6658L125.071 42.3872H125.047L125.074 42.346V42.3735C125.185 42.3073 125.291 42.235 125.394 42.1568C125.531 42.0518 125.65 41.9252 125.747 41.782C125.801 41.7114 125.848 41.6366 125.89 41.5584C125.896 41.5474 125.902 41.537 125.91 41.5275C125.936 41.4772 125.966 41.4289 125.999 41.383C126.033 41.2766 126.089 41.179 126.164 41.097C126.24 41.0151 126.331 40.9507 126.434 40.9085L127.069 40.7434C127.411 40.6541 127.708 40.4396 127.902 40.1416C127.939 39.7254 128.058 39.5225 128.242 39.5225H128.361L128.731 39.6876L128.966 39.6291C129.015 39.5286 129.084 39.439 129.168 39.3657C129.252 39.2925 129.349 39.237 129.455 39.2027C129.622 39.1649 129.71 39.1167 129.71 39.0376C129.887 38.845 129.992 38.7487 130.033 38.7487L130.543 38.9207C130.757 38.7297 131.002 38.5763 131.266 38.4668C131.313 38.4605 131.359 38.4651 131.404 38.4802C131.448 38.4953 131.488 38.5204 131.52 38.5537C131.553 38.587 131.578 38.6275 131.593 38.672C131.608 38.7166 131.613 38.764 131.606 38.8107C131.546 38.9941 131.458 39.167 131.345 39.3231C131.19 39.5705 131.089 39.8483 131.049 40.1381C131.028 40.3659 130.932 40.5801 130.777 40.7468L130.492 41.1458L130.376 41.6479C130.257 42.0158 130.179 42.2703 130.142 42.4251C130.003 42.5389 129.903 42.6941 129.856 42.8687L129.71 43.5875C129.679 43.7319 129.642 43.9314 129.601 44.1687C129.576 44.3622 129.518 44.5497 129.428 44.7223C129.322 45.0337 129.281 45.364 129.309 45.6922L129.367 45.8572L129.316 46.2527C129.361 46.4348 129.42 46.613 129.492 46.7858C129.574 46.9718 129.633 47.1669 129.669 47.367L129.608 47.7659V47.931C129.624 48.1776 129.696 48.4173 129.816 48.6322C129.937 48.8472 130.104 49.0318 130.305 49.1725C130.629 49.4921 131.048 49.6961 131.498 49.7536L132.065 49.5783L132.493 49.6367C132.612 49.6367 132.758 49.5404 132.956 49.3444C133.041 49.2464 133.146 49.1669 133.262 49.1107C133.379 49.0546 133.506 49.0229 133.635 49.0177C133.831 49.018 134.023 48.9671 134.193 48.8698L134.713 48.5913C134.966 48.3917 135.25 48.2339 135.552 48.1235C135.736 48.0615 135.914 47.9808 136.082 47.8828L136.256 47.5905L137.479 46.7204C137.791 46.4947 138.082 46.2415 138.349 45.9638C138.746 45.579 139.178 45.2336 139.64 44.9321C139.989 44.7269 140.303 44.4656 140.568 44.1583C140.691 43.9694 140.84 43.7992 141.01 43.6528C141.24 43.4362 141.403 43.1567 141.479 42.8481C141.557 42.6314 141.639 42.4354 141.724 42.2531L141.703 42.4423C141.703 42.714 141.87 42.8378 142.213 42.8378C142.368 42.8423 142.521 42.793 142.644 42.6979C142.768 42.6027 142.856 42.4676 142.893 42.315C142.966 42.1163 143.051 41.9222 143.148 41.7338L143.488 41.8508C143.644 41.8508 143.753 41.7441 143.827 41.5378C143.847 41.4422 143.894 41.3542 143.961 41.2842C144.028 41.2142 144.114 41.165 144.208 41.1423C144.448 41.0383 144.648 40.857 144.776 40.6265C144.968 40.7755 145.046 40.8993 145.01 40.9979L144.33 43.2642V44.1755C144.262 44.352 144.166 44.5158 144.045 44.6604L144.103 45.2829L144.045 45.8228V45.9398C144.095 46.4406 144.252 46.9243 144.507 47.3566C144.714 47.8472 145.04 48.2767 145.455 48.605L145.856 48.9489C145.963 49.1209 146.115 49.2592 146.295 49.3478C146.521 49.479 146.721 49.6529 146.883 49.8603C147.033 50.0644 147.252 50.2062 147.498 50.2592C147.709 50.2794 147.906 50.3744 148.055 50.5274C148.185 50.6647 148.358 50.7512 148.545 50.7716C148.716 50.7411 148.882 50.6819 149.034 50.5962L149.493 50.6547C150.091 50.6547 150.461 50.5859 150.608 50.4415C150.77 50.295 150.978 50.21 151.195 50.2007C151.476 50.1675 151.748 50.0811 151.998 49.9462C152.239 49.8143 152.494 49.7105 152.759 49.6367C153.134 49.482 153.484 49.2697 153.795 49.0074L154.081 49.0658C154.196 49.0658 154.393 48.8904 154.665 48.55C154.937 48.2095 155.175 48.0479 155.372 48.0479C155.415 48.0484 155.457 48.0582 155.496 48.0766C155.535 48.095 155.569 48.1215 155.597 48.1545L156.956 46.9921C157.092 46.9346 157.209 46.8407 157.296 46.7204C157.382 46.6014 157.492 46.5019 157.619 46.4281C157.697 46.3778 157.763 46.3113 157.813 46.233C157.864 46.1548 157.897 46.0665 157.911 45.9742C157.944 45.7667 158.043 45.5759 158.193 45.4308C158.37 45.2466 158.509 45.0293 158.604 44.7911C158.733 44.5194 158.822 44.3544 158.849 44.2959L159.026 44.0621C159.076 43.9417 159.166 43.8431 159.281 43.7835C159.361 43.7284 159.428 43.6566 159.478 43.573C159.529 43.4894 159.561 43.3958 159.573 43.2986L159.733 42.487ZM156.018 39.918C156.199 39.9973 156.354 40.1283 156.463 40.295C156.573 40.4617 156.632 40.6569 156.633 40.8569C156.621 41.2302 156.565 41.6009 156.467 41.9608L155.919 42.9925C155.938 43.1435 155.899 43.296 155.811 43.419L155.576 43.7629C155.506 44.0175 155.356 44.242 155.148 44.4025C154.914 44.5949 154.723 44.8366 154.591 45.111C154.404 45.4472 154.11 45.71 153.758 45.8572C153.577 45.9343 153.424 46.0655 153.319 46.2334C153.213 46.4012 153.162 46.5976 153.17 46.7961L153.065 46.8545H152.664C152.623 46.8545 152.535 46.999 152.388 47.281C152.242 47.563 152.049 47.7074 151.862 47.7074C151.54 47.7593 151.243 47.9121 151.012 48.1442C150.61 48.4592 150.109 48.6179 149.602 48.5913C149.312 48.5778 149.024 48.5386 148.742 48.4743L148.596 48.4159H148.144L148.093 48.3574L147.977 47.7074L147.692 46.7961L147.8 45.7644L147.916 45.3964C147.885 45.2632 147.813 45.1431 147.712 45.0525C147.583 44.9081 147.515 44.8118 147.515 44.7705C147.518 44.6724 147.548 44.5772 147.602 44.4953C147.655 44.4134 147.73 44.3479 147.817 44.3062C147.972 44.2259 148.104 44.1077 148.201 43.9623C148.235 43.5629 148.343 43.1734 148.517 42.8137L149.034 41.5344C149.336 41.2352 149.591 40.9635 149.778 40.7399L150.091 40.372C150.492 40.0521 150.689 39.7426 150.669 39.4331L151.009 39.0892C151.161 39.0908 151.311 39.0586 151.45 38.9951C151.588 38.9315 151.712 38.838 151.811 38.7212C152.015 38.4771 152.15 38.3533 152.181 38.3533H152.551C152.695 38.2161 152.811 38.0512 152.891 37.8684C153.01 37.6448 153.126 37.5245 153.231 37.5245C153.456 37.6017 153.676 37.696 153.887 37.8065C155.107 37.3697 155.794 37.0224 155.926 36.7576C156.144 36.657 156.372 36.5798 156.606 36.5271C156.629 36.5248 156.652 36.5278 156.674 36.5359C156.696 36.5441 156.715 36.557 156.731 36.5739C156.747 36.5908 156.759 36.6112 156.766 36.6334C156.774 36.6557 156.776 36.6793 156.772 36.7025C156.772 36.7782 156.545 37.0017 156.093 37.3697C155.895 37.503 155.73 37.6813 155.612 37.8902C155.494 38.0991 155.426 38.3331 155.413 38.5734C155.416 39.2474 155.624 39.6945 156.025 39.918H156.018Z" fill="#0F0F0F"/>
<path d="M229.929 42.5833C230.126 42.542 230.215 42.2394 230.215 41.6994C230.216 41.4407 230.3 41.1894 230.456 40.9841C230.572 40.8576 230.657 40.7041 230.701 40.537L230.507 39.6842L230.585 38.8897C230.585 38.6868 230.449 38.5802 230.164 38.5802C230.063 38.6158 229.972 38.6747 229.899 38.7522C229.764 38.8639 229.617 38.9586 229.46 39.0342C229.376 39.0787 229.306 39.1454 229.256 39.2271C229.206 39.3088 229.18 39.4025 229.178 39.4985C229.096 39.8222 228.909 40.1091 228.648 40.3135H228.471C228.131 40.3135 227.679 40.8569 227.074 41.9608C226.847 42.0541 226.606 42.1098 226.361 42.1259C226.204 42.3388 226.073 42.5697 225.97 42.8137C225.793 43.1817 225.63 43.3639 225.47 43.3639H225.13C225.051 43.4584 224.956 43.5376 224.848 43.5978C224.848 44.2581 224.702 44.5882 224.417 44.5882H224.135C224.009 44.6137 223.897 44.6861 223.822 44.7911C223.695 44.9126 223.539 44.9991 223.37 45.0422C223.194 45.0981 223.046 45.2215 222.959 45.3861V45.754C222.959 46.0532 222.864 46.208 222.677 46.208C222.518 46.198 222.363 46.1595 222.218 46.0945C222.218 46.0532 222.198 46.036 222.157 46.036L221.103 46.6069C220.876 46.7689 220.636 46.9115 220.386 47.0334L219.706 46.9164C219.346 46.9164 219.112 46.6069 219.027 45.9879L218.881 45.2107L218.938 44.5917C218.903 44.3796 218.823 44.1778 218.704 44.0001C218.888 43.4103 219.041 42.8111 219.163 42.205L219.054 41.4381C219.238 41.1707 219.373 40.8727 219.455 40.5577H219.506C219.955 40.7889 220.442 40.9336 220.943 40.9841C221.038 40.9927 221.133 40.9813 221.222 40.9507C221.312 40.92 221.394 40.8707 221.464 40.8059C221.534 40.7412 221.59 40.6624 221.627 40.5746C221.665 40.4869 221.685 40.3921 221.684 40.2963C221.72 40.0402 221.814 39.7959 221.959 39.5824C222.103 39.3689 222.294 39.1919 222.517 39.0651L223.537 38.0678C223.6 37.8827 223.697 37.7113 223.822 37.5623C223.9 37.1255 224.084 36.8745 224.39 36.7885C224.446 36.6246 224.535 36.4744 224.652 36.3476C224.769 36.2209 224.911 36.1203 225.069 36.0525L225.589 35.0036C225.742 34.8527 225.867 34.6757 225.96 34.4809C226.005 34.3697 226.071 34.2686 226.155 34.1836C226.239 34.0986 226.339 34.0313 226.449 33.9857C226.614 33.9261 226.754 33.8138 226.85 33.6659C226.986 33.246 227.1 32.8189 227.19 32.3865C227.455 32.4244 227.846 31.9876 228.362 31.0591L229.107 29.6835C229.196 29.3303 229.363 29.0022 229.596 28.724C229.764 28.5368 229.918 28.3367 230.055 28.1256L230.337 27.6682C230.654 27.395 230.89 27.0377 231.017 26.6365C231.09 26.3214 231.257 26.0367 231.496 25.8214C231.608 25.7254 231.7 25.6072 231.765 25.4742C231.83 25.3412 231.868 25.196 231.877 25.0476L231.788 24.6212H232.128C232.274 24.6212 232.42 24.377 232.56 23.8921C232.652 23.4747 232.843 23.0863 233.117 22.7607C233.265 22.5858 233.388 22.39 233.481 22.1795C233.481 21.3816 233.654 20.9552 233.997 20.8967C234.072 20.5579 234.112 20.2121 234.116 19.865C234.198 19.7724 234.308 19.7105 234.429 19.6896C234.544 19.6896 234.731 19.1669 234.996 18.1283L235.112 17.9048C235.357 17.6992 235.513 17.4038 235.544 17.0829C235.539 16.7412 235.459 16.4049 235.31 16.098C235.162 15.7912 234.948 15.5215 234.684 15.3083C234.168 14.8079 233.482 14.5272 232.767 14.5242C232.495 14.5182 232.224 14.5577 231.965 14.6411L231.758 14.6996C231.581 14.7526 231.411 14.8265 231.251 14.9197L230.911 15.1432C230.673 15.2773 230.478 15.4789 230.352 15.7232C230.225 15.9676 230.171 16.2441 230.198 16.5189L229.797 16.6358C229.523 16.8453 229.224 17.0176 228.906 17.1482C228.417 17.867 228.182 18.3312 228.227 18.5238L227.628 19.0087C227.461 19.2902 227.207 19.5078 226.905 19.6277C226.769 19.8937 226.616 20.1499 226.446 20.3946L226.221 20.7901L225.447 21.674C225.321 22.0169 225.178 22.3532 225.018 22.6816C224.92 22.8673 224.872 22.8948 224.872 22.7882L224.811 23.3522C224.695 23.5404 224.601 23.7411 224.529 23.9506L223.992 24.0022C223.716 24.3536 223.501 24.7502 223.356 25.1749C223.071 25.3193 222.738 25.7458 222.357 26.4439C222.086 26.5812 221.863 26.8013 221.722 27.0732L221.124 28.2941L220.104 29.9414C220.154 30.0909 220.194 30.2437 220.223 30.3988C220.22 30.4423 220.207 30.4847 220.187 30.5231C220.166 30.5616 220.138 30.5954 220.104 30.6223L219.822 30.6808C219.625 31.0247 219.482 31.2826 219.37 31.4649C219.258 31.6471 219.135 31.8535 218.969 32.0942C218.87 32.2397 218.783 32.3926 218.707 32.5516L217.756 34.8282L217.192 36.5478C217.058 36.9821 216.845 37.387 216.563 37.7411C216.309 38.042 216.176 38.4289 216.192 38.8244C216.236 38.9966 216.292 39.1655 216.359 39.3299C216.275 39.507 216.2 39.6883 216.135 39.8733L215.876 40.7503C215.763 41.0089 215.666 41.2742 215.584 41.5447C215.592 41.8282 215.65 42.1079 215.757 42.37C215.714 42.5734 215.695 42.7812 215.7 42.9891V43.1954L216.07 43.7078C216.07 43.7457 215.924 43.7766 215.642 43.8144L215.584 43.9898V44.5332L215.523 44.8771V45.1591C215.531 45.4868 215.651 45.8016 215.863 46.0498C215.988 46.1892 216.102 46.3387 216.203 46.4969C216.234 47.1848 216.496 47.8412 216.947 48.3574C217.436 48.9867 217.844 49.3066 218.167 49.3066C218.373 49.2847 218.576 49.2456 218.775 49.1896C219.027 49.3312 219.302 49.4267 219.587 49.4716C219.773 49.4939 219.952 49.5535 220.114 49.647C220.282 49.5558 220.472 49.5152 220.661 49.5301C220.954 49.4986 221.229 49.3788 221.453 49.1862H221.572C221.705 49.214 221.839 49.2347 221.973 49.2481C222.105 49.2283 222.225 49.1626 222.313 49.0624C222.428 48.9448 222.579 48.8697 222.741 48.8492C222.814 48.8381 222.882 48.8095 222.942 48.7658C223.001 48.722 223.049 48.6645 223.081 48.5981C223.213 48.4007 223.411 48.2587 223.639 48.1992C223.878 48.1221 224.092 47.9778 224.254 47.7831C224.353 47.6206 224.506 47.4988 224.685 47.4392C224.911 47.3276 225.09 47.1387 225.192 46.9061L225.654 46.9646C225.654 46.9268 225.681 46.9061 225.742 46.9061C226.123 46.2183 226.422 45.84 226.701 45.7128C226.979 45.5855 227.197 45.2176 227.424 44.6295L227.707 44.4644L228.196 44.3475C228.331 44.0241 228.56 43.7496 228.852 43.5599C229.102 43.4173 229.313 43.214 229.467 42.9684C229.512 42.8741 229.576 42.7907 229.656 42.7242C229.736 42.6576 229.829 42.6095 229.929 42.5833ZM221.266 35.0518C221.481 34.362 221.782 33.7031 222.164 33.0915C222.45 32.6591 222.693 32.1981 222.887 31.7159C222.942 31.4929 223.043 31.2842 223.183 31.1038C223.268 31.0369 223.324 30.9396 223.339 30.8321L223.261 30.4366C223.261 30.2922 223.377 30.134 223.632 29.9792L224.033 30.0377C224.223 29.8168 224.354 29.5504 224.413 29.2639C224.51 28.9124 224.673 28.5831 224.893 28.2941C225.034 28.1407 225.149 27.9639 225.232 27.7714C225.281 27.624 225.37 27.4931 225.487 27.3931C225.54 27.3525 225.583 27.3005 225.613 27.241C225.643 27.1815 225.659 27.116 225.661 27.0492C225.633 26.876 225.594 26.7049 225.545 26.5367L225.977 26.5918L226.259 26.2479C226.357 26.1516 226.884 25.4535 227.832 24.1432C228.052 23.6923 228.366 23.2955 228.753 22.9808C229.008 22.8396 229.203 22.6082 229.3 22.3308L229.494 21.9869C229.85 21.7455 230.102 21.377 230.201 20.9552C230.289 20.546 230.619 20.2674 231.187 20.1505C231.343 19.5211 231.499 19.1807 231.656 19.1188C231.848 19.0503 232.03 18.9554 232.196 18.8368C232.342 18.8368 232.42 19.05 232.42 19.4867L232.196 20.429C232.207 20.682 232.119 20.9292 231.951 21.1168C231.886 21.1654 231.831 21.2265 231.789 21.2967C231.747 21.367 231.719 21.4449 231.707 21.5261L231.248 22.5578C230.881 23.1364 230.548 23.7358 230.249 24.353L230.191 24.635C230.137 24.7894 230.117 24.9534 230.13 25.1164L229.671 25.1749C229.629 25.4575 229.479 25.712 229.253 25.8833C229.047 26.0196 228.884 26.2114 228.78 26.437C228.632 26.7174 228.444 26.9746 228.223 27.2005C228.073 27.3379 227.941 27.4952 227.832 27.6682V28.1221L227.727 28.2975C227.504 28.5035 227.344 28.7695 227.265 29.0644L227.03 29.1126C226.905 29.1126 226.69 29.3946 226.436 29.9345C226.149 30.0388 225.887 30.2011 225.665 30.4117C225.443 30.6222 225.266 30.8765 225.144 31.1588L224.92 31.6712C224.4 32.1768 224.138 32.4931 224.138 32.6032C224.144 32.7867 224.116 32.9697 224.057 33.1431C224.001 33.2686 223.972 33.4045 223.972 33.5421H223.737C223.571 33.5421 223.275 33.7553 222.857 34.1817C222.519 34.4764 222.259 34.8525 222.102 35.2753L221.504 35.6192C221.27 36.1248 221.035 36.3861 220.791 36.3861C220.759 36.3884 220.728 36.3844 220.698 36.3744C220.668 36.3644 220.641 36.3485 220.617 36.3277C220.926 35.9577 221.148 35.5214 221.266 35.0518Z" fill="#0F0F0F"/>
<path d="M214.84 38.4634C214.731 38.4634 214.558 38.5872 214.31 38.8313L210.643 41.9608C209.236 42.7381 208.444 43.2917 208.264 43.6391C208.014 43.8913 207.723 44.0983 207.404 44.2512C207.126 44.4328 206.827 44.5784 206.513 44.6846C206.405 44.6846 206.347 44.5883 206.347 44.406V44.2581C206.446 44.1616 206.522 44.0442 206.571 43.9142L206.466 42.2944L206.513 42.119C206.661 41.8234 206.775 41.5119 206.853 41.1905C206.777 41.0619 206.709 40.9287 206.649 40.7916C206.649 40.6574 206.755 40.5027 206.962 40.3067C207.049 40.0859 207.107 39.8547 207.135 39.6189C207.094 39.4703 207.036 39.3272 206.962 39.1924C207.031 39.0234 207.13 38.8684 207.254 38.735C207.394 38.5607 207.483 38.3496 207.509 38.1263C207.526 37.9158 207.575 37.7092 207.655 37.5142C207.739 37.2678 207.776 37.0076 207.764 36.7473C207.858 36.505 207.99 36.2797 208.155 36.0801C208.335 35.8016 208.541 35.5413 208.77 35.3029C208.848 35.2192 208.908 35.1201 208.947 35.0118C208.985 34.9035 209.002 34.7884 208.994 34.6735L208.886 33.9101C208.886 33.8688 208.937 33.6178 209.025 33.1535C209.113 32.6892 209.202 32.4657 209.259 32.4657C209.796 32.3109 210.061 32.0564 210.061 31.6988V31.2448C210.17 30.9601 210.245 30.6635 210.286 30.361C210.551 30.1377 210.726 29.8228 210.775 29.4772C210.757 29.2623 210.701 29.0526 210.609 28.8581C210.914 28.257 211.175 27.634 211.39 26.9942C211.47 26.2182 211.651 25.4562 211.927 24.7279C212.058 24.5143 212.158 24.2826 212.223 24.0401C212.225 23.7189 212.134 23.4041 211.962 23.1342C211.79 22.8643 211.544 22.6509 211.254 22.52C210.842 22.2529 210.379 22.075 209.895 21.9973C209.691 21.9857 209.487 22.0277 209.304 22.1193C209.12 22.2109 208.963 22.3489 208.848 22.52C208.591 22.8897 208.311 23.2424 208.009 23.5758C207.697 23.9226 207.511 24.3665 207.482 24.8345C207.331 24.9199 207.201 25.0383 207.101 25.1811C207.001 25.3239 206.934 25.4874 206.904 25.6598C206.541 25.8455 206.357 26.0278 206.357 26.2032V26.7053L206.296 26.8222C205.8 27.0183 205.555 27.1661 205.555 27.2796L205.671 27.9296C205.654 27.9437 205.64 27.961 205.63 27.9805C205.62 28 205.614 28.0212 205.613 28.0431L205.008 28.6449L204.668 29.1505C204.477 29.3613 204.322 29.6031 204.209 29.8658L204.121 30.0893C204.055 30.2444 204.009 30.4074 203.985 30.5742C203.964 30.7118 203.757 30.8356 203.356 30.9525C203.173 31.005 203.013 31.1214 202.906 31.2813C202.799 31.4411 202.752 31.634 202.772 31.826C202.763 31.9437 202.783 32.0616 202.829 32.1699C202.446 32.3425 202.124 32.6308 201.908 32.9953L201.97 33.5868C201.97 33.7416 201.861 33.8379 201.63 33.8757C201.52 33.8986 201.418 33.9477 201.331 34.0189C201.244 34.0901 201.175 34.1813 201.13 34.2849C201.022 34.517 200.852 34.7145 200.641 34.8558C200.47 34.9598 200.328 35.1066 200.229 35.2822C200.004 35.6607 199.759 36.0269 199.495 36.3793L198.948 36.8814C198.483 37.575 197.96 38.2274 197.385 38.8313C197.114 39.0526 196.896 39.3338 196.749 39.6533C196.724 39.7923 196.671 39.9245 196.593 40.0419C195.913 40.9245 195.111 41.9333 194.187 43.0682C193.714 43.7 193.191 44.2923 192.624 44.8393C192.429 44.9463 192.254 45.0845 192.104 45.2486C191.879 45.4721 191.424 45.8401 190.744 46.3628C190.31 46.6684 189.897 47.0052 189.511 47.3704C189.364 47.5183 188.963 47.594 188.318 47.594C187.937 47.594 187.662 47.312 187.499 46.7617C187.359 46.3161 187.279 45.8534 187.261 45.3861C187.259 45.3268 187.277 45.2686 187.312 45.221L187.488 44.8221C187.48 44.6384 187.429 44.4593 187.339 44.2994C187.283 44.1892 187.238 44.0741 187.203 43.9555L187.312 43.5566V43.1576C187.489 42.6404 187.624 42.1089 187.713 41.5688V41.3934C187.686 41.3433 187.668 41.2884 187.662 41.2318C187.662 41.1527 187.733 41.0736 187.889 40.9979C187.961 40.9693 188.022 40.918 188.062 40.8517C188.102 40.7853 188.121 40.7076 188.114 40.6299L187.947 40.231C187.947 40.1932 188.025 40.0866 188.192 39.8871C188.38 39.5937 188.466 39.2452 188.437 38.8967V38.7797L188.318 38.3258C188.318 38.1882 188.416 38.1023 188.603 38.0713C189.183 37.3176 189.675 36.4982 190.068 35.6296L189.952 34.8352C189.99 34.7561 190.031 34.7182 190.068 34.7182C190.365 34.5141 190.624 34.2579 190.833 33.9617C191.043 33.7278 191.185 33.4398 191.244 33.1294V33.0125C191.482 32.9717 191.698 32.8446 191.85 32.6547C192.003 32.4649 192.082 32.2253 192.073 31.9808V31.8639L191.879 31.5199C192.028 31.3178 192.223 31.155 192.447 31.0454C192.599 30.9614 192.726 30.8363 192.812 30.6839C192.899 30.5315 192.942 30.3578 192.936 30.1822C193.052 30.0652 193.229 29.9105 193.483 29.6973C193.606 29.6694 193.715 29.597 193.789 29.4937C193.863 29.3905 193.897 29.2635 193.884 29.1367V28.7137C193.884 28.638 194 28.4902 194.245 28.2666C194.583 27.9149 194.867 27.5138 195.088 27.0767C195.327 26.723 195.493 26.3242 195.577 25.904V25.7871C196.573 25.0099 197.062 24.4287 197.062 24.0676V24.0091C197.032 23.9392 197.012 23.865 197.004 23.789C197.015 23.7078 197.057 23.6339 197.12 23.5827C197.874 23.3213 198.303 23.0015 198.442 22.6335C198.581 22.2655 198.704 22.0523 198.843 21.9938C199.021 21.9133 199.188 21.8092 199.339 21.6843C199.509 21.554 199.69 21.439 199.879 21.3404L200.219 20.742C200.378 20.6712 200.519 20.5657 200.632 20.4331C200.746 20.3005 200.829 20.1441 200.875 19.9751L201.215 19.6931C201.335 19.5627 201.469 19.4473 201.616 19.3492H201.874L202.051 19.2357C202.238 18.7577 202.374 18.5273 202.452 18.5273L203.05 18.5858C203.058 18.5869 203.066 18.5862 203.074 18.5837C203.081 18.5811 203.088 18.5769 203.094 18.5712C203.099 18.5655 203.103 18.5586 203.106 18.551C203.108 18.5433 203.109 18.5352 203.108 18.5273C203.439 18.0409 203.9 17.6602 204.437 17.4302C204.963 17.2208 205.435 16.8927 205.817 16.4708C206.149 16.0804 206.573 15.7811 207.05 15.6007C207.391 15.4997 207.717 15.3528 208.019 15.1639C208.26 14.9988 208.4 14.9404 208.437 14.9782L208.661 14.8613H208.722L209.27 15.0367C209.435 15.0178 209.592 14.9575 209.728 14.8613H209.786C210.092 14.8613 210.248 15.047 210.248 15.4047C210.248 16.7149 209.776 17.6538 208.838 18.2453C208.589 18.4205 208.387 18.6541 208.247 18.926C208.107 19.198 208.035 19.5001 208.036 19.8066C208.036 20.7764 208.566 21.2613 209.609 21.2613C210.289 21.2613 210.666 20.6973 210.785 19.5831L211.02 18.8162C211.183 18.5191 211.279 18.189 211.302 17.8498C211.331 17.3034 211.437 16.764 211.615 16.2472C211.655 15.7073 211.676 15.2155 211.676 14.8338C211.65 13.9296 211.285 13.0692 210.656 12.4265L210.432 12.368H210.371C210.085 12.2511 209.902 12.1857 209.834 12.1445L209.372 12.2029C208.988 12.0843 208.589 12.0263 208.189 12.031C207.736 12.031 206.934 12.2728 205.783 12.7566C204.641 13.2415 203.954 13.6783 203.72 14.0737C203.436 14.0977 203.16 14.1806 202.909 14.3173C202.658 14.4539 202.438 14.6415 202.262 14.8682C201.636 15.0642 201.283 15.2465 201.242 15.4218C201.206 15.5219 201.151 15.6133 201.078 15.6902C201.005 15.7672 200.918 15.828 200.821 15.8689C200.607 15.9755 200.335 16.1303 200.019 16.3126L199.247 17.0898C199.056 17.2326 198.882 17.3989 198.731 17.585C198.616 17.7304 198.481 17.8579 198.33 17.9633L198.269 18.3072L198.163 18.4138L197.449 18.7061C197.143 19.0181 196.809 19.3002 196.45 19.5487C196.101 19.796 195.779 20.0821 195.492 20.4016L195.21 20.7455C194.981 20.8521 194.78 21.011 194.622 21.2097C194.406 21.4582 194.171 21.6882 193.918 21.8975C193.623 22.145 193.42 22.4872 193.344 22.8673C193.058 22.9575 192.808 23.1383 192.63 23.3832C192.397 23.7167 192.141 24.0338 191.866 24.3324C191.475 24.7794 191.281 25.089 191.281 25.254C190.741 25.8627 190.459 26.2857 190.411 26.5024C190.26 26.8777 190.014 27.2062 189.697 27.455C189.521 27.5885 189.373 27.7565 189.262 27.9491C189.151 28.1417 189.08 28.355 189.052 28.5761L188.817 28.92C188.673 29.202 188.484 29.4577 188.256 29.6766C188.042 29.8814 187.89 30.1439 187.818 30.4332C187.661 30.8633 187.422 31.2582 187.115 31.5956C186.57 32.373 186.16 33.2381 185.901 34.1542L185.636 34.9211V35.1447L185.589 35.7637L185.249 36.2486C184.788 36.6658 184.461 37.2133 184.311 37.8202L183.794 39.9731C183.794 40.0109 183.832 40.0694 183.91 40.145C183.913 40.2761 183.948 40.4042 184.013 40.5178C184.078 40.6313 184.17 40.7266 184.28 40.795C184.37 40.8327 184.448 40.8959 184.503 40.9771C184.559 41.0582 184.59 41.1538 184.593 41.2524C184.593 41.3281 184.555 41.3659 184.477 41.3659C184.399 41.3659 184.43 41.3487 184.43 41.3109C184.233 41.1148 184.09 41.0289 184.019 41.0289C183.947 41.0289 183.832 41.1527 183.679 41.4244C183.552 41.619 183.475 41.8423 183.454 42.0743C183.467 42.1957 183.504 42.3133 183.562 42.4202C183.621 42.5271 183.699 42.6211 183.794 42.6968C183.471 42.8894 183.305 43.0716 183.305 43.2367C183.322 43.3416 183.378 43.4361 183.461 43.5015C183.504 43.5289 183.54 43.5657 183.567 43.6091C183.594 43.6526 183.612 43.7016 183.617 43.7526C183.599 43.8947 183.556 44.0323 183.488 44.1584C183.405 44.3779 183.362 44.611 183.363 44.8462C183.365 46.1803 183.774 47.4812 184.535 48.5707L185.769 49.6746C185.879 49.843 186.032 49.9791 186.211 50.069C186.39 50.1589 186.589 50.1996 186.788 50.187C187.384 50.6971 188.133 50.988 188.912 51.0124C189.105 50.9786 189.292 50.9196 189.47 50.837C189.81 50.7167 190.161 50.6258 190.516 50.5653C190.889 50.5224 191.235 50.3469 191.492 50.0701C191.751 50.068 192.002 49.973 192.199 49.8018C192.325 49.6643 192.695 49.3238 193.33 48.7908C193.608 48.4149 193.954 48.0962 194.35 47.8519C194.63 47.4351 194.955 47.051 195.319 46.7067C195.75 46.2803 195.964 45.9536 195.964 45.7197L196.25 45.4102C196.552 45.2245 196.709 45.0491 196.709 44.9047L196.651 44.6708L196.709 44.1309H196.766L197.021 44.2444C197.178 44.2415 197.328 44.1843 197.448 44.0821C197.567 43.98 197.648 43.8393 197.677 43.6838C197.747 43.4057 197.893 43.153 198.099 42.9547C198.231 42.8676 198.346 42.7569 198.438 42.628L198.323 42.064C198.322 42.0561 198.322 42.048 198.325 42.0403C198.327 42.0327 198.332 42.0258 198.337 42.0201C198.343 42.0144 198.35 42.0102 198.357 42.0076C198.365 42.0051 198.373 42.0044 198.381 42.0055L198.666 41.8026L198.724 41.5206L198.839 41.4037C199.017 41.3426 199.178 41.2424 199.312 41.1103C199.446 40.9783 199.549 40.8177 199.614 40.6403L199.438 40.0659L199.614 39.8458L200.24 39.9043C200.277 39.9043 200.359 39.8458 200.474 39.7289L200.787 39.0789C201.541 38.343 201.912 37.8168 201.912 37.5176C201.825 37.3245 201.717 37.1422 201.589 36.9743C201.726 36.8244 201.88 36.6916 202.048 36.5788C202.388 36.3931 203.067 35.578 204.063 34.1336C204.141 34.1336 204.182 34.1542 204.182 34.1921C204.181 34.6601 204.104 35.1249 203.954 35.5677C203.851 35.8208 203.773 36.0834 203.72 36.3518C203.701 36.6979 203.625 37.0384 203.495 37.3594C203.342 37.7513 203.262 38.1689 203.261 38.5906C203.231 39.2149 203.14 39.8347 202.989 40.4408C202.843 41.0453 202.754 41.6626 202.724 42.2841C202.756 43.0743 202.938 43.8508 203.261 44.5711C203.625 45.4549 204.036 45.9673 204.495 46.1221L204.896 46.5691H205.344C205.558 46.913 205.776 47.1125 206 47.1125L207.516 46.8305L207.937 46.889C208.115 46.8579 208.278 46.7656 208.396 46.6276L208.736 46.4041L209.076 46.2871C209.82 45.5512 210.408 45.1832 210.846 45.1832C210.955 45.1832 211.064 45.0388 211.159 44.7568C211.203 44.6164 211.276 44.4874 211.374 44.3787C211.472 44.27 211.593 44.1842 211.727 44.1274L211.951 44.0105C212.182 43.7971 212.447 43.6261 212.736 43.505C212.997 43.4083 213.222 43.2331 213.382 43.0029C213.488 42.8168 213.653 42.6726 213.851 42.5936C213.938 42.5662 214.018 42.5187 214.084 42.4549C214.15 42.391 214.2 42.3126 214.231 42.2256C214.462 42.0711 214.655 41.8647 214.794 41.6225C214.933 41.3803 215.015 41.1089 215.033 40.8294V40.4064C215.223 39.9274 215.328 39.419 215.346 38.9035C215.319 38.6181 215.163 38.4634 214.84 38.4634Z" fill="#0F0F0F"/>
<path d="M297.958 31.3101C298.136 31.2507 298.309 31.1759 298.474 31.0866L298.848 31.3101L299.13 31.1932L299.766 31.3652C299.902 31.3614 300.036 31.3289 300.158 31.2697C300.281 31.2104 300.391 31.1258 300.479 31.0213C300.647 30.8371 300.842 30.6804 301.057 30.557L301.431 30.3816C301.677 30.0813 301.979 29.8315 302.318 29.6457C302.661 29.4078 303.029 29.2094 303.416 29.0541L304.095 28.1153L304.721 27.6579C304.988 27.1826 305.282 26.7233 305.601 26.2823C305.845 26.0031 306.037 25.6815 306.168 25.3331C306.168 24.5559 305.689 24.1673 304.721 24.1673L303.599 24.2739C303.554 24.268 303.511 24.2531 303.472 24.2301C303.433 24.207 303.399 24.1763 303.371 24.1398C303.329 24.091 303.277 24.0526 303.218 24.0276C303.159 24.0026 303.095 23.9915 303.032 23.9953C302.856 23.9735 302.677 24.0018 302.516 24.0772C302.355 24.1525 302.218 24.2719 302.121 24.4218C302.011 24.6256 301.88 24.8169 301.73 24.9926C301.646 25.3777 301.49 25.7431 301.271 26.0691C301.073 26.3588 300.906 26.6689 300.772 26.9942C300.706 27.2292 300.55 27.4282 300.34 27.5478C300.109 27.7022 299.915 27.9066 299.772 28.1462L299.49 28.4282C298.913 28.8272 298.58 29.1951 298.471 29.5356C297.767 29.9517 297.417 30.3094 297.417 30.5914C297.421 31.0763 297.594 31.3101 297.958 31.3101Z" fill="#0F0F0F"/>
<path d="M340.245 40.6918C340.245 40.4889 340.099 40.3823 339.814 40.3823C339.693 40.3968 339.577 40.4372 339.472 40.5006C339.368 40.564 339.278 40.6491 339.209 40.7503L338.974 41.0323L338.635 41.2077L337.921 41.8267C337.187 42.2635 336.66 42.573 336.327 42.7656C336.169 42.8508 336.03 42.9681 335.919 43.1101C335.808 43.2521 335.727 43.4158 335.681 43.5909C335.543 43.6762 335.428 43.7958 335.348 43.9383C335.267 44.0809 335.224 44.2419 335.222 44.406C335.192 44.4403 335.149 44.4613 335.103 44.4644L334.821 44.3578H334.702C334.576 44.3603 334.453 44.4051 334.354 44.4854C334.255 44.5656 334.185 44.6768 334.155 44.8015C333.918 45.0642 333.648 45.2953 333.353 45.4893C333.287 45.6305 333.192 45.7561 333.075 45.858C332.958 45.9598 332.821 46.0358 332.674 46.0808L331.756 46.3353C331.657 46.3353 331.532 46.1289 331.355 45.7128L330.798 44.5332V44.2787C330.798 44.124 330.838 44.0277 330.933 43.9967C331.314 43.6528 331.511 43.0372 331.511 42.1465L331.453 41.6135L331.678 40.0522V39.9352L331.569 39.1718L331.63 38.6559C331.63 38.1813 331.345 37.5623 330.777 36.7851C330.52 36.4132 330.175 36.1121 329.774 35.9091C329.373 35.7061 328.928 35.6077 328.48 35.6227C328.217 35.6543 327.96 35.7262 327.718 35.8359C327.345 35.9804 327.063 36.0801 326.876 36.1351C326.756 36.1616 326.641 36.2081 326.536 36.2727L326.135 36.5065L325.707 36.62C325.425 36.859 325.094 37.0317 324.738 37.1256C324.479 37.173 324.241 37.3017 324.058 37.4935C323.762 37.7681 323.416 37.9819 323.039 38.1229L322.814 38.5493L322.522 38.7729C322.257 38.969 321.959 39.1136 321.642 39.1993C321.415 39.2732 321.207 39.3956 321.031 39.5582C320.855 39.7208 320.716 39.9197 320.622 40.1416C320.585 40.2379 320.449 40.3445 320.215 40.4855C319.989 40.6154 319.774 40.7614 319.569 40.9222C319.447 41.0532 319.286 41.1392 319.11 41.1664C318.923 41.1664 318.825 41.0873 318.825 40.9429C318.87 40.6619 318.988 40.3977 319.164 40.176C319.265 39.8125 319.324 39.4387 319.341 39.0617L319.28 38.2948C319.28 37.8409 319.008 37.2287 318.451 36.4549C318.18 36.0703 317.817 35.7612 317.396 35.5562C316.976 35.3512 316.511 35.257 316.045 35.2822C315.643 35.2822 315.331 35.5436 315.107 36.0767C314.974 36.3498 314.789 36.5933 314.561 36.7929C314.334 36.9925 314.07 37.1442 313.784 37.239L313.591 37.521C313.111 37.5517 312.65 37.7265 312.269 38.0231C311.746 38.3982 311.197 38.735 310.627 39.0308C310.324 39.1909 310.049 39.4013 309.815 39.6532C309.766 39.6124 309.705 39.5884 309.642 39.5845C309.319 39.5845 309.003 39.8183 308.7 40.2723C308.473 40.6721 308.132 40.9933 307.722 41.1939C307.579 41.2394 307.449 41.3182 307.342 41.4239C307.235 41.5297 307.154 41.6594 307.106 41.8026C307.09 41.9218 307.027 42.0295 306.932 42.1022C306.837 42.175 306.718 42.2069 306.6 42.1912L306.148 42.5902C305.909 42.7911 305.705 43.0305 305.543 43.2986L305.258 43.4121C305.03 43.566 304.835 43.7635 304.683 43.9933C304.337 44.3863 303.872 44.6523 303.361 44.7499C303.28 44.6535 303.22 44.5408 303.185 44.4194C303.15 44.2979 303.14 44.1703 303.157 44.0449L303.273 43.247L303.215 42.5317C303.236 42.3345 303.322 42.1502 303.46 42.009C303.588 41.8834 303.674 41.7196 303.704 41.5413V41.4828L304.105 40.3204C304.14 40.142 304.2 39.9694 304.282 39.808C305.387 38.7109 305.934 37.5382 305.934 36.3071C305.934 35.2754 305.523 34.7457 304.7 34.7457C303.558 34.7457 302.804 35.0896 302.454 35.7775C302.104 36.4653 301.825 36.8092 301.631 36.8092C301.438 36.8092 301.387 36.6338 301.346 36.2933C301.23 34.6735 300.574 33.8619 299.392 33.8619C299.29 33.8575 299.189 33.8776 299.096 33.9204L298.637 34.1405H298.579C298.41 34.0384 298.225 33.9641 298.032 33.9204H297.866C297.376 34.1946 296.866 34.4303 296.34 34.6254H296.105C295.741 34.6662 295.392 34.7934 295.086 34.9968C294.666 35.243 294.223 35.4469 293.764 35.6055C293.312 35.7699 292.899 36.0276 292.55 36.3621C292.348 36.5897 292.111 36.7825 291.847 36.933C291.04 37.3448 290.301 37.8821 289.658 38.5252L288.812 39.3747C288.433 39.6004 288.101 39.8995 287.837 40.2551C287.64 40.5446 287.406 40.806 287.14 41.0323C287.023 41.1145 286.926 41.2226 286.857 41.3483C286.787 41.474 286.747 41.6141 286.739 41.7579L286.457 42.1259C286.189 42.3922 285.961 42.6956 285.777 43.0269C285.573 43.3017 285.405 43.6023 285.278 43.9211L285.339 44.6845C284.975 44.6845 284.792 44.8015 284.792 45.0284L284.849 45.957V46.1324C284.8 46.2817 284.783 46.44 284.798 46.5966C284.777 46.9813 284.864 47.3642 285.05 47.7006L285.346 48.863C285.403 49.2722 285.774 49.6092 286.46 49.8947C287.031 50.1516 287.644 50.2963 288.268 50.3211C288.894 50.3211 289.968 49.8156 291.507 48.8079L291.68 48.6429C292.122 48.4125 292.455 48.2267 292.7 48.072L294.882 46.3078C295.151 46.1186 295.374 45.8706 295.534 45.5821C295.711 45.2898 295.82 45.1247 295.847 45.0869L296.398 45.1454L296.693 44.8771C296.824 44.7123 297.002 44.5923 297.203 44.5332C297.455 44.4473 297.594 44.3406 297.631 44.1893L297.75 44.0243C297.965 43.8827 298.159 43.7101 298.325 43.5118C298.372 43.2388 298.503 42.9875 298.698 42.7931C298.96 42.7977 299.213 42.6976 299.402 42.5145C299.599 42.3185 299.742 42.2325 299.813 42.2325C299.884 42.2325 299.929 42.2807 299.929 42.3976L299.755 43.7938C299.76 43.8903 299.779 43.9855 299.813 44.0758C299.85 44.1749 299.869 44.2796 299.871 44.3854C299.874 44.4155 299.87 44.4458 299.86 44.4743C299.85 44.5028 299.834 44.5287 299.813 44.5504C299.792 44.5734 299.776 44.6006 299.766 44.6302C299.756 44.6598 299.753 44.6912 299.755 44.7224C299.769 44.8312 299.82 44.9315 299.901 45.0044C299.979 45.0798 300.03 45.1788 300.048 45.2864L299.929 45.8297C299.912 46.1473 300.002 46.4612 300.184 46.7204C300.32 46.8697 300.421 47.0485 300.479 47.2432C300.5 47.3848 300.568 47.5149 300.673 47.6112C301.001 47.6507 301.321 47.7424 301.621 47.8828C301.934 48.03 302.276 48.1029 302.62 48.0961C302.768 48.0733 302.911 48.0207 303.038 47.9413C303.331 47.7979 303.636 47.6828 303.949 47.5974C304.285 47.5241 304.598 47.3682 304.86 47.1434L304.918 46.8615C305.15 46.7939 305.377 46.71 305.597 46.6104C305.805 46.3272 306.103 46.1254 306.44 46.0395C306.577 46.0144 306.705 45.9536 306.811 45.8631C306.917 45.7726 306.998 45.6556 307.045 45.5237C307.133 45.3616 307.253 45.2199 307.398 45.108C307.544 44.996 307.71 44.9162 307.888 44.8737L308.17 44.4782C308.44 44.3205 308.672 44.1044 308.85 43.8454C308.987 43.6363 309.18 43.4715 309.407 43.3708L309.611 42.9925V42.9066H309.716C309.947 42.7234 310.199 42.5708 310.468 42.4526C310.607 42.4113 310.675 42.3357 310.675 42.2291C310.817 41.9533 311.034 41.7243 311.3 41.5688C311.824 41.2803 312.324 40.949 312.796 40.5783L313.258 40.6678C313.618 40.1553 313.91 39.8733 314.118 39.8424C314.506 39.6842 314.854 39.4397 315.137 39.1271L315.195 39.244C315.106 39.5044 314.977 39.7491 314.814 39.9696C314.616 40.2311 314.473 40.5307 314.393 40.85C314.382 41.0009 314.324 41.1444 314.226 41.2593C314.182 41.2979 314.147 41.3454 314.121 41.3986C314.096 41.4519 314.082 41.5098 314.08 41.5688C314.08 41.9677 314.043 42.1706 313.965 42.1706H313.591C313.413 42.3207 313.258 42.4969 313.132 42.6933C312.958 42.955 312.725 43.1708 312.452 43.3227C312.349 43.3629 312.26 43.435 312.199 43.5287C312.138 43.6225 312.108 43.7333 312.112 43.8454V44.0793L312.051 44.1962C311.229 44.3819 310.819 45.5351 310.821 47.6559C310.852 48.0302 310.988 48.3879 311.212 48.6876C311.467 49.1037 311.701 49.3376 311.891 49.396C312.078 49.4352 312.259 49.5 312.428 49.5886C312.531 49.6542 312.647 49.6943 312.768 49.7055C312.945 49.7055 313.159 49.4545 313.404 48.9386C313.634 48.8455 313.841 48.7036 314.012 48.5225C314.126 48.3922 314.262 48.2838 314.413 48.2027H314.705L314.824 48.0857C314.866 47.9322 314.935 47.7877 315.028 47.6593C315.528 47.6008 315.83 47.4564 315.949 47.2054C316.055 46.5829 316.242 46.2734 316.486 46.2734C316.671 46.3668 316.845 46.4823 317.003 46.6173C317.175 46.3851 317.376 46.1759 317.601 45.9948C317.941 45.7644 318.118 45.6062 318.118 45.5409C318.118 45.1041 318.247 44.8531 318.502 44.8118C318.757 44.7705 319.181 44.4851 319.742 43.9795C320.303 43.474 320.955 42.9238 321.669 42.3426C322.061 42.0694 322.419 41.7495 322.736 41.39C322.9 41.2916 323.054 41.1763 323.195 41.0461L323.419 40.881C323.666 40.829 323.898 40.7221 324.099 40.568C324.337 40.5595 324.567 40.4752 324.755 40.3273C325.093 40.0847 325.457 39.8805 325.839 39.7186L326.036 39.6601C326.182 39.4903 326.384 39.3793 326.604 39.3472C326.944 39.3472 327.12 39.5432 327.12 39.9387L327.063 40.6265L327.178 41.3418L327.001 42.7174C327.01 42.8366 327.04 42.9532 327.09 43.0613C327.14 43.1609 327.17 43.2696 327.178 43.3811C327.178 43.4602 327.1 43.5772 326.944 43.7251C327.046 43.9307 327.106 44.1554 327.12 44.3854C327.111 44.6489 327.165 44.9108 327.277 45.1488C327.353 45.2706 327.406 45.406 327.433 45.5477V45.6062C327.328 45.783 327.242 45.971 327.178 46.1668C327.204 46.2873 327.247 46.4032 327.307 46.5107C327.375 46.6262 327.418 46.7552 327.433 46.889C327.603 47.3222 327.832 47.7296 328.113 48.0995C328.524 48.7116 328.864 49.059 329.132 49.1484C329.405 49.2325 329.667 49.3479 329.914 49.4923C330.101 49.6129 330.312 49.6893 330.532 49.7158L331.08 49.5989L331.882 49.7158C332.022 49.7054 332.154 49.6429 332.252 49.5405L332.653 49.2585C333.309 48.9146 333.7 48.5706 333.826 48.2267L334.06 48.1098H334.522C334.607 48.0378 334.674 47.9468 334.717 47.8442C334.761 47.7415 334.78 47.6299 334.774 47.5183L335.889 46.5794C336.047 46.4274 336.221 46.2936 336.408 46.1805L337.18 45.785L338.648 44.2512C339.138 43.7388 339.508 43.3502 339.742 43.0888C339.978 42.8455 340.109 42.5179 340.106 42.1775L339.987 41.2455L340.245 40.6918ZM299.599 39.557C299.116 40.0669 298.597 40.5405 298.046 40.9738C297.9 41.2757 297.65 41.5131 297.342 41.641C297.163 41.7344 297.008 41.8694 296.89 42.0349C296.772 42.2005 296.694 42.3919 296.663 42.5936C296.442 42.6756 296.245 42.8114 296.088 42.9891C295.868 43.2055 295.603 43.3709 295.313 43.474L294.719 43.9314C293.995 44.3269 293.475 44.6192 293.152 44.8015C293.012 45.0207 292.811 45.193 292.574 45.2967C292.387 45.3812 292.216 45.4975 292.068 45.6406C291.989 45.73 291.886 45.7945 291.772 45.8263C291.677 45.8471 291.59 45.8948 291.521 45.9639L290.98 46.2424C290.813 46.2863 290.656 46.3661 290.522 46.4763C290.261 46.6486 289.978 46.7851 289.682 46.8821C289.379 47.0294 289.056 47.1313 288.724 47.1847C288.36 47.1847 288.173 46.717 288.173 45.8091C288.212 45.5711 288.332 45.3545 288.513 45.197C288.72 44.9566 288.854 44.6602 288.897 44.3441C288.898 44.2168 288.937 44.0928 289.008 43.9876C289.078 43.8824 289.178 43.8006 289.295 43.7526C289.507 43.6767 289.704 43.56 289.872 43.4087L290.07 42.9238C290.07 42.8653 290.324 42.6452 290.814 42.236C290.861 42.0057 290.968 41.7923 291.124 41.618C291.28 41.4438 291.479 41.3152 291.701 41.2455C292.466 40.7125 292.904 40.3067 293.06 40.0247C293.463 39.9419 293.838 39.7519 294.144 39.4744C294.643 39.0992 295.212 38.8312 295.816 38.6869C296.25 38.6058 296.671 38.4695 297.071 38.2811C297.31 38.1498 297.58 38.0857 297.852 38.0954L298.427 38.2123L298.8 38.1538L299.191 38.3499L299.738 38.2914L300.248 38.3499L300.483 38.2123H300.54C300.608 38.2123 300.649 38.2432 300.649 38.2914C300.608 38.4633 300.275 38.8795 299.599 39.557Z" fill="#0F0F0F"/>
<path d="M284.234 41.304C284.234 41.0426 284.088 40.905 283.776 40.905C283.463 40.905 282.895 41.1767 282.212 41.7201C281.529 42.2635 281.125 42.6693 281.009 42.9513C280.945 43.1147 280.863 43.2704 280.764 43.4155L280.085 43.3571C279.934 43.4164 279.8 43.515 279.699 43.643C279.598 43.7711 279.531 43.9239 279.507 44.0861C279.487 44.3853 279.408 44.5298 279.252 44.5298H279.137C279.028 44.4789 278.914 44.4408 278.797 44.4163C278.817 44.4163 278.824 44.4163 278.824 44.4335C278.773 44.4793 278.714 44.5154 278.651 44.5401C278.496 44.6266 278.332 44.6924 278.161 44.7361C277.988 44.7703 277.822 44.8355 277.672 44.9287C277.491 44.751 277.363 44.5259 277.301 44.2787L277.447 42.7071L277.386 42.1947C277.386 42.1259 277.505 41.9608 277.726 41.7201C277.685 41.5578 277.6 41.4101 277.481 41.2937C277.358 41.1571 277.274 40.9896 277.237 40.8088L277.383 40.2069V39.636L277.189 38.7522L277.325 38.1022C277.325 37.8306 277.091 37.466 276.645 36.9811C276.415 36.741 276.138 36.5521 275.831 36.4266C275.524 36.3011 275.195 36.2416 274.865 36.252C274.655 36.2966 274.46 36.3935 274.297 36.534C274.159 36.6528 274.004 36.7501 273.838 36.8229H273.78L273.526 36.7094L272.9 37.1943C272.73 37.2757 272.58 37.393 272.458 37.5382C272.282 37.7239 272.156 37.8202 272.078 37.8202C271.51 37.9956 270.688 38.6525 269.634 39.808C269.599 39.899 269.545 39.9813 269.476 40.0495C269.407 40.1177 269.324 40.1702 269.233 40.2035C269.043 40.2843 268.88 40.4193 268.764 40.5921C268.635 40.7675 268.537 40.8638 268.469 40.8638C268.401 40.8638 268.275 40.9429 268.129 41.0873L267.728 41.4828C267.414 41.5979 267.131 41.7837 266.898 42.0262C266.654 42.0262 266.528 41.8439 266.528 41.4828L266.868 40.1072L266.749 39.4022L266.868 38.7144V38.4943C266.757 38.0745 266.677 37.6468 266.63 37.215L266.749 36.252C266.749 35.8565 266.457 35.3992 265.858 34.8764C265.26 34.3537 264.791 34.1095 264.451 34.1095C264.314 34.1097 264.178 34.1424 264.056 34.2051C263.933 34.2678 263.826 34.3587 263.745 34.4706C263.541 34.701 263.425 34.8145 263.384 34.8145L262.926 34.6494C262.749 34.6494 262.378 34.8352 261.801 35.2238L260.754 35.9356C260.54 36.2274 260.275 36.4769 259.972 36.6716L259.17 37.043C258.835 37.1628 258.53 37.358 258.28 37.6139C258.062 37.8572 257.816 38.0721 257.546 38.2536C257.199 38.5025 256.866 38.7712 256.55 39.0583L256.441 38.8347L256.502 38.3223C256.502 36.2967 256.081 35.3751 255.258 35.5711L253.331 36.056H252.93C251.935 36.4721 251.357 36.792 251.211 37.0155L251.092 37.2184C250.928 37.2999 250.777 37.4053 250.643 37.5314C250.467 37.6906 250.269 37.8237 250.055 37.9268C249.862 38.0335 249.678 38.1401 249.505 38.2501C249.396 38.2529 249.293 38.2972 249.216 38.3739C249.091 38.477 248.948 38.5552 248.794 38.6043C248.669 38.6456 248.577 38.7797 248.519 38.9929C248.563 38.9517 248.618 38.9104 248.665 38.8691L248.516 39.0101C248.292 39.2062 248.09 39.4251 247.911 39.6636H247.931L247.89 39.7117L247.911 39.6773L247.177 40.1485C247.046 40.1708 246.928 40.2401 246.843 40.3437C246.759 40.4474 246.714 40.5783 246.718 40.7125V40.9154C246.752 41.0055 246.772 41.1008 246.776 41.1974C246.776 41.273 246.738 41.3109 246.66 41.3109C246.582 41.3109 246.541 41.2249 246.541 41.0495C246.541 40.8741 246.483 40.7984 246.365 40.7984C246.263 40.8127 246.17 40.8641 246.103 40.9429C245.994 41.0323 245.807 41.1767 245.535 41.3624C245.284 41.5357 245.056 41.7402 244.856 41.9711C244.687 42.184 244.443 42.3231 244.176 42.3598C244.062 42.3651 243.951 42.3995 243.854 42.4596C243.756 42.5197 243.675 42.6036 243.619 42.7037C243.418 42.9362 243.137 43.0816 242.833 43.1095C242.617 43.1659 242.418 43.2736 242.251 43.4238C242.084 43.5739 241.956 43.762 241.875 43.9727L241.76 44.0311H241.358C241.211 44.0385 241.071 44.094 240.957 44.1893L240.733 44.3922C240.649 44.4405 240.575 44.5056 240.517 44.5837C240.458 44.6617 240.416 44.7511 240.393 44.8462L240.111 45.0112C239.8 45.0493 239.504 45.1677 239.251 45.3551C238.933 45.5316 238.671 45.7965 238.497 46.1186L238.215 46.0051C238.048 46.0683 237.873 46.1065 237.695 46.1186C237.336 46.1203 236.985 46.2176 236.675 46.4006C236.37 46.5938 236.016 46.6951 235.656 46.6929L234.276 46.8855C233.256 46.8855 232.76 46.6138 232.76 46.0636C232.789 45.8669 232.828 45.6717 232.876 45.479C232.954 45.1351 233.005 44.8393 233.042 44.6192C233.309 44.4375 233.621 44.3361 233.943 44.3269L234.51 43.7354L234.803 43.7938L235.177 43.4499C235.479 43.4224 235.635 43.2883 235.635 43.0544C235.639 42.8388 235.719 42.6317 235.86 42.4698C235.99 42.5204 236.124 42.5595 236.261 42.5867C236.505 42.5867 236.985 42.2428 237.698 41.5275C237.825 41.5424 237.953 41.5144 238.063 41.4479C238.172 41.3813 238.257 41.2799 238.303 41.1595C238.431 40.867 238.651 40.6254 238.929 40.4717L239.449 40.5302C239.809 39.7942 240.152 39.4159 240.468 39.4159C240.501 39.4138 240.535 39.4195 240.565 39.4326C240.596 39.4458 240.623 39.4659 240.645 39.4916C240.666 39.515 240.691 39.5333 240.72 39.5452C240.749 39.5571 240.78 39.5623 240.811 39.5604C240.989 39.5295 241.149 39.4327 241.26 39.2887C241.418 39.1333 241.597 39.0003 241.79 38.8932C242.067 38.7253 242.32 38.5193 242.541 38.2811C242.905 38.202 243.394 37.8649 244.009 37.2494C244.624 36.6338 244.93 36.0491 244.93 35.4576C244.86 35.0372 244.656 34.6514 244.349 34.359C244.043 34.0666 243.65 33.8836 243.231 33.8378C242.933 33.8452 242.636 33.789 242.361 33.6728C242.212 33.5877 242.05 33.5284 241.882 33.4974L240.679 33.5558C240.293 33.5615 239.91 33.6276 239.544 33.7519C239.237 33.8694 238.913 33.9378 238.585 33.9548L238.123 33.8378C238.101 33.8391 238.079 33.8449 238.059 33.855C238.039 33.8651 238.022 33.8791 238.008 33.8963C237.823 34.1074 237.6 34.2812 237.352 34.4087C236.07 34.8661 235.289 35.2341 234.996 35.5161L234.657 36.001C234.069 36.3208 233.746 36.6888 233.708 37.1324C233.708 37.2292 233.688 37.3249 233.65 37.4137C233.612 37.5024 233.557 37.5824 233.487 37.6487C233.417 37.715 233.335 37.7663 233.245 37.7993C233.155 37.8323 233.06 37.8465 232.964 37.8409L232.366 38.343C232.091 38.876 231.924 39.2062 231.846 39.3403L231.166 40.5336C231.118 40.7437 231.021 40.9392 230.884 41.1045L230.483 42.5799C230.442 42.7346 230.238 42.9581 229.868 43.247C229.498 43.5359 229.311 44.1102 229.311 44.9665C229.295 45.0886 229.324 45.2123 229.393 45.3142C229.461 45.4161 229.563 45.4894 229.681 45.5202C229.896 45.5701 230.089 45.6911 230.228 45.8641C230.67 47.2088 230.908 47.8794 231 47.8794L231.34 47.8209C231.566 48.6738 231.958 49.1003 232.516 49.1003C232.641 49.1587 232.828 49.255 233.052 49.3823C233.243 49.5047 233.462 49.5746 233.688 49.5852C234.056 49.581 234.421 49.5219 234.772 49.4098L235.292 49.2481C235.319 49.2481 235.397 49.3238 235.516 49.4682C235.635 49.6127 235.741 49.7021 235.856 49.7021L236.658 49.5852C236.789 49.5593 236.915 49.5104 237.029 49.4407L239.435 48.5982C239.682 48.4123 239.952 48.2586 240.237 48.1408C240.329 48.1201 240.416 48.0803 240.492 48.0238C240.773 47.821 241.105 47.7018 241.45 47.6799C241.637 47.6772 241.817 47.6133 241.965 47.498C242.113 47.3827 242.219 47.2221 242.269 47.0403C242.358 46.6689 242.534 46.4866 242.779 46.4866H243.336L243.51 46.4281C243.825 46.1047 244.205 45.8537 244.624 45.6922C244.772 45.5244 244.874 45.3205 244.92 45.1007C244.968 44.8668 245.087 44.7568 245.28 44.7568C245.359 44.7568 245.399 44.7774 245.399 44.8152L245.624 45.0388C245.702 45.0388 245.811 44.9597 245.936 44.8152C246.062 44.6708 246.239 44.4713 246.426 44.3028L247.394 43.1954C247.511 43.0292 247.68 42.908 247.873 42.8515C247.983 42.8063 248.086 42.7461 248.179 42.6727L248.305 42.6005C248.386 42.5812 248.463 42.5449 248.529 42.4939C248.634 42.3916 248.767 42.3234 248.91 42.2979C248.984 42.2838 249.054 42.2518 249.113 42.2044C249.172 42.1571 249.219 42.0959 249.25 42.0262C249.317 41.8853 249.409 41.7581 249.522 41.6513C249.62 41.5516 249.817 41.3074 250.11 40.9635C250.332 40.6564 250.624 40.4066 250.959 40.2344C251.008 40.1348 251.078 40.0474 251.164 39.979C251.251 39.9105 251.352 39.8626 251.459 39.8389C251.717 39.763 251.956 39.6342 252.162 39.4607C252.406 39.266 252.712 39.1693 253.022 39.189C253.172 39.189 253.25 39.3437 253.25 39.6429C253.252 39.7968 253.203 39.947 253.111 40.0694C253.003 40.2184 252.951 40.4012 252.964 40.5852L252.594 41.1767C252.186 41.6037 251.813 42.0638 251.479 42.5523C251.089 43.1051 250.657 43.6271 250.188 44.1137C249.985 44.5352 249.75 44.94 249.484 45.3242C249.276 45.5768 249.15 45.8875 249.121 46.2149C249.121 48.581 249.698 49.764 250.844 49.764C251.428 49.764 251.724 49.6092 251.724 49.3066L251.636 48.8217C251.636 48.7254 251.741 48.6188 251.975 48.495C252.131 48.4297 252.264 48.3182 252.356 48.1752C252.557 47.834 252.784 47.5097 253.036 47.2053C253.259 46.9324 253.468 46.6477 253.661 46.3525C253.877 46.1596 254.131 46.0144 254.405 45.926C254.615 45.6707 254.799 45.3941 254.953 45.1007C255.003 44.9831 255.079 44.879 255.176 44.7966C255.273 44.7142 255.387 44.6558 255.51 44.6261C255.755 44.5676 255.874 44.4507 255.874 44.2822C255.874 43.3227 256.108 42.8378 256.553 42.8378L257.1 42.9547L257.209 42.8378C257.709 42.0262 258.011 41.6169 258.11 41.6169H258.215C258.334 41.6582 258.392 41.696 258.392 41.7339C258.47 41.7339 258.511 41.7132 258.511 41.6754C258.667 40.9016 258.939 40.4167 259.34 40.2207C259.721 39.8768 260.037 39.5913 260.261 39.3506C260.671 38.9609 261.12 38.6152 261.6 38.3189C261.961 38.0394 262.364 37.82 262.793 37.6689C262.834 37.6689 262.912 37.7377 263.017 37.8821C263.091 37.9662 263.144 38.0662 263.174 38.1745L263.048 39.0308L263.106 40.0281L262.987 40.4855L263.163 41.3109C263.067 41.4515 262.988 41.604 262.929 41.7648V41.8989C262.961 41.9524 262.98 42.0123 262.987 42.0743V42.9272C262.9 43.1396 262.825 43.3565 262.762 43.5772V43.6941C262.854 43.8364 262.929 43.9887 262.987 44.1481L262.871 45.197C262.871 45.6715 263.106 46.3318 263.551 47.1847C263.996 48.0376 264.394 48.464 264.717 48.464C265.039 48.464 265.614 47.9791 266.436 47.0196L266.603 46.6998C266.754 46.5046 266.888 46.2963 267.004 46.0773L267.344 45.9054C267.47 45.6656 267.655 45.4621 267.881 45.3139L268.22 44.6261C268.348 44.5778 268.485 44.5579 268.621 44.5676C268.887 44.1068 269.248 43.7092 269.678 43.4018C269.971 43.2573 270.107 43.0923 270.107 42.9169L270.049 42.6968V42.5799C270.058 42.4732 270.094 42.3707 270.154 42.2822C270.213 42.1937 270.294 42.1221 270.389 42.0743C270.464 42.1035 270.543 42.1198 270.623 42.1225C270.701 42.1225 270.797 42.0365 270.916 41.8611C271.105 41.6257 271.346 41.4374 271.619 41.3109C271.741 40.9755 271.968 40.6894 272.265 40.4958C272.456 40.4143 272.626 40.291 272.764 40.1347C272.89 39.9903 272.999 39.9146 273.077 39.9146C273.342 39.9146 273.478 40.0281 273.478 40.2585L273.301 41.7132L273.359 42.0227L273.243 42.5386L273.301 43.5359C273.298 43.6606 273.279 43.7844 273.243 43.9039C273.205 44.0227 273.186 44.1469 273.186 44.2719C273.186 44.516 273.41 44.9218 273.865 45.4927C273.865 45.5512 273.818 45.6303 273.709 45.7266C273.6 45.8229 273.553 45.8813 273.553 45.9192C273.553 46.6585 273.709 47.1606 274.022 47.4323C274.284 47.6489 274.53 47.8857 274.756 48.1408C275.033 48.4257 275.377 48.6361 275.755 48.7529C276.082 48.9091 276.432 49.0102 276.792 49.0521C277.23 49.0521 277.767 48.7082 278.402 48.0204C278.756 47.6123 279.135 47.2275 279.538 46.8683L280.136 46.5003C280.25 46.4048 280.389 46.344 280.537 46.325C280.73 46.2871 280.897 46.1221 281.043 45.8297C281.189 45.5374 281.281 45.3861 281.318 45.3861L281.886 45.4411L282.002 45.3276C282.334 44.6922 282.824 44.1545 283.422 43.7663C284.037 43.3502 284.35 42.9513 284.35 42.5936C284.333 42.3475 284.252 42.1102 284.115 41.9058C284.172 41.7089 284.212 41.5076 284.234 41.304ZM235.18 39.4331C235.554 38.6662 235.914 38.202 236.278 38.0163C236.662 37.8173 237.025 37.58 237.362 37.3078C237.578 37.1295 237.805 36.9653 238.042 36.816L238.381 36.6406L238.871 36.5237C239.059 36.3746 239.27 36.2584 239.496 36.1798H240.176C240.377 36.0337 240.61 35.9383 240.856 35.9013C241.219 35.9013 241.406 36.0182 241.406 36.2452C241.406 36.3621 241.229 36.479 240.896 36.5891C240.474 36.7836 240.126 37.1136 239.907 37.5279L239.598 37.6552C239.392 37.8819 239.155 38.0776 238.895 38.2364C238.697 38.3452 238.518 38.4857 238.364 38.6525L238.14 38.876C237.667 39.17 237.213 39.4939 236.781 39.8458C236.469 40.1043 236.126 40.3226 235.761 40.4958L234.793 40.9222C234.769 40.9256 234.745 40.9233 234.722 40.9158C234.699 40.9082 234.679 40.8954 234.662 40.8785C234.645 40.8615 234.632 40.8409 234.624 40.818C234.616 40.7952 234.613 40.7709 234.616 40.7469C234.757 40.2897 234.946 39.8493 235.18 39.4331Z" fill="#0F0F0F"/>
<path d="M351.308 30.392C351.307 31.3145 351.036 32.2162 350.529 32.983C350.022 33.7499 349.302 34.3475 348.46 34.7004C347.618 35.0533 346.691 35.1456 345.797 34.9657C344.902 34.7858 344.081 34.3417 343.436 33.6896C342.791 33.0375 342.352 32.2066 342.173 31.3019C341.995 30.3972 342.085 29.4592 342.434 28.6066C342.782 27.7539 343.372 27.0248 344.129 26.5113C344.887 25.9979 345.777 25.7231 346.689 25.7218C347.296 25.7204 347.897 25.8402 348.457 26.0744C349.018 26.3086 349.528 26.6525 349.957 27.0864C350.386 27.5203 350.726 28.0356 350.958 28.6029C351.19 29.1701 351.309 29.7781 351.308 30.392ZM342.696 30.392C342.696 31.191 342.93 31.9721 343.369 32.6366C343.807 33.301 344.431 33.8189 345.16 34.1249C345.89 34.4308 346.692 34.5111 347.467 34.3554C348.241 34.1998 348.953 33.8153 349.512 33.2505C350.07 32.6857 350.451 31.966 350.605 31.1824C350.76 30.3988 350.681 29.5864 350.379 28.848C350.078 28.1095 349.566 27.4782 348.91 27.0338C348.254 26.5893 347.482 26.3518 346.693 26.3511C346.168 26.3502 345.648 26.454 345.164 26.6564C344.679 26.8589 344.238 27.1562 343.867 27.5312C343.496 27.9062 343.201 28.3516 343 28.8419C342.799 29.3322 342.696 29.8577 342.696 30.3885V30.392Z" fill="#0F0F0F"/>
<path d="M347.331 30.5261C347.527 30.6172 347.698 30.7549 347.83 30.9273C347.962 31.0998 348.051 31.3019 348.089 31.5165C348.188 31.8913 348.276 32.2662 348.368 32.6376C348.403 32.7932 348.452 32.9451 348.514 33.0916C348.551 33.181 348.514 33.2051 348.439 33.2016C348.263 33.2016 348.099 33.2016 347.909 33.2016C347.872 33.2061 347.835 33.1966 347.804 33.1751C347.773 33.1535 347.751 33.1214 347.743 33.0847C347.63 32.7368 347.536 32.3833 347.461 32.0255C347.418 31.8113 347.359 31.6008 347.284 31.3961C347.215 31.2147 347.093 31.0593 346.933 30.9515C346.774 30.8436 346.585 30.7887 346.393 30.7943C346.2 30.7943 346.009 30.7943 345.816 30.7943C345.714 30.7943 345.68 30.8253 345.68 30.9284C345.68 31.6162 345.68 32.3281 345.68 33.0262C345.68 33.2016 345.68 33.2016 345.5 33.2016H345.112C344.939 33.2016 344.939 33.2016 344.939 33.0228V27.8642C344.939 27.6785 344.939 27.6751 345.122 27.6476C345.735 27.5445 346.358 27.5306 346.975 27.6063C347.311 27.6462 347.629 27.7822 347.892 27.9984C348.067 28.165 348.199 28.3723 348.276 28.6021C348.354 28.832 348.375 29.0776 348.337 29.3175C348.3 29.5574 348.205 29.7844 348.061 29.9788C347.917 30.1733 347.728 30.3292 347.512 30.4332L347.331 30.5261ZM345.683 29.2123C345.683 29.4943 345.683 29.7763 345.683 30.0583C345.683 30.1753 345.71 30.2234 345.833 30.2165C346.054 30.2165 346.274 30.2165 346.492 30.2165C346.662 30.213 346.83 30.1793 346.988 30.1168C347.184 30.049 347.353 29.9174 347.467 29.7426C347.581 29.5678 347.635 29.3596 347.62 29.1504C347.629 28.931 347.559 28.7158 347.423 28.545C347.286 28.3741 347.093 28.2593 346.879 28.2219C346.525 28.1418 346.159 28.1336 345.802 28.1978C345.714 28.1978 345.683 28.246 345.687 28.3354C345.69 28.6243 345.687 28.92 345.687 29.2123H345.683Z" fill="#0F0F0F"/>
</g>
<defs>
<clipPath id="clip0_409_423">
<rect width="298" height="59" fill="white" transform="translate(53.3077 12)"/>
</clipPath>
</defs>
</svg>
