<svg width="40" height="40" viewBox="0 0 40 40" fill="none" xmlns="http://www.w3.org/2000/svg">
<path d="M23.3312 40C23.1174 39.9998 22.9049 39.9599 22.7021 39.8817L16.0229 37.3173C15.6257 37.1633 15.2807 36.8687 15.0368 36.4755C14.793 36.0823 14.6628 35.6104 14.6646 35.1269V23.6644C14.6628 23.6598 14.6602 23.6555 14.6571 23.6519L0.60302 4.76346C0.291386 4.34456 0.0904769 3.83127 0.0241441 3.28454C-0.0421886 2.7378 0.0288418 2.18059 0.228802 1.67905C0.428762 1.17751 0.749253 0.75271 1.15222 0.455087C1.5552 0.157464 2.02372 -0.000482099 2.50218 1.10538e-06H37.4978C37.9763 -0.000482099 38.4448 0.157464 38.8478 0.455087C39.2507 0.75271 39.5712 1.17751 39.7712 1.67905C39.9712 2.18059 40.0422 2.7378 39.9759 3.28454C39.9095 3.83127 39.7086 4.34456 39.397 4.76346L25.3387 23.6538C25.3359 23.6577 25.3333 23.6619 25.3312 23.6663V37.6923C25.332 37.9956 25.2808 38.2961 25.1806 38.5765C25.0803 38.8568 24.933 39.1116 24.7472 39.3261C24.5613 39.5405 24.3405 39.7105 24.0975 39.8261C23.8545 39.9418 23.5941 40.0009 23.3312 40Z" fill="#403834"/>
</svg>
